<svg xmlns="http://www.w3.org/2000/svg" xmlns:xlink="http://www.w3.org/1999/xlink" width="16" height="16" viewBox="0 0 16 16"><defs><style>.a{fill:#1677ff;}.b{fill:none;}.c{clip-path:url(#a);}</style><clipPath id="a"><rect class="a" width="14" height="14"/></clipPath></defs><g transform="translate(1 1)"><rect class="b" width="16" height="16" transform="translate(-1 -1)"/><g class="c"><path class="a" d="M13.506,4.3a.481.481,0,0,0-.494.467v8.3H.987V2.865L3.112.933h7.206a.48.48,0,0,0,.493-.466A.48.48,0,0,0,10.318,0h-7.4A.515.515,0,0,0,2.57.13L.151,2.33A.455.455,0,0,0,0,2.667V13.533A.481.481,0,0,0,.494,14H13.506A.481.481,0,0,0,14,13.533V4.768a.481.481,0,0,0-.494-.467"/><path class="a" d="M4.756,8.41v0l0,0,0,0L4.314,9.995l1.472-.327,0,0L13.22,2.327a.334.334,0,0,0,.021-.441L12.594,1.1a.267.267,0,0,0-.4-.023L4.757,8.411Z"/></g></g></svg>