<svg id="审核" xmlns="http://www.w3.org/2000/svg" xmlns:xlink="http://www.w3.org/1999/xlink" width="16" height="16" viewBox="0 0 16 16">
  <defs>
    <style>
      .cls-1 {
        fill: #1677ff;
      }

      .cls-2 {
        clip-path: url(#clip-path);
      }
    </style>
    <clipPath id="clip-path">
      <rect id="矩形_13" data-name="矩形 13" class="cls-1" width="16" height="16"/>
    </clipPath>
  </defs>
  <g id="组_20" data-name="组 20" class="cls-2">
    <path id="路径_25" data-name="路径 25" class="cls-1" d="M15.5,10H12.73L9.978,6.789a1,1,0,0,0-.137-.325,3.5,3.5,0,1,0-3.682,0,1,1,0,0,0-.137.325L3.27,10H.5a.5.5,0,0,0-.5.5v5a.5.5,0,0,0,.5.5h15a.5.5,0,0,0,.5-.5v-5a.5.5,0,0,0-.5-.5M5.5,3.5A2.5,2.5,0,1,1,8,6,2.5,2.5,0,0,1,5.5,3.5M6.879,7.325A.492.492,0,0,0,7,7H9a.492.492,0,0,0,.121.325L11.413,10H4.587ZM15,15H1V11H15Z"/>
    <path id="路径_26" data-name="路径 26" class="cls-1" d="M3.5,13a.5.5,0,0,0,0,1h9a.5.5,0,0,0,0-1Z"/>
  </g>
</svg>
