<svg xmlns="http://www.w3.org/2000/svg" xmlns:xlink="http://www.w3.org/1999/xlink" width="16" height="16" viewBox="0 0 16 16"><defs><style>.a{fill:current;}.b{clip-path:url(#a);}</style><clipPath id="a"><rect class="a" width="16" height="16"/></clipPath></defs><g class="b"><path class="a" d="M14.5,13.125a.5.5,0,0,0-.5.5A1.443,1.443,0,0,1,12.5,15H2.5A1.443,1.443,0,0,1,1,13.625V2.375A1.443,1.443,0,0,1,2.5,1H9.3L14,4.4v.721a.5.5,0,0,0,1,0V4.187a.5.5,0,0,0-.158-.364l-5-3.688A.5.5,0,0,0,9.5,0h-7A2.442,2.442,0,0,0,0,2.375v11.25A2.442,2.442,0,0,0,2.5,16h10A2.443,2.443,0,0,0,15,13.625a.5.5,0,0,0-.5-.5"/><path class="a" d="M15.985,9.455a.412.412,0,0,0-.134-.281L13.207,6.513a.5.5,0,0,0-.707,0,.506.506,0,0,0,0,.712l1.793,1.8L3,9v1l11.293.036-1.793,1.8a.505.505,0,0,0,0,.711.5.5,0,0,0,.707,0l2.644-2.661a.5.5,0,0,0,.111-.167.481.481,0,0,0,.023-.114A.462.462,0,0,0,16,9.536V9.529a.462.462,0,0,0-.015-.074"/></g></svg>