<svg id="分组" xmlns="http://www.w3.org/2000/svg" xmlns:xlink="http://www.w3.org/1999/xlink" width="12" height="12" viewBox="0 0 12 12">
  <defs>
    <style>
      .cls-1 {
        fill: #666;
      }

      .cls-2 {
        clip-path: url(#clip-path);
      }
    </style>
    <clipPath id="clip-path">
      <rect id="矩形_1292" data-name="矩形 1292" class="cls-1" width="12" height="12"/>
    </clipPath>
  </defs>
  <g id="组_1391" data-name="组 1391" class="cls-2">
    <path id="路径_3814" data-name="路径 3814" class="cls-1" d="M8.738,5.232a3,3,0,1,0-4.7-3.54A2.993,2.993,0,0,0,3.643,6.98,4.973,4.973,0,0,0,0,11.671c0,.111,0,.22.012.329H10.491c.007-.109.011-.218.011-.329a4.631,4.631,0,0,0-.155-1.171h1.279A.374.374,0,0,0,12,10.125,5.031,5.031,0,0,0,8.738,5.232M6.731.75A2.251,2.251,0,0,1,8.207,4.7c.008-.086.026-.169.026-.257a3.005,3.005,0,0,0-3-3c-.042,0-.08.011-.121.012A2.234,2.234,0,0,1,6.731.75M2.982,4.443a2.256,2.256,0,0,1,1.4-2.083c.072-.029.149-.047.224-.07a2.227,2.227,0,0,1,.631-.1A2.254,2.254,0,1,1,2.982,4.443M7.769,11.25h-7A4.4,4.4,0,0,1,5.251,7.492,4.4,4.4,0,0,1,9.729,11.25Zm2.319-1.5A5.158,5.158,0,0,0,6.837,6.972,3,3,0,0,0,7.913,5.765,4.262,4.262,0,0,1,11.238,9.75Z"/>
  </g>
</svg>
