<svg xmlns="http://www.w3.org/2000/svg" xmlns:xlink="http://www.w3.org/1999/xlink" width="16" height="16" viewBox="0 0 16 16"><defs><style>.a{fill:#404040;}.b{clip-path:url(#a);}</style><clipPath id="a"><rect class="a" width="16" height="16"/></clipPath></defs><g class="b"><path class="a" d="M14.5,13.125a.5.5,0,0,0-.5.5A1.443,1.443,0,0,1,12.5,15H2.5A1.443,1.443,0,0,1,1,13.625V2.375A1.443,1.443,0,0,1,2.5,1H9.3L14,4.4v.721a.5.5,0,0,0,1,0V4.187a.5.5,0,0,0-.158-.364l-5-3.688A.5.5,0,0,0,9.5,0h-7A2.442,2.442,0,0,0,0,2.375v11.25A2.442,2.442,0,0,0,2.5,16h10A2.443,2.443,0,0,0,15,13.625a.5.5,0,0,0-.5-.5"/><path class="a" d="M3.015,9.455a.412.412,0,0,1,.134-.281L5.793,6.513a.5.5,0,0,1,.707,0,.506.506,0,0,1,0,.712l-1.793,1.8L16,9v1l-11.293.036L6.5,11.841a.505.505,0,0,1,0,.711.5.5,0,0,1-.707,0L3.149,9.891a.5.5,0,0,1-.111-.167.481.481,0,0,1-.023-.114A.462.462,0,0,1,3,9.536V9.529a.462.462,0,0,1,.015-.074" transform="translate(0 0)"/></g></svg>