<svg xmlns="http://www.w3.org/2000/svg" xmlns:xlink="http://www.w3.org/1999/xlink" width="16" height="16" viewBox="0 0 16 16"><defs><style>.a{fill:#a1a1a1;}.b{fill:none;}.c{clip-path:url(#a);}</style><clipPath id="a"><rect class="a" width="14" height="16"/></clipPath></defs><g transform="translate(1)"><rect class="b" width="16" height="16" transform="translate(-1)"/><g class="c"><path class="a" d="M12,0H2A2,2,0,0,0,0,2V14a2,2,0,0,0,2,2H12a2,2,0,0,0,2-2V2a2,2,0,0,0-2-2m0,14H2V9H5.979v2.517a.2.2,0,0,0,.342.142L9.838,8.142a.2.2,0,0,0,0-.282L6.321,4.342a.2.2,0,0,0-.342.142V7H2V1.992H12Z"/></g></g></svg>