<svg xmlns="http://www.w3.org/2000/svg" xmlns:xlink="http://www.w3.org/1999/xlink" width="16" height="16" viewBox="0 0 16 16"><defs><style>.a{fill:#1677ff;}.b{fill:none;}.c{clip-path:url(#a);}</style><clipPath id="a"><rect class="a" width="14" height="16"/></clipPath></defs><g transform="translate(1)"><rect class="b" width="16" height="16" transform="translate(-1)"/><g class="c"><path class="a" d="M12,0H2A2,2,0,0,0,0,2V14a2,2,0,0,0,2,2H12a2,2,0,0,0,2-2V2a2,2,0,0,0-2-2m1,14a1,1,0,0,1-1,1H2a1,1,0,0,1-1-1V2A1,1,0,0,1,2,1H12a1,1,0,0,1,1,1Z"/><path class="a" d="M10.5,3h-7a.5.5,0,0,0,0,1h7a.5.5,0,0,0,0-1"/><path class="a" d="M10.5,6h-7a.5.5,0,0,0,0,1h7a.5.5,0,0,0,0-1"/><path class="a" d="M10.5,9h-7a.5.5,0,0,0,0,1h7a.5.5,0,0,0,0-1"/><path class="a" d="M10.5,12h-7a.5.5,0,0,0,0,1h7a.5.5,0,0,0,0-1"/></g></g></svg>