<svg xmlns="http://www.w3.org/2000/svg" xmlns:xlink="http://www.w3.org/1999/xlink" width="16" height="16" viewBox="0 0 16 16"><defs><style>.a{fill:#1677ff;}.b{clip-path:url(#a);}</style><clipPath id="a"><rect class="a" width="16" height="16"/></clipPath></defs><g class="b"><path class="a" d="M15.961,7.309a.5.5,0,0,0-.108-.162L13.732,5.025a.5.5,0,0,0-.707.707L14.292,7H4.5a.5.5,0,0,0,0,1h11a.5.5,0,0,0,.461-.309A.494.494,0,0,0,16,7.5v0a.506.506,0,0,0-.039-.191"/><path class="a" d="M13.5,13.5a.5.5,0,0,0-.5.5v.5a.5.5,0,0,1-.5.5H1.5a.5.5,0,0,1-.5-.5V1.5A.5.5,0,0,1,1.5,1h11a.5.5,0,0,1,.5.5V2a.5.5,0,0,0,1,0V1.5A1.5,1.5,0,0,0,12.5,0H1.5A1.5,1.5,0,0,0,0,1.5v13A1.5,1.5,0,0,0,1.5,16h11A1.5,1.5,0,0,0,14,14.5V14a.5.5,0,0,0-.5-.5"/><path class="a" d="M15.5,9H4.5a.507.507,0,0,0-.35.144l0,0,0,.006A.5.5,0,0,0,4,9.5v0a.5.5,0,0,0,.039.189.489.489,0,0,0,.1.157l0,.006,2.122,2.121a.5.5,0,0,0,.707-.707L5.707,10H15.5a.5.5,0,0,0,0-1"/></g></svg>