<svg id="告警统计" xmlns="http://www.w3.org/2000/svg" xmlns:xlink="http://www.w3.org/1999/xlink" width="16" height="16" viewBox="0 0 16 16">
  <defs>
    <style>
      .cls-1 {
        fill: #1677ff;
      }

      .cls-2 {
        clip-path: url(#clip-path);
      }
    </style>
    <clipPath id="clip-path">
      <rect id="矩形_980" data-name="矩形 980" class="cls-1" width="16" height="16"/>
    </clipPath>
  </defs>
  <g id="组_1023" data-name="组 1023" class="cls-2">
    <path id="路径_3453" data-name="路径 3453" class="cls-1" d="M10.563,14H5.438A.436.436,0,0,0,5,14.437v.125A.436.436,0,0,0,5.438,15h5.125A.437.437,0,0,0,11,14.562v-.125A.437.437,0,0,0,10.563,14"/>
    <path id="路径_3454" data-name="路径 3454" class="cls-1" d="M.5,4.5A.5.5,0,0,0,1,4V1.5c0-.286.168-.5.318-.5H3A.5.5,0,0,0,3,0H1.318A1.419,1.419,0,0,0,0,1.5V4a.5.5,0,0,0,.5.5"/>
    <path id="路径_3455" data-name="路径 3455" class="cls-1" d="M3,15H1.318C1.168,15,1,14.786,1,14.5V12a.5.5,0,0,0-1,0v2.5A1.419,1.419,0,0,0,1.318,16H3a.5.5,0,0,0,0-1"/>
    <path id="路径_3456" data-name="路径 3456" class="cls-1" d="M15.5,11.5a.5.5,0,0,0-.5.5v.435A.438.438,0,0,0,14.563,12H13V5.375A4.375,4.375,0,0,0,8.625,1H7.375A4.375,4.375,0,0,0,3,5.375V12H1.437A.437.437,0,0,0,1,12.437v.125A.438.438,0,0,0,1.437,13H14.563A.438.438,0,0,0,15,12.565V14.5c0,.286-.168.5-.319.5H13a.5.5,0,0,0,0,1h1.681A1.42,1.42,0,0,0,16,14.5V12a.5.5,0,0,0-.5-.5m-3.375.5H3.875V5.375a3.5,3.5,0,0,1,3.5-3.5h1.25a3.5,3.5,0,0,1,3.5,3.5Z"/>
    <path id="路径_3457" data-name="路径 3457" class="cls-1" d="M14.681,0H13a.5.5,0,0,0,0,1h1.682c.15,0,.318.214.318.5V4a.5.5,0,0,0,1,0V1.5A1.42,1.42,0,0,0,14.681,0"/>
  </g>
</svg>
