<svg xmlns="http://www.w3.org/2000/svg" xmlns:xlink="http://www.w3.org/1999/xlink" width="16" height="15.999" viewBox="0 0 16 15.999">
  <defs>
    <style>
      .cls-1 {
        fill: #fff;
      }

      .cls-2 {
        clip-path: url(#clip-path);
      }
    </style>
    <clipPath id="clip-path">
      <rect id="矩形_981" data-name="矩形 981" class="cls-1" width="16" height="15.999"/>
    </clipPath>
  </defs>
  <g id="级联设备图标" transform="translate(0 0)">
    <g id="组_1024" data-name="组 1024" class="cls-2" transform="translate(0 0)">
      <path id="路径_3458" data-name="路径 3458" class="cls-1" d="M9.293,11.2a.167.167,0,0,0-.236,0l-2.42,2.42a3.005,3.005,0,0,1-4.25-4.25l2.42-2.42a.167.167,0,0,0,0-.236l-.83-.83a.167.167,0,0,0-.235,0L1.323,8.3A4.507,4.507,0,0,0,7.7,14.678l2.42-2.419a.165.165,0,0,0,0-.235ZM14.68,1.323a4.5,4.5,0,0,0-6.374,0L5.882,3.743a.167.167,0,0,0,0,.236l.827.827a.165.165,0,0,0,.235,0l2.421-2.42a3.005,3.005,0,0,1,4.25,4.25L11.194,9.058a.167.167,0,0,0,0,.235l.83.83a.167.167,0,0,0,.236,0L14.68,7.7a4.512,4.512,0,0,0,0-6.38" transform="translate(0 0)"/>
      <path id="路径_3459" data-name="路径 3459" class="cls-1" d="M9.257,4.3a.165.165,0,0,0-.235,0L4.3,9.021a.169.169,0,0,0,0,.236l.825.824a.165.165,0,0,0,.235,0l4.717-4.717a.167.167,0,0,0,0-.235L9.257,4.3" transform="translate(0.788 0.788)"/>
    </g>
  </g>
</svg>
