<svg xmlns="http://www.w3.org/2000/svg" xmlns:xlink="http://www.w3.org/1999/xlink" width="16" height="16" viewBox="0 0 16 16">
  <defs>
    <style>
      .cls-1 {
        fill: #fff;
      }

      .cls-2 {
        fill: none;
      }

      .cls-3 {
        clip-path: url(#clip-path);
      }
    </style>
    <clipPath id="clip-path">
      <rect id="矩形_992" data-name="矩形 992" class="cls-1" width="13.986" height="12"/>
    </clipPath>
  </defs>
  <g id="设备统计" transform="translate(1.007 2)">
    <rect id="矩形_1008" data-name="矩形 1008" class="cls-2" width="16" height="16" transform="translate(-1.007 -2)"/>
    <g id="组_1026" data-name="组 1026" class="cls-3">
      <path id="路径_3460" data-name="路径 3460" class="cls-1" d="M3.486,1h10a.5.5,0,0,0,0-1h-10a.5.5,0,0,0,0,1"/>
      <path id="路径_3461" data-name="路径 3461" class="cls-1" d="M13.486,4.988h-10a.5.5,0,0,0,0,1h10a.5.5,0,0,0,0-1"/>
      <path id="路径_3462" data-name="路径 3462" class="cls-1" d="M13.486,11h-10a.5.5,0,0,0,0,1h10a.5.5,0,0,0,0-1"/>
      <rect id="矩形_989" data-name="矩形 989" class="cls-1" width="1" height="1"/>
      <rect id="矩形_990" data-name="矩形 990" class="cls-1" width="1" height="1" transform="translate(0 5)"/>
      <rect id="矩形_991" data-name="矩形 991" class="cls-1" width="1" height="1" transform="translate(0 11)"/>
    </g>
  </g>
</svg>
