<svg id="处置日志" xmlns="http://www.w3.org/2000/svg" xmlns:xlink="http://www.w3.org/1999/xlink" width="16" height="16" viewBox="0 0 16 16">
  <defs>
    <style>
      .cls-1 {
        fill: #1677ff;
      }

      .cls-2 {
        clip-path: url(#clip-path);
      }
    </style>
    <clipPath id="clip-path">
      <rect id="矩形_978" data-name="矩形 978" class="cls-1" width="16" height="16"/>
    </clipPath>
  </defs>
  <g id="组_1019" data-name="组 1019" class="cls-2">
    <path id="路径_3449" data-name="路径 3449" class="cls-1" d="M13.625,2H12V1a1,1,0,0,0-1-1H5A1,1,0,0,0,4,1V2H2.375A2.357,2.357,0,0,0,0,4.334v9.333A2.356,2.356,0,0,0,2.375,16h11.25A2.356,2.356,0,0,0,16,13.667V4.334A2.357,2.357,0,0,0,13.625,2M5,1h6V4H5ZM15,13.667a1.389,1.389,0,0,1-1.375,1.4H2.375A1.389,1.389,0,0,1,1,13.667V4.334a1.389,1.389,0,0,1,1.375-1.4H4V4A1,1,0,0,0,5,5h6a1,1,0,0,0,1-1V2.934h1.625A1.389,1.389,0,0,1,15,4.334Z"/>
    <rect id="矩形_977" data-name="矩形 977" class="cls-1" width="8" height="1" transform="translate(4 6)"/>
    <path id="路径_3450" data-name="路径 3450" class="cls-1" d="M12.146,8.147,7.5,12.793,4.853,10.147a.5.5,0,0,0-.707.707L7.5,14.208l5.353-5.354a.5.5,0,0,0-.707-.707"/>
  </g>
</svg>
