<svg id="策略统计" xmlns="http://www.w3.org/2000/svg" xmlns:xlink="http://www.w3.org/1999/xlink" width="16" height="16" viewBox="0 0 16 16">
  <defs>
    <style>
      .cls-1 {
        fill: #1677ff;
      }

      .cls-2 {
        clip-path: url(#clip-path);
      }
    </style>
    <clipPath id="clip-path">
      <rect id="矩形_962" data-name="矩形 962" class="cls-1" width="16" height="16"/>
    </clipPath>
  </defs>
  <g id="组_1011" data-name="组 1011" class="cls-2">
    <path id="路径_3442" data-name="路径 3442" class="cls-1" d="M14,0H2A2,2,0,0,0,0,2v9a2,2,0,0,0,2,2H14a2,2,0,0,0,2-2V2a2,2,0,0,0-2-2m1,11a1,1,0,0,1-1,1H2a1,1,0,0,1-1-1V2A1,1,0,0,1,2,1H14a1,1,0,0,1,1,1Z"/>
    <path id="路径_3443" data-name="路径 3443" class="cls-1" d="M12.5,15h-9a.5.5,0,0,0,0,1h9a.5.5,0,0,0,0-1"/>
    <path id="路径_3444" data-name="路径 3444" class="cls-1" d="M13.651,2.281a.49.49,0,0,0-.2-.238l-.028-.02a.663.663,0,0,0-.059-.031.464.464,0,0,0-.289-.061.485.485,0,0,0-.25.115l-3,1.077a.5.5,0,0,0,.338.941l1.94-.7L8.4,8.4,3.925,4.915,1.616,7.68a.5.5,0,1,0,.767.641L4.074,6.3,8.6,9.816l4.231-5.739L13,5.559A.5.5,0,0,0,13.5,6a.39.39,0,0,0,.059,0A.5.5,0,0,0,14,5.442l-.34-2.87a.49.49,0,0,0-.005-.291"/>
  </g>
</svg>
