<svg id="IPv6-已配置" xmlns="http://www.w3.org/2000/svg" xmlns:xlink="http://www.w3.org/1999/xlink" width="16" height="16" viewBox="0 0 16 16">
  <defs>
    <style>
      .cls-1 {
        fill: #1677ff;
      }

      .cls-2 {
        clip-path: url(#clip-path);
      }
    </style>
    <clipPath id="clip-path">
      <rect id="矩形_1071" data-name="矩形 1071" class="cls-1" width="16" height="16"/>
    </clipPath>
  </defs>
  <g id="组_1145" data-name="组 1145" class="cls-2">
    <path id="路径_3552" data-name="路径 3552" class="cls-1" d="M14,0H2A2,2,0,0,0,0,2V14a2,2,0,0,0,2,2H14a2,2,0,0,0,2-2V2a2,2,0,0,0-2-2m1,14a1,1,0,0,1-1,1H2a1,1,0,0,1-1-1V2A1,1,0,0,1,2,1H14a1,1,0,0,1,1,1Z"/>
    <path id="路径_3553" data-name="路径 3553" class="cls-1" d="M4.382,12.239,2.015,6.016H3.128L4.464,9.743q.217.6.4,1.254Q5,10.5,5.255,9.813l1.383-3.8H7.722L5.366,12.239Z"/>
    <path id="路径_3554" data-name="路径 3554" class="cls-1" d="M13.833,5.753l-1.049.082a1.983,1.983,0,0,0-.4-.9,1.394,1.394,0,0,0-1.054-.452,1.447,1.447,0,0,0-.885.282,2.4,2.4,0,0,0-.785,1.06,5.535,5.535,0,0,0-.3,1.987,2.443,2.443,0,0,1,.932-.862,2.511,2.511,0,0,1,1.154-.281,2.393,2.393,0,0,1,1.8.776,2.789,2.789,0,0,1,.741,2.007,3.3,3.3,0,0,1-.349,1.5,2.539,2.539,0,0,1-.958,1.064,2.615,2.615,0,0,1-1.382.369,2.705,2.705,0,0,1-2.151-.97,4.895,4.895,0,0,1-.832-3.2A5.73,5.73,0,0,1,9.233,4.6,2.643,2.643,0,0,1,11.4,3.614a2.424,2.424,0,0,1,1.661.569,2.409,2.409,0,0,1,.777,1.57m-4.307,3.7A2.451,2.451,0,0,0,9.757,10.5a1.734,1.734,0,0,0,.648.759,1.616,1.616,0,0,0,.873.261,1.486,1.486,0,0,0,1.148-.54,2.116,2.116,0,0,0,.481-1.464,1.985,1.985,0,0,0-.475-1.4A1.558,1.558,0,0,0,11.237,7.6a1.625,1.625,0,0,0-1.213.512,1.849,1.849,0,0,0-.5,1.345"/>
  </g>
</svg>
