<svg xmlns="http://www.w3.org/2000/svg" xmlns:xlink="http://www.w3.org/1999/xlink" width="16" height="16" viewBox="0 0 16 16"><defs><style>.a{fill:none;}.b{clip-path:url(#a);}</style><clipPath id="a"><rect class="a" width="16" height="16"/></clipPath></defs><g class="b"><path d="M.5,1h15a.5.5,0,0,0,0-1H.5a.5.5,0,0,0,0,1"/><path d="M15.5,3H.5a.5.5,0,0,0-.5.5v9a.5.5,0,0,0,.5.5H6.181a6.451,6.451,0,0,1-.156-1H1V4H15V5.5a6.449,6.449,0,0,1,1,.529V3.5a.5.5,0,0,0-.5-.5"/><path d="M.5,15a.5.5,0,0,0,0,1H7.816a6.514,6.514,0,0,1-.787-1Z"/><path d="M11.5,7A4.5,4.5,0,1,0,16,11.5,4.5,4.5,0,0,0,11.5,7M8,11.5A3.5,3.5,0,0,1,11.5,8a3.463,3.463,0,0,1,2.086.707L8.707,13.586A3.463,3.463,0,0,1,8,11.5M11.5,15a3.463,3.463,0,0,1-2.086-.707l4.879-4.879A3.463,3.463,0,0,1,15,11.5,3.5,3.5,0,0,1,11.5,15"/></g></svg>