<svg xmlns="http://www.w3.org/2000/svg" xmlns:xlink="http://www.w3.org/1999/xlink" width="16" height="16" viewBox="0 0 16 16"><defs><style>.a{fill:#FFFFFF;}.b{clip-path:url(#a);}</style><clipPath id="a"><rect class="a" width="16" height="16"/></clipPath></defs><g class="b"><path d="M4.5,1h7a.5.5,0,0,0,0-1h-7a.5.5,0,0,0,0,1"/><path d="M15.5,2H.5a.5.5,0,0,0,0,1H1V16H15V3h.5a.5.5,0,0,0,0-1M14,15H2V3H14Z"/><path d="M4.647,11.354a.5.5,0,0,0,.707,0L8,8.708l2.646,2.646a.5.5,0,0,0,.707-.707L8.708,8l2.646-2.646a.5.5,0,1,0-.707-.707L8,7.293,5.354,4.647a.5.5,0,0,0-.707.707L7.293,8,4.647,10.647a.5.5,0,0,0,0,.707"/><path d="M10.5,13h-5a.5.5,0,0,0,0,1h5a.5.5,0,0,0,0-1"/></g></svg>