<svg xmlns="http://www.w3.org/2000/svg" width="16" height="15.999" viewBox="0 0 16 15.999">
  <defs>
    <style>
      .cls-1 {
        fill: #a1a1a1;
      }
    </style>
  </defs>
  <g id="修改-不可用" transform="translate(0 -0.001)">
    <g id="组_18" data-name="组 18">
      <path id="路径_19" data-name="路径 19" class="cls-1" d="M7.4,7.415v0l0,0,0,0L6.958,9,8.43,8.673l0,0,7.437-7.337a.334.334,0,0,0,.021-.441L15.238.1a.267.267,0,0,0-.4-.023L7.4,7.416Z"/>
      <path id="路径_20" data-name="路径 20" class="cls-1" d="M15.5,4.5A.5.5,0,0,0,15,5l.007,9.452s-.08.2-.645.548H1.5a.5.5,0,0,1-.5-.5V2.5A.5.5,0,0,1,1.5,2H11a.5.5,0,0,0,0-1H1.5A1.5,1.5,0,0,0,0,2.5v12A1.5,1.5,0,0,0,1.5,16H14.635l.117-.068c.84-.49,1.248-.958,1.248-1.432V5a.5.5,0,0,0-.5-.5"/>
    </g>
  </g>
</svg>
