<svg xmlns="http://www.w3.org/2000/svg" xmlns:xlink="http://www.w3.org/1999/xlink" width="16" height="16" viewBox="0 0 16 16"><defs><style>.a{fill:none;}.b{clip-path:url(#a);}.c{fill:#000024;}</style><clipPath id="a"><rect class="a" width="16" height="16"/></clipPath></defs><g class="b"><path class="c" d="M.5,6.5A.5.5,0,0,0,1,6V1.5c0-.286.168-.5.318-.5H5A.5.5,0,0,0,5,0H1.318A1.419,1.419,0,0,0,0,1.5V6a.5.5,0,0,0,.5.5"/><path class="c" d="M5,15H1.318C1.168,15,1,14.786,1,14.5V10a.5.5,0,0,0-1,0v4.5A1.419,1.419,0,0,0,1.318,16H5a.5.5,0,0,0,0-1"/><path class="c" d="M15.5,9.5a.5.5,0,0,0-.5.5v4.5c0,.286-.168.5-.319.5H11a.5.5,0,0,0,0,1h3.681A1.42,1.42,0,0,0,16,14.5V10a.5.5,0,0,0-.5-.5"/><path class="c" d="M14.681,0H11a.5.5,0,0,0,0,1h3.682c.15,0,.318.214.318.5V6a.5.5,0,0,0,1,0V1.5A1.42,1.42,0,0,0,14.681,0"/><path class="c" d="M4,3.988a1,1,0,0,1-1,1,1,1,0,0,0-1,1v6a1,1,0,0,0,1,1H13a1,1,0,0,0,1-1v-6a1,1,0,0,0-1-1,1,1,0,0,1-1-1,1,1,0,0,0-1-1H5a1,1,0,0,0-1,1m9,2v6H3v-6a2,2,0,0,0,2-2h6a2,2,0,0,0,2,2"/><path class="c" d="M7.94,10.988a2.5,2.5,0,1,0-2.5-2.5,2.5,2.5,0,0,0,2.5,2.5m0-4a1.5,1.5,0,1,1-1.5,1.5,1.5,1.5,0,0,1,1.5-1.5"/></g></svg>