<svg xmlns="http://www.w3.org/2000/svg" xmlns:xlink="http://www.w3.org/1999/xlink" width="16" height="16" viewBox="0 0 16 16">
  <defs>
    <style>
      .cls-1 {
        fill: #de868f;
      }

      .cls-2 {
        clip-path: url(#clip-path);
      }
    </style>
    <clipPath id="clip-path">
      <rect id="矩形_853" data-name="矩形 853" class="cls-1" width="16" height="16"/>
    </clipPath>
  </defs>
  <g id="未知" transform="translate(0 0)">
    <g id="组_903" data-name="组 903" class="cls-2" transform="translate(0 0)">
      <path id="路径_3282" data-name="路径 3282" class="cls-1" d="M15.673,4.672,11.323.323A1.1,1.1,0,0,0,10.542,0H2A2,2,0,0,0,0,2V14a2,2,0,0,0,2,2H14a2,2,0,0,0,2-2V5.459a1.109,1.109,0,0,0-.327-.788M15,14a1,1,0,0,1-1,1H2a1,1,0,0,1-1-1V2A1,1,0,0,1,2,1h8.542a.107.107,0,0,1,.074.03l4.35,4.349A.113.113,0,0,1,15,5.459Z" transform="translate(0 0)"/>
      <path id="路径_3283" data-name="路径 3283" class="cls-1" d="M8.019,11.242a.723.723,0,0,0-.557.223.706.706,0,0,0-.235.558.788.788,0,0,0,.792.791.808.808,0,0,0,.559-.227.834.834,0,0,0,0-1.121.756.756,0,0,0-.559-.223" transform="translate(0 -0.006)"/>
      <path id="路径_3284" data-name="路径 3284" class="cls-1" d="M10.383,3.9a3.367,3.367,0,0,0-2.255-.7,3.407,3.407,0,0,0-2.462.871A3.1,3.1,0,0,0,4.8,6.437H5.988a2.463,2.463,0,0,1,.457-1.65,2,2,0,0,1,1.621-.673,2.084,2.084,0,0,1,1.452.464A1.56,1.56,0,0,1,10,5.815a1.6,1.6,0,0,1-.426,1.038c-.138.146-.3.3-.5.481A5.2,5.2,0,0,0,7.6,8.861a1.925,1.925,0,0,0-.241,1.147v.553H8.734V10.01a.843.843,0,0,1,.05-.979,2.574,2.574,0,0,1,.675-.709,13.559,13.559,0,0,0,1.2-1.019A2.378,2.378,0,0,0,11.2,5.761,2.263,2.263,0,0,0,10.381,3.9Z" transform="translate(0 -0.002)"/>
    </g>
  </g>
</svg>
