<svg id="矩阵展示" xmlns="http://www.w3.org/2000/svg" xmlns:xlink="http://www.w3.org/1999/xlink" width="15.998" height="16" viewBox="0 0 15.998 16">
  <defs>
    <style>
      .cls-1 {
        fill: #12c189;
      }

      .cls-2 {
        clip-path: url(#clip-path);
      }

      .cls-3 {
        opacity: 0.35;
      }

      .cls-4 {
        clip-path: url(#clip-path-3);
      }
    </style>
    <clipPath id="clip-path">
      <rect id="矩形_852" data-name="矩形 852" class="cls-1" width="15.998" height="16"/>
    </clipPath>
    <clipPath id="clip-path-3">
      <rect id="矩形_850" data-name="矩形 850" class="cls-1" width="11" height="11.004"/>
    </clipPath>
  </defs>
  <g id="组_901" data-name="组 901" class="cls-2">
    <g id="组_900" data-name="组 900" transform="translate(0 0)">
      <g id="组_899" data-name="组 899" class="cls-2">
        <g id="组_898" data-name="组 898" class="cls-3" transform="translate(2.5 2.498)">
          <g id="组_897" data-name="组 897">
            <g id="组_896" data-name="组 896" class="cls-4">
              <path id="路径_3277" data-name="路径 3277" class="cls-1" d="M8,5A3,3,0,1,1,5,8,3,3,0,0,1,8,5M8,2.5A5.5,5.5,0,1,0,13.5,8,5.5,5.5,0,0,0,8,2.5" transform="translate(-2.5 -2.497)"/>
            </g>
          </g>
        </g>
        <path id="路径_3278" data-name="路径 3278" class="cls-1" d="M5.5,0h-4A1.5,1.5,0,0,0,0,1.5v4A1.5,1.5,0,0,0,1.5,7h4A1.5,1.5,0,0,0,7,5.5v-4A1.5,1.5,0,0,0,5.5,0M6,5.5a.5.5,0,0,1-.5.5h-4A.5.5,0,0,1,1,5.5v-4A.5.5,0,0,1,1.5,1h4a.5.5,0,0,1,.5.5Z" transform="translate(0 0)"/>
        <path id="路径_3279" data-name="路径 3279" class="cls-1" d="M5.5,9h-4A1.5,1.5,0,0,0,0,10.5v4A1.5,1.5,0,0,0,1.5,16h4A1.5,1.5,0,0,0,7,14.5v-4A1.5,1.5,0,0,0,5.5,9M6,14.5a.5.5,0,0,1-.5.5h-4a.5.5,0,0,1-.5-.5v-4a.5.5,0,0,1,.5-.5h4a.5.5,0,0,1,.5.5Z" transform="translate(0 0.003)"/>
        <path id="路径_3280" data-name="路径 3280" class="cls-1" d="M14.5,0h-4A1.5,1.5,0,0,0,9,1.5v4A1.5,1.5,0,0,0,10.5,7h4A1.5,1.5,0,0,0,16,5.5v-4A1.5,1.5,0,0,0,14.5,0M15,5.5a.5.5,0,0,1-.5.5h-4a.5.5,0,0,1-.5-.5v-4a.5.5,0,0,1,.5-.5h4a.5.5,0,0,1,.5.5Z" transform="translate(0 0)"/>
        <path id="路径_3281" data-name="路径 3281" class="cls-1" d="M14.5,9h-4A1.5,1.5,0,0,0,9,10.5v4A1.5,1.5,0,0,0,10.5,16h4A1.5,1.5,0,0,0,16,14.5v-4A1.5,1.5,0,0,0,14.5,9m.5,5.5a.5.5,0,0,1-.5.5h-4a.5.5,0,0,1-.5-.5v-4a.5.5,0,0,1,.5-.5h4a.5.5,0,0,1,.5.5Z" transform="translate(0 0.003)"/>
      </g>
    </g>
  </g>
</svg>
