<svg id="资产审批" xmlns="http://www.w3.org/2000/svg" xmlns:xlink="http://www.w3.org/1999/xlink" width="26" height="26" viewBox="0 0 26 26">
  <defs>
    <style>
      .cls-1 {
        fill: #fff;
      }

      .cls-2 {
        clip-path: url(#clip-path);
      }
    </style>
    <clipPath id="clip-path">
      <rect id="矩形_1111" data-name="矩形 1111" class="cls-1" width="26" height="26"/>
    </clipPath>
  </defs>
  <g id="组_1162" data-name="组 1162" class="cls-2">
    <path id="路径_3595" data-name="路径 3595" class="cls-1" d="M25.188,16.25h-4.5l-4.472-5.218a1.622,1.622,0,0,0-.223-.528,5.688,5.688,0,1,0-5.983,0,1.622,1.622,0,0,0-.223.528L5.314,16.25H.813A.813.813,0,0,0,0,17.063v8.125A.813.813,0,0,0,.813,26H25.188A.813.813,0,0,0,26,25.188V17.063a.813.813,0,0,0-.812-.812M8.938,5.688A4.063,4.063,0,1,1,13,9.75,4.068,4.068,0,0,1,8.938,5.688M11.178,11.9a.8.8,0,0,0,.2-.528h3.25a.8.8,0,0,0,.2.528l3.724,4.347H7.454Zm13.2,12.472H1.625v-6.5h22.75Z"/>
  </g>
</svg>
