<svg id="申请录入" xmlns="http://www.w3.org/2000/svg" xmlns:xlink="http://www.w3.org/1999/xlink" width="26" height="26" viewBox="0 0 26 26">
  <defs>
    <style>
      .cls-1 {
        fill: #fff;
      }

      .cls-2 {
        clip-path: url(#clip-path);
      }
    </style>
    <clipPath id="clip-path">
      <rect id="矩形_1109" data-name="矩形 1109" class="cls-1" width="26" height="26"/>
    </clipPath>
  </defs>
  <g id="组_1160" data-name="组 1160" class="cls-2">
    <path id="路径_3590" data-name="路径 3590" class="cls-1" d="M22.75,0H3.25A3.25,3.25,0,0,0,0,3.25v19.5A3.249,3.249,0,0,0,3.25,26h19.5A3.249,3.249,0,0,0,26,22.75V3.25A3.25,3.25,0,0,0,22.75,0m1.625,22.75a1.627,1.627,0,0,1-1.625,1.625H3.25A1.627,1.627,0,0,1,1.625,22.75V3.25A1.627,1.627,0,0,1,3.25,1.625h19.5A1.627,1.627,0,0,1,24.375,3.25Z"/>
    <path id="路径_3591" data-name="路径 3591" class="cls-1" d="M18.356,4.3a.443.443,0,0,0-.344-.169.435.435,0,0,0-.309.132L5.619,16.184v0l0,0-.008.007,0,0L4.9,18.76l2.392-.533,0-.007L19.373,6.3a.543.543,0,0,0,.034-.717Z" transform="translate(3.063 2.583)"/>
    <rect id="矩形_1105" data-name="矩形 1105" class="cls-1" width="9.75" height="1.625" transform="translate(4.841 4.877)"/>
    <rect id="矩形_1106" data-name="矩形 1106" class="cls-1" width="8.125" height="1.625" transform="translate(4.841 9.752)"/>
    <rect id="矩形_1107" data-name="矩形 1107" class="cls-1" width="4.875" height="1.625" transform="translate(4.841 14.627)"/>
    <rect id="矩形_1108" data-name="矩形 1108" class="cls-1" width="1.625" height="1.625" transform="translate(4.841 19.502)"/>
  </g>
</svg>
