<svg id="资产申请" xmlns="http://www.w3.org/2000/svg" xmlns:xlink="http://www.w3.org/1999/xlink" width="26" height="26" viewBox="0 0 26 26">
  <defs>
    <style>
      .cls-1 {
        fill: #fff;
      }

      .cls-2 {
        clip-path: url(#clip-path);
      }
    </style>
    <clipPath id="clip-path">
      <rect id="矩形_1110" data-name="矩形 1110" class="cls-1" width="26" height="26"/>
    </clipPath>
  </defs>
  <g id="组_1161" data-name="组 1161" class="cls-2">
    <path id="路径_3592" data-name="路径 3592" class="cls-1" d="M22.75,0H3.25A3.25,3.25,0,0,0,0,3.25V17.875a3.25,3.25,0,0,0,3.25,3.25h19.5A3.25,3.25,0,0,0,26,17.875V3.25A3.25,3.25,0,0,0,22.75,0m1.625,17.875A1.628,1.628,0,0,1,22.75,19.5H3.25a1.628,1.628,0,0,1-1.625-1.625V3.25A1.628,1.628,0,0,1,3.25,1.625h19.5A1.628,1.628,0,0,1,24.375,3.25Z"/>
    <path id="路径_3593" data-name="路径 3593" class="cls-1" d="M18.438,15H3.813a.813.813,0,0,0,0,1.625H18.438a.813.813,0,0,0,0-1.625" transform="translate(1.875 9.375)"/>
    <path id="路径_3594" data-name="路径 3594" class="cls-1" d="M16.955,1.855a.448.448,0,0,0-.344-.169.435.435,0,0,0-.309.132L4.218,13.737l0,0-.008.006,0,0L3.5,16.313l2.392-.533,0-.007L17.972,3.85a.543.543,0,0,0,.034-.717Z" transform="translate(2.188 1.054)"/>
  </g>
</svg>
