<svg id="临时申请" xmlns="http://www.w3.org/2000/svg" xmlns:xlink="http://www.w3.org/1999/xlink" width="26" height="26" viewBox="0 0 26 26">
  <defs>
    <style>
      .cls-1 {
        fill: #fff;
      }

      .cls-2 {
        clip-path: url(#clip-path);
      }
    </style>
    <clipPath id="clip-path">
      <rect id="矩形_1104" data-name="矩形 1104" class="cls-1" width="26" height="26"/>
    </clipPath>
  </defs>
  <g id="组_1159" data-name="组 1159" class="cls-2">
    <path id="路径_3586" data-name="路径 3586" class="cls-1" d="M1.625,23.563V2.438a.813.813,0,0,1,.813-.812h17.88a.813.813,0,0,1,.813.813V8.125h1.625V2.438A2.437,2.437,0,0,0,20.317,0H2.438A2.438,2.438,0,0,0,0,2.438V23.563A2.438,2.438,0,0,0,2.438,26h8.939V24.375H2.438a.813.813,0,0,1-.812-.812"/>
    <path id="路径_3587" data-name="路径 3587" class="cls-1" d="M16,3.813A.813.813,0,0,0,15.192,3H3.814a.813.813,0,0,0,0,1.625H15.192A.813.813,0,0,0,16,3.813" transform="translate(1.876 1.875)"/>
    <path id="路径_3588" data-name="路径 3588" class="cls-1" d="M3.814,5.991a.813.813,0,0,0,0,1.625H7.067a.813.813,0,0,0,0-1.625Z" transform="translate(1.876 3.744)"/>
    <path id="路径_3589" data-name="路径 3589" class="cls-1" d="M13.938,5a8.938,8.938,0,1,0,8.938,8.938A8.937,8.937,0,0,0,13.938,5m7.228,8.11H14.784v-6.4a7.273,7.273,0,0,1,6.381,6.4m-7.228,8.14A7.292,7.292,0,0,1,13.159,6.7v8.031h8.01a7.3,7.3,0,0,1-7.231,6.515" transform="translate(3.125 3.125)"/>
  </g>
</svg>
