<svg id="资产信息" xmlns="http://www.w3.org/2000/svg" xmlns:xlink="http://www.w3.org/1999/xlink" width="26" height="26" viewBox="0 0 26 26">
  <defs>
    <style>
      .cls-1 {
        fill: #fff;
      }

      .cls-2 {
        clip-path: url(#clip-path);
      }
    </style>
    <clipPath id="clip-path">
      <rect id="矩形_1072" data-name="矩形 1072" class="cls-1" width="26" height="26"/>
    </clipPath>
  </defs>
  <g id="组_1146" data-name="组 1146" class="cls-2">
    <path id="路径_3555" data-name="路径 3555" class="cls-1" d="M22.75,0H3.25A3.25,3.25,0,0,0,0,3.25V17.875a3.25,3.25,0,0,0,3.25,3.25h19.5A3.25,3.25,0,0,0,26,17.875V3.25A3.25,3.25,0,0,0,22.75,0m1.625,17.875A1.628,1.628,0,0,1,22.75,19.5H3.25a1.628,1.628,0,0,1-1.625-1.625V3.25A1.628,1.628,0,0,1,3.25,1.625h19.5A1.628,1.628,0,0,1,24.375,3.25Z"/>
    <path id="路径_3556" data-name="路径 3556" class="cls-1" d="M18.438,15H3.813a.813.813,0,0,0,0,1.625H18.438a.813.813,0,0,0,0-1.625" transform="translate(1.875 9.375)"/>
    <path id="路径_3557" data-name="路径 3557" class="cls-1" d="M10.612,1.5a1.987,1.987,0,0,0-1.37.523,1.69,1.69,0,0,0-.587,1.318,1.458,1.458,0,0,0,.351,1.012,1.238,1.238,0,0,0,.977.4,1.854,1.854,0,0,0,1.334-.577,1.788,1.788,0,0,0,.588-1.3,1.367,1.367,0,0,0-.393-.957,1.212,1.212,0,0,0-.9-.414" transform="translate(5.41 0.938)"/>
    <path id="路径_3558" data-name="路径 3558" class="cls-1" d="M9.15,13.452c-.2,0-.293-.122-.293-.369A25.026,25.026,0,0,1,10.379,8.27a13.951,13.951,0,0,0,.938-2.764.441.441,0,0,0-.206-.4,1.491,1.491,0,0,0-.731-.127q-2.016,0-4.62,2.234L6.4,7.6A5.78,5.78,0,0,1,8.595,6.266c.234,0,.353.084.353.253a1.185,1.185,0,0,1-.119.437q-2.162,5.6-2.163,6.866a.985.985,0,0,0,.247.643.952.952,0,0,0,.775.3,3.977,3.977,0,0,0,1.581-.426,17.577,17.577,0,0,0,2.808-1.83l-.527-.439a6,6,0,0,1-2.4,1.381" transform="translate(3.599 3.11)"/>
  </g>
</svg>
