<svg id="资产控制" xmlns="http://www.w3.org/2000/svg" xmlns:xlink="http://www.w3.org/1999/xlink" width="26" height="26" viewBox="0 0 26 26">
  <defs>
    <style>
      .cls-1 {
        fill: #fff;
      }

      .cls-2 {
        clip-path: url(#clip-path);
      }
    </style>
    <clipPath id="clip-path">
      <rect id="矩形_1073" data-name="矩形 1073" class="cls-1" width="26" height="26"/>
    </clipPath>
  </defs>
  <g id="组_1148" data-name="组 1148" class="cls-2">
    <path id="路径_3559" data-name="路径 3559" class="cls-1" d="M22.75,0H3.25A3.249,3.249,0,0,0,0,3.25v19.5A3.249,3.249,0,0,0,3.25,26h19.5A3.249,3.249,0,0,0,26,22.75V3.25A3.249,3.249,0,0,0,22.75,0m1.625,22.75a1.628,1.628,0,0,1-1.625,1.625H3.25A1.628,1.628,0,0,1,1.625,22.75V3.25A1.628,1.628,0,0,1,3.25,1.625h19.5A1.628,1.628,0,0,1,24.375,3.25Z"/>
    <path id="路径_3560" data-name="路径 3560" class="cls-1" d="M11.125,7.063A4.063,4.063,0,1,0,6.25,11.044v7.394a.813.813,0,0,0,1.625,0V11.044a4.065,4.065,0,0,0,3.25-3.981M7.063,9.5A2.438,2.438,0,1,1,9.5,7.063,2.44,2.44,0,0,1,7.063,9.5" transform="translate(1.875 1.875)"/>
    <path id="路径_3561" data-name="路径 3561" class="cls-1" d="M12.875,11.206V3.813a.813.813,0,0,0-1.625,0v7.394a4.063,4.063,0,1,0,1.625,0m-.812,6.419A2.438,2.438,0,1,1,14.5,15.188a2.44,2.44,0,0,1-2.437,2.438" transform="translate(5 1.875)"/>
  </g>
</svg>
