<svg id="资源统计" xmlns="http://www.w3.org/2000/svg" xmlns:xlink="http://www.w3.org/1999/xlink" width="26" height="26" viewBox="0 0 26 26">
  <defs>
    <style>
      .cls-1 {
        fill: #fff;
      }

      .cls-2 {
        clip-path: url(#clip-path);
      }
    </style>
    <clipPath id="clip-path">
      <rect id="矩形_1074" data-name="矩形 1074" class="cls-1" width="26" height="26"/>
    </clipPath>
  </defs>
  <g id="组_1149" data-name="组 1149" class="cls-2">
    <path id="路径_3562" data-name="路径 3562" class="cls-1" d="M25.188,24.375H21.125V13A.813.813,0,0,0,19.5,13V24.375H14.625V8.938a.813.813,0,0,0-1.625,0V24.375H8.125V15.844a.813.813,0,0,0-1.625,0v8.531H1.625V.813A.813.813,0,0,0,0,.813V25.188A.813.813,0,0,0,.813,26H25.188a.813.813,0,0,0,0-1.625"/>
  </g>
</svg>
