<svg id="用户列表" xmlns="http://www.w3.org/2000/svg" xmlns:xlink="http://www.w3.org/1999/xlink" width="26" height="26" viewBox="0 0 26 26">
  <defs>
    <style>
      .cls-1 {
        fill: #fff;
      }

      .cls-2 {
        clip-path: url(#clip-path);
      }
    </style>
    <clipPath id="clip-path">
      <rect id="矩形_1087" data-name="矩形 1087" class="cls-1" width="26" height="26"/>
    </clipPath>
  </defs>
  <g id="组_1154" data-name="组 1154" class="cls-2">
    <path id="路径_3572" data-name="路径 3572" class="cls-1" d="M22.75,0H3.25A3.249,3.249,0,0,0,0,3.25v19.5A3.249,3.249,0,0,0,3.25,26h19.5A3.249,3.249,0,0,0,26,22.75V3.25A3.249,3.249,0,0,0,22.75,0m1.625,22.75a1.628,1.628,0,0,1-1.625,1.625H3.25A1.628,1.628,0,0,1,1.625,22.75V3.25A1.628,1.628,0,0,1,3.25,1.625h19.5A1.628,1.628,0,0,1,24.375,3.25Z"/>
    <path id="路径_3573" data-name="路径 3573" class="cls-1" d="M11.386,12.276a4.876,4.876,0,1,0-4.145,0A7.288,7.288,0,0,0,2,19.254H16.625v0H21.5V17.627H16.43a7.292,7.292,0,0,0-5.044-5.351m-5.323-4.4a3.25,3.25,0,1,1,3.25,3.25,3.254,3.254,0,0,1-3.25-3.25m-2.2,9.75a5.688,5.688,0,0,1,10.9,0Z" transform="translate(1.25 1.878)"/>
    <rect id="矩形_1084" data-name="矩形 1084" class="cls-1" width="6.5" height="1.625" transform="translate(16.25 4.881)"/>
    <rect id="矩形_1085" data-name="矩形 1085" class="cls-1" width="6.5" height="1.625" transform="translate(16.25 9.756)"/>
    <rect id="矩形_1086" data-name="矩形 1086" class="cls-1" width="6.5" height="1.625" transform="translate(16.25 14.631)"/>
  </g>
</svg>
