<svg xmlns="http://www.w3.org/2000/svg" xmlns:xlink="http://www.w3.org/1999/xlink" width="26" height="26" viewBox="0 0 26 26">
  <defs>
    <style>
      .cls-1 {
        fill: #fff;
      }

      .cls-2 {
        clip-path: url(#clip-path);
      }
    </style>
    <clipPath id="clip-path">
      <rect id="矩形_1099" data-name="矩形 1099" class="cls-1" width="26" height="26"/>
    </clipPath>
  </defs>
  <g id="外联摆渡" transform="translate(0 0)">
    <g id="组_1157" data-name="组 1157" class="cls-2" transform="translate(0 0)">
      <path id="路径_3579" data-name="路径 3579" class="cls-1" d="M1.621,22.752V3.248A1.624,1.624,0,0,1,3.241,1.624H22.69a1.623,1.623,0,0,1,1.621,1.624V16.261h1.621V3.248A3.244,3.244,0,0,0,22.69,0H3.241A3.244,3.244,0,0,0,0,3.248v19.5A3.245,3.245,0,0,0,3.241,26h8.172V24.376H3.241a1.625,1.625,0,0,1-1.621-1.624" transform="translate(0 0)"/>
      <path id="路径_3580" data-name="路径 3580" class="cls-1" d="M18.766,18.125V13.253H17.145v4.873H15.524V10H13.9v8.121H12.283V13.253H10.662v4.873H9.042v1.624H20.387V18.125Z" transform="translate(5.612 6.244)"/>
      <path id="路径_3583" data-name="路径 3583" class="cls-1" d="M0,.01,9.736,0l0,1.622L0,1.633Z" transform="matrix(0.707, -0.707, 0.707, 0.707, 8.903, 15.834)"/>
      <path id="路径_3581" data-name="路径 3581" class="cls-1" d="M14.757,11.757h2.292l.044-.044A5.679,5.679,0,0,0,9.07,3.674L6.206,6.545,7.352,7.694l2.864-2.872a4.057,4.057,0,0,1,5.731,5.743Z" transform="translate(3.852 1.255)"/>
      <path id="路径_3582" data-name="路径 3582" class="cls-1" d="M13.538,12.068l-2.865,2.872A4.056,4.056,0,1,1,4.944,9.2L6.133,8H3.841L3.8,8.048a5.678,5.678,0,0,0,8.021,8.04l2.865-2.872Z" transform="translate(1.327 4.996)"/>
    </g>
  </g>
</svg>
