<svg id="组织同步" xmlns="http://www.w3.org/2000/svg" xmlns:xlink="http://www.w3.org/1999/xlink" width="26" height="26" viewBox="0 0 26 26">
  <defs>
    <style>
      .cls-1 {
        fill: #fff;
      }

      .cls-2 {
        clip-path: url(#clip-path);
      }
    </style>
    <clipPath id="clip-path">
      <rect id="矩形_1082" data-name="矩形 1082" class="cls-1" width="26" height="26"/>
    </clipPath>
  </defs>
  <g id="组_1152" data-name="组 1152" class="cls-2">
    <path id="路径_3567" data-name="路径 3567" class="cls-1" d="M24.223,8.828a.828.828,0,0,0-.164-.263L20.826,5.116a.729.729,0,0,0-1.077,0,.851.851,0,0,0,0,1.149l1.932,2.06H3.512a.814.814,0,0,0,0,1.625H23.519a.739.739,0,0,0,.293-.062.8.8,0,0,0,.411-.44.866.866,0,0,0,.059-.307v0a.849.849,0,0,0-.059-.31" transform="translate(1.719 3.049)"/>
    <path id="路径_3568" data-name="路径 3568" class="cls-1" d="M20.566,21.938a.789.789,0,0,0-.762.813v.813a.789.789,0,0,1-.76.813H2.285a.791.791,0,0,1-.762-.812V2.438a.791.791,0,0,1,.762-.812H19.043a.789.789,0,0,1,.76.813V3.25a.764.764,0,1,0,1.524,0V2.438A2.368,2.368,0,0,0,19.043,0H2.285A2.368,2.368,0,0,0,0,2.438V23.563A2.368,2.368,0,0,0,2.285,26H19.043a2.368,2.368,0,0,0,2.285-2.437V22.75a.789.789,0,0,0-.762-.812"/>
    <path id="路径_3569" data-name="路径 3569" class="cls-1" d="M23.519,9H3.51a.706.706,0,0,0-.291.063.715.715,0,0,0-.24.171l-.006,0-.007.01a.821.821,0,0,0-.158.255.849.849,0,0,0-.058.31v0a.838.838,0,0,0,.058.307.821.821,0,0,0,.158.255l.007.01L6.2,13.834a.729.729,0,0,0,1.077,0,.851.851,0,0,0,0-1.149L5.35,10.625H23.519a.814.814,0,0,0,0-1.625" transform="translate(1.719 5.625)"/>
  </g>
</svg>
