<svg id="签章流程" xmlns="http://www.w3.org/2000/svg" xmlns:xlink="http://www.w3.org/1999/xlink" width="26" height="26" viewBox="0 0 26 26">
  <defs>
    <style>
      .cls-1 {
        fill: #fff;
      }

      .cls-2 {
        clip-path: url(#clip-path);
      }
    </style>
    <clipPath id="clip-path">
      <rect id="矩形_1092" data-name="矩形 1092" class="cls-1" width="26" height="26"/>
    </clipPath>
  </defs>
  <g id="组_1155" data-name="组 1155" class="cls-2">
    <path id="路径_3574" data-name="路径 3574" class="cls-1" d="M21.5,0H3.746A3.747,3.747,0,0,0,0,3.742V21.468a3.749,3.749,0,0,0,3.746,3.742H6.673a.788.788,0,0,0,0-1.576H3.746a2.171,2.171,0,0,1-2.17-2.167V3.742a2.171,2.171,0,0,1,2.17-2.167H21.5a2.17,2.17,0,0,1,2.17,2.167V15.364a.788.788,0,1,0,1.576,0V3.742A3.747,3.747,0,0,0,21.5,0"/>
    <path id="路径_3575" data-name="路径 3575" class="cls-1" d="M13.879,4A4.716,4.716,0,0,0,11.4,12.738a7.707,7.707,0,0,1-2.578,3.868H6v6.3H21.758v-6.3H19.436a7.847,7.847,0,0,1-2.661-4.168A4.71,4.71,0,0,0,13.879,4m0,7.879A3.152,3.152,0,1,1,17.03,8.727a3.155,3.155,0,0,1-3.152,3.152m0,1.576a4.684,4.684,0,0,0,1.47-.257,9.789,9.789,0,0,0,1.822,3.408H11.091a9.738,9.738,0,0,0,1.776-3.267,4.651,4.651,0,0,0,1.012.115m-6.3,4.727H20.182v3.152H7.576Z" transform="translate(3.455 2.303)"/>
    <rect id="矩形_1088" data-name="矩形 1088" class="cls-1" width="9.455" height="1.576" transform="translate(3.152 4.727)"/>
    <rect id="矩形_1089" data-name="矩形 1089" class="cls-1" width="6.303" height="1.576" transform="translate(3.152 9.455)"/>
    <rect id="矩形_1090" data-name="矩形 1090" class="cls-1" width="7.879" height="1.576" transform="translate(3.152 14.182)"/>
    <rect id="矩形_1091" data-name="矩形 1091" class="cls-1" width="4.727" height="1.576" transform="translate(3.152 18.909)"/>
  </g>
</svg>
