<svg xmlns="http://www.w3.org/2000/svg" xmlns:xlink="http://www.w3.org/1999/xlink" width="26" height="25.998" viewBox="0 0 26 25.998">
  <defs>
    <style>
      .cls-1 {
        fill: #fff;
      }

      .cls-2 {
        clip-path: url(#clip-path);
      }
    </style>
    <clipPath id="clip-path">
      <rect id="矩形_1097" data-name="矩形 1097" class="cls-1" width="26" height="25.998"/>
    </clipPath>
  </defs>
  <g id="工单配置" transform="translate(0 0)">
    <g id="组_1156" data-name="组 1156" class="cls-2" transform="translate(0 0)">
      <path id="路径_3576" data-name="路径 3576" class="cls-1" d="M21.137,11.58H20.028a6.691,6.691,0,0,0-1-1.8l.558-1.011a1.176,1.176,0,0,0-.4-1.563L17.159,5.979a1.042,1.042,0,0,0-.829-.114,1.089,1.089,0,0,0-.664.533l-.547.991a5.16,5.16,0,0,0-2.009,0L12.563,6.4a1.089,1.089,0,0,0-.664-.533,1.037,1.037,0,0,0-.828.114L9.043,7.2a1.125,1.125,0,0,0-.508.7,1.179,1.179,0,0,0,.109.868L9.2,9.778a6.76,6.76,0,0,0-1,1.8H7.092A1.121,1.121,0,0,0,6,12.726v2.451a1.119,1.119,0,0,0,1.092,1.142H8.2a6.7,6.7,0,0,0,1,1.8l-.558,1.011A1.182,1.182,0,0,0,8.535,20a1.132,1.132,0,0,0,.508.694l2.029,1.225a1.066,1.066,0,0,0,1.491-.418l.547-.993a5.039,5.039,0,0,0,2.009,0l.547.993a1.087,1.087,0,0,0,.948.572,1.052,1.052,0,0,0,.545-.154L19.186,20.7a1.175,1.175,0,0,0,.4-1.563l-.558-1.011a6.7,6.7,0,0,0,1-1.8h1.108a1.119,1.119,0,0,0,1.092-1.142V12.726a1.121,1.121,0,0,0-1.092-1.146m.078,3.52a.077.077,0,0,1-.078.076H19.3l-.112.348a5.225,5.225,0,0,1-1.152,1.948l-.247.268.922,1.566a.077.077,0,0,1-.029.106l-2.027,1.149a.089.089,0,0,1-.107-.028l-.915-1.557-.364.08a4.675,4.675,0,0,1-2.3,0l-.364-.08-.915,1.557a.082.082,0,0,1-.107.028L9.551,19.413a.086.086,0,0,1-.029-.106l.922-1.566-.247-.268a5.259,5.259,0,0,1-1.152-1.948l-.112-.348H7.092a.077.077,0,0,1-.078-.076V12.8a.078.078,0,0,1,.078-.078h1.84l.112-.348A5.259,5.259,0,0,1,10.2,10.428l.247-.268L9.522,8.592a.087.087,0,0,1,.029-.1l2.027-1.149a.091.091,0,0,1,.107.029L12.6,8.924l.364-.08a4.714,4.714,0,0,1,2.3,0l.364.08.915-1.555a.09.09,0,0,1,.107-.029l2.027,1.149a.077.077,0,0,1,.029.106l-.922,1.566.247.268a5.246,5.246,0,0,1,1.152,1.948l.112.348h1.84a.078.078,0,0,1,.078.078Z" transform="translate(3.737 3.642)"/>
      <path id="路径_3577" data-name="路径 3577" class="cls-1" d="M12.363,8.638a3.555,3.555,0,1,0,3.551,3.554,3.557,3.557,0,0,0-3.551-3.554m0,5.991A2.437,2.437,0,1,1,14.8,12.192a2.437,2.437,0,0,1-2.433,2.438" transform="translate(5.489 5.4)"/>
      <path id="路径_3578" data-name="路径 3578" class="cls-1" d="M22.141,0H3.858A3.862,3.862,0,0,0,0,3.859v18.28A3.863,3.863,0,0,0,3.858,26H6.873a.813.813,0,0,0,0-1.625H3.858a2.238,2.238,0,0,1-2.235-2.234V3.859A2.238,2.238,0,0,1,3.858,1.625H22.141a2.236,2.236,0,0,1,2.235,2.234V9.344a.811.811,0,1,0,1.623,0V3.859A3.862,3.862,0,0,0,22.141,0" transform="translate(0 0.001)"/>
      <rect id="矩形_1093" data-name="矩形 1093" class="cls-1" width="19.474" height="1.625" transform="translate(3.246 4.875)"/>
      <rect id="矩形_1094" data-name="矩形 1094" class="cls-1" width="6.491" height="1.625" transform="translate(3.246 9.75)"/>
      <rect id="矩形_1095" data-name="矩形 1095" class="cls-1" width="4.869" height="1.625" transform="translate(3.246 19.5)"/>
      <rect id="矩形_1096" data-name="矩形 1096" class="cls-1" width="4.869" height="1.625" transform="translate(3.246 14.625)"/>
    </g>
  </g>
</svg>
