<svg id="区域配置" xmlns="http://www.w3.org/2000/svg" xmlns:xlink="http://www.w3.org/1999/xlink" width="26" height="26" viewBox="0 0 26 26">
  <defs>
    <style>
      .cls-1 {
        fill: #fff;
      }

      .cls-2 {
        clip-path: url(#clip-path);
      }
    </style>
    <clipPath id="clip-path">
      <rect id="矩形_1083" data-name="矩形 1083" class="cls-1" width="26" height="26"/>
    </clipPath>
  </defs>
  <g id="组_1153" data-name="组 1153" class="cls-2">
    <path id="路径_3570" data-name="路径 3570" class="cls-1" d="M22.75,0H3.25A3.249,3.249,0,0,0,0,3.25v19.5A3.249,3.249,0,0,0,3.25,26h19.5A3.249,3.249,0,0,0,26,22.75V3.25A3.249,3.249,0,0,0,22.75,0m1.625,22.75a1.628,1.628,0,0,1-1.625,1.625H3.25A1.628,1.628,0,0,1,1.625,22.75V3.25A1.628,1.628,0,0,1,3.25,1.625h19.5A1.628,1.628,0,0,1,24.375,3.25Z"/>
    <path id="路径_3571" data-name="路径 3571" class="cls-1" d="M10.449,3.024c-3.577,0-6.489,2.645-6.489,5.9a5.664,5.664,0,0,0,2.314,4.485l4.175,5.813,4.176-5.813a5.66,5.66,0,0,0,2.312-4.485c0-3.252-2.91-5.9-6.489-5.9m2.868,9.132-2.868,3.916L7.78,12.356l-.2-.2A4.024,4.024,0,0,1,5.853,8.921a4.406,4.406,0,0,1,4.6-4.176,4.405,4.405,0,0,1,4.6,4.176,4.023,4.023,0,0,1-1.727,3.235" transform="translate(2.475 1.89)"/>
  </g>
</svg>
