<svg id="终端策略" xmlns="http://www.w3.org/2000/svg" xmlns:xlink="http://www.w3.org/1999/xlink" width="26" height="26" viewBox="0 0 26 26">
  <defs>
    <style>
      .cls-1 {
        fill: #fff;
      }

      .cls-2 {
        clip-path: url(#clip-path);
      }
    </style>
    <clipPath id="clip-path">
      <rect id="矩形_1127" data-name="矩形 1127" class="cls-1" width="26" height="26"/>
    </clipPath>
  </defs>
  <g id="组_1171" data-name="组 1171" class="cls-2">
    <path id="路径_3611" data-name="路径 3611" class="cls-1" d="M22.75,0H3.25A3.249,3.249,0,0,0,0,3.25V17.875a3.249,3.249,0,0,0,3.25,3.25h19.5A3.249,3.249,0,0,0,26,17.875V3.25A3.249,3.249,0,0,0,22.75,0m1.625,17.875A1.628,1.628,0,0,1,22.75,19.5H3.25a1.628,1.628,0,0,1-1.625-1.625V3.25A1.628,1.628,0,0,1,3.25,1.625h19.5A1.628,1.628,0,0,1,24.375,3.25Z"/>
    <path id="路径_3612" data-name="路径 3612" class="cls-1" d="M18.438,15H3.813a.813.813,0,0,0,0,1.625H18.438a.813.813,0,0,0,0-1.625" transform="translate(1.875 9.375)"/>
    <path id="路径_3613" data-name="路径 3613" class="cls-1" d="M3.911,5.728,10.6,8.4a.523.523,0,0,0,.4,0l6.69-2.676a.532.532,0,0,0,0-.988L11,2.064a.523.523,0,0,0-.4,0L3.911,4.74a.532.532,0,0,0,0,.988M10.8,3.734l3.749,1.5L10.8,6.734,7.05,5.234Z" transform="translate(2.235 1.266)"/>
    <path id="路径_3614" data-name="路径 3614" class="cls-1" d="M17.571,5.874,10.983,8.509,4.4,5.874a.813.813,0,0,0-.6,1.51l6.692,2.676a1.325,1.325,0,0,0,1,0l6.692-2.676a.813.813,0,0,0-.6-1.51" transform="translate(2.051 3.634)"/>
    <path id="路径_3615" data-name="路径 3615" class="cls-1" d="M17.571,8.387l-6.588,2.636L4.4,8.387a.813.813,0,1,0-.6,1.51l6.692,2.676a1.325,1.325,0,0,0,1,0L18.174,9.9a.813.813,0,1,0-.6-1.51" transform="translate(2.051 5.205)"/>
  </g>
</svg>
