<svg id="准入策略" xmlns="http://www.w3.org/2000/svg" xmlns:xlink="http://www.w3.org/1999/xlink" width="26" height="26" viewBox="0 0 26 26">
  <defs>
    <style>
      .cls-1 {
        fill: #fff;
      }

      .cls-2 {
        clip-path: url(#clip-path);
      }
    </style>
    <clipPath id="clip-path">
      <rect id="矩形_1128" data-name="矩形 1128" class="cls-1" width="26" height="26"/>
    </clipPath>
  </defs>
  <g id="组_1172" data-name="组 1172" class="cls-2">
    <path id="路径_3616" data-name="路径 3616" class="cls-1" d="M22.75,0H3.25A3.249,3.249,0,0,0,0,3.25v19.5A3.249,3.249,0,0,0,3.25,26h19.5A3.249,3.249,0,0,0,26,22.75V3.25A3.249,3.249,0,0,0,22.75,0m0,24.375H3.25A1.628,1.628,0,0,1,1.625,22.75V3.25A1.628,1.628,0,0,1,3.25,1.625h19.5A1.628,1.628,0,0,1,24.375,3.25V13H14.961l2.257-2.257A.812.812,0,0,0,16.07,9.594l-3.645,3.643a.856.856,0,0,0-.175.265.821.821,0,0,0,0,.621.842.842,0,0,0,.171.258l0,.007,3.645,3.643a.812.812,0,0,0,1.149-1.149l-2.257-2.257h9.414V22.75a1.628,1.628,0,0,1-1.625,1.625"/>
    <path id="路径_3617" data-name="路径 3617" class="cls-1" d="M3,19.25H9.5V3H3ZM4.625,4.625h3.25v13H4.625Z" transform="translate(1.875 1.875)"/>
  </g>
</svg>
