<svg xmlns="http://www.w3.org/2000/svg" xmlns:xlink="http://www.w3.org/1999/xlink" width="26" height="26" viewBox="0 0 26 26">
  <defs>
    <style>
      .cls-1 {
        fill: #fff;
      }

      .cls-2 {
        clip-path: url(#clip-path);
      }
    </style>
    <clipPath id="clip-path">
      <rect id="矩形_1117" data-name="矩形 1117" class="cls-1" width="26" height="26"/>
    </clipPath>
  </defs>
  <g id="恶意地址" transform="translate(0 0)">
    <g id="组_1168" data-name="组 1168" class="cls-2" transform="translate(0 0)">
      <path id="路径_3604" data-name="路径 3604" class="cls-1" d="M22.75,0H3.25A3.249,3.249,0,0,0,0,3.25v19.5A3.249,3.249,0,0,0,3.25,26h19.5A3.249,3.249,0,0,0,26,22.75V3.25A3.249,3.249,0,0,0,22.75,0m1.625,22.75a1.628,1.628,0,0,1-1.625,1.625H3.25A1.628,1.628,0,0,1,1.625,22.75V3.25A1.628,1.628,0,0,1,3.25,1.625h19.5A1.628,1.628,0,0,1,24.375,3.25Z" transform="translate(0 0)"/>
      <path id="路径_3605" data-name="路径 3605" class="cls-1" d="M10.625,9.144c.894-.228,1.51-1.437,1.37-2.758a15.344,15.344,0,0,1-1.6.842,17.631,17.631,0,0,1-1.675.73,1.545,1.545,0,0,0,1.9,1.186" transform="translate(5.45 3.991)"/>
      <path id="路径_3606" data-name="路径 3606" class="cls-1" d="M5.148,6.386c-.14,1.321.476,2.53,1.37,2.758a1.545,1.545,0,0,0,1.9-1.186,17.631,17.631,0,0,1-1.675-.73,15.344,15.344,0,0,1-1.6-.842" transform="translate(3.205 3.991)"/>
      <path id="路径_3607" data-name="路径 3607" class="cls-1" d="M18.969,10.031c0-.036.013-.071.013-.107A5.735,5.735,0,0,0,17.5,6.149a1.315,1.315,0,0,1,0-.289,4.017,4.017,0,0,0-1.037-3.429c-.343.616-.626,1.168-.956,1.7a.779.779,0,0,1-.281.271,9.2,9.2,0,0,0-8.377.016.764.764,0,0,1-.312-.288c-.328-.528-.611-1.081-.956-1.7A4.011,4.011,0,0,0,4.547,5.86a1.341,1.341,0,0,1,0,.353A5.763,5.763,0,0,0,3.176,9.536,6.838,6.838,0,0,0,3,10.991a1.989,1.989,0,0,0,.7,1.271,6.716,6.716,0,0,0,2.251,2.624l5.1,6.433,5.1-6.433a6.652,6.652,0,0,0,2.3-2.74,1.829,1.829,0,0,0,.593-1.155,7.2,7.2,0,0,0-.078-.96M7.8,13.725,7.553,13.5a4.346,4.346,0,0,1-2.113-3.58C5.441,7.376,7.96,5.3,11.055,5.3S16.67,7.376,16.67,9.924a4.351,4.351,0,0,1-2.111,3.58L11.2,17.657c-.067,0-.1.007-.179.007-.045,0-.067,0-.109,0Z" transform="translate(1.875 1.52)"/>
    </g>
  </g>
</svg>
