<svg id="基础策略" xmlns="http://www.w3.org/2000/svg" xmlns:xlink="http://www.w3.org/1999/xlink" width="26" height="26" viewBox="0 0 26 26">
  <defs>
    <style>
      .cls-1 {
        fill: #fff;
      }

      .cls-2 {
        clip-path: url(#clip-path);
      }
    </style>
    <clipPath id="clip-path">
      <rect id="矩形_1126" data-name="矩形 1126" class="cls-1" width="26" height="26"/>
    </clipPath>
  </defs>
  <g id="组_1170" data-name="组 1170" class="cls-2">
    <path id="路径_3609" data-name="路径 3609" class="cls-1" d="M22.75,0H3.25A3.249,3.249,0,0,0,0,3.25v19.5A3.249,3.249,0,0,0,3.25,26h19.5A3.249,3.249,0,0,0,26,22.75V3.25A3.249,3.249,0,0,0,22.75,0m1.625,22.75a1.628,1.628,0,0,1-1.625,1.625H3.25A1.628,1.628,0,0,1,1.625,22.75V3.25A1.628,1.628,0,0,1,3.25,1.625h19.5A1.628,1.628,0,0,1,24.375,3.25Z"/>
    <path id="路径_3610" data-name="路径 3610" class="cls-1" d="M3,19.243h8.125V2.993H3ZM4.625,4.618H9.5v13H4.625Z" transform="translate(1.875 1.871)"/>
    <rect id="矩形_1122" data-name="矩形 1122" class="cls-1" width="4.875" height="1.625" transform="translate(16.25 4.864)"/>
    <rect id="矩形_1123" data-name="矩形 1123" class="cls-1" width="4.875" height="1.625" transform="translate(16.25 9.739)"/>
    <rect id="矩形_1124" data-name="矩形 1124" class="cls-1" width="4.875" height="1.625" transform="translate(16.25 14.614)"/>
    <rect id="矩形_1125" data-name="矩形 1125" class="cls-1" width="4.875" height="1.625" transform="translate(16.25 19.489)"/>
  </g>
</svg>
