<svg id="黑白名单" xmlns="http://www.w3.org/2000/svg" xmlns:xlink="http://www.w3.org/1999/xlink" width="26" height="26" viewBox="0 0 26 26">
  <defs>
    <style>
      .cls-1 {
        fill: #fff;
      }

      .cls-2 {
        clip-path: url(#clip-path);
      }
    </style>
    <clipPath id="clip-path">
      <rect id="矩形_1121" data-name="矩形 1121" class="cls-1" width="26" height="26"/>
    </clipPath>
  </defs>
  <g id="组_1169" data-name="组 1169" class="cls-2">
    <path id="路径_3608" data-name="路径 3608" class="cls-1" d="M23.563,3.25H21.125V2.438A2.44,2.44,0,0,0,18.688,0H2.438A2.44,2.44,0,0,0,0,2.438V20.313A2.44,2.44,0,0,0,2.438,22.75H4.875v.813A2.44,2.44,0,0,0,7.313,26h16.25A2.44,2.44,0,0,0,26,23.563V5.688A2.44,2.44,0,0,0,23.563,3.25M4.875,5.688V21.125H2.438a.813.813,0,0,1-.812-.812V2.438a.813.813,0,0,1,.813-.812h16.25a.813.813,0,0,1,.813.813V3.25H7.313A2.44,2.44,0,0,0,4.875,5.688m19.5,17.875a.813.813,0,0,1-.812.813H7.313a.813.813,0,0,1-.812-.812V5.688a.813.813,0,0,1,.813-.812h16.25a.813.813,0,0,1,.813.813Z"/>
    <rect id="矩形_1118" data-name="矩形 1118" class="cls-1" width="11.375" height="1.625" transform="translate(9.818 8.125)"/>
    <rect id="矩形_1119" data-name="矩形 1119" class="cls-1" width="11.375" height="1.625" transform="translate(9.818 13.813)"/>
    <rect id="矩形_1120" data-name="矩形 1120" class="cls-1" width="11.375" height="1.625" transform="translate(9.818 19.498)"/>
  </g>
</svg>
