<svg xmlns="http://www.w3.org/2000/svg" xmlns:xlink="http://www.w3.org/1999/xlink" width="26" height="26" viewBox="0 0 26 26">
  <defs>
    <style>
      .cls-1 {
        fill: #fff;
      }

      .cls-2 {
        clip-path: url(#clip-path);
      }
    </style>
    <clipPath id="clip-path">
      <rect id="矩形_1194" data-name="矩形 1194" class="cls-1" width="26" height="26"/>
    </clipPath>
  </defs>
  <g id="资源审批" transform="translate(0 0)">
    <g id="组_1196" data-name="组 1196" class="cls-2" transform="translate(0 0)">
      <path id="路径_3665" data-name="路径 3665" class="cls-1" d="M22.75,0H3.25A3.249,3.249,0,0,0,0,3.25v19.5A3.249,3.249,0,0,0,3.25,26h19.5A3.249,3.249,0,0,0,26,22.75V3.25A3.249,3.249,0,0,0,22.75,0m1.625,22.75a1.628,1.628,0,0,1-1.625,1.625H3.25A1.628,1.628,0,0,1,1.625,22.75V3.25A1.628,1.628,0,0,1,3.25,1.625h19.5A1.628,1.628,0,0,1,24.375,3.25Z" transform="translate(0 0)"/>
      <path id="路径_3666" data-name="路径 3666" class="cls-1" d="M14.112,10.7a4.869,4.869,0,1,0-5.54.309A7.947,7.947,0,0,1,5.914,15H3v6.5H19.25V15H16.856a8.092,8.092,0,0,1-2.745-4.3M7.875,6.875a3.25,3.25,0,1,1,3.25,3.25,3.253,3.253,0,0,1-3.25-3.25m2.207,4.756a4.541,4.541,0,0,0,2.559-.146A10.1,10.1,0,0,0,14.52,15H8.25a10.042,10.042,0,0,0,1.831-3.369m7.543,8.244h-13v-3.25h13Z" transform="translate(1.875 1.25)"/>
    </g>
  </g>
</svg>
