<svg id="资源申请" xmlns="http://www.w3.org/2000/svg" xmlns:xlink="http://www.w3.org/1999/xlink" width="26" height="26" viewBox="0 0 26 26">
  <defs>
    <style>
      .cls-1 {
        fill: #fff;
      }

      .cls-2 {
        clip-path: url(#clip-path);
      }
    </style>
    <clipPath id="clip-path">
      <rect id="矩形_1116" data-name="矩形 1116" class="cls-1" width="26" height="26"/>
    </clipPath>
  </defs>
  <g id="组_1167" data-name="组 1167" class="cls-2">
    <path id="路径_3602" data-name="路径 3602" class="cls-1" d="M22.75,0H3.25A3.249,3.249,0,0,0,0,3.25v19.5A3.249,3.249,0,0,0,3.25,26h19.5A3.249,3.249,0,0,0,26,22.75V3.25A3.249,3.249,0,0,0,22.75,0m1.625,22.75a1.628,1.628,0,0,1-1.625,1.625H3.25A1.628,1.628,0,0,1,1.625,22.75V3.25A1.628,1.628,0,0,1,3.25,1.625h19.5A1.628,1.628,0,0,1,24.375,3.25Z"/>
    <path id="路径_3603" data-name="路径 3603" class="cls-1" d="M16.955,3.667a.446.446,0,0,0-.344-.167.434.434,0,0,0-.309.13L4.218,15.549v0l0,0-.008.007,0,0L3.5,18.125l2.392-.533,0-.006L17.972,5.663a.543.543,0,0,0,.034-.717Z" transform="translate(2.188 2.188)"/>
  </g>
</svg>
