<svg id="地址规划" xmlns="http://www.w3.org/2000/svg" xmlns:xlink="http://www.w3.org/1999/xlink" width="26" height="26" viewBox="0 0 26 26">
  <defs>
    <style>
      .cls-1 {
        fill: #fff;
      }

      .cls-2 {
        clip-path: url(#clip-path);
      }
    </style>
    <clipPath id="clip-path">
      <rect id="矩形_1112" data-name="矩形 1112" class="cls-1" width="26" height="26"/>
    </clipPath>
  </defs>
  <g id="组_1163" data-name="组 1163" class="cls-2">
    <path id="路径_3596" data-name="路径 3596" class="cls-1" d="M22.75,0H3.25A3.249,3.249,0,0,0,0,3.25v19.5A3.249,3.249,0,0,0,3.25,26h19.5A3.249,3.249,0,0,0,26,22.75V3.25A3.249,3.249,0,0,0,22.75,0m1.625,22.75a1.628,1.628,0,0,1-1.625,1.625H3.25A1.628,1.628,0,0,1,1.625,22.75V3.25A1.628,1.628,0,0,1,3.25,1.625h19.5A1.628,1.628,0,0,1,24.375,3.25Z"/>
    <path id="路径_3597" data-name="路径 3597" class="cls-1" d="M2.5,4.251V22.209l8.864-2.332,7.386,2.332,1.625-.427V4.724L12.25,1.685ZM10.625,18.72l-6.5,1.709V5.175l6.5-1.711Zm8.125-13.6V20.775l-.075.029-6.425-2.03V3.118l.075-.029Z" transform="translate(1.563 1.053)"/>
  </g>
</svg>
