<svg xmlns="http://www.w3.org/2000/svg" xmlns:xlink="http://www.w3.org/1999/xlink" width="26" height="26" viewBox="0 0 26 26">
  <defs>
    <style>
      .cls-1 {
        fill: #fff;
      }

      .cls-2 {
        clip-path: url(#clip-path);
      }
    </style>
    <clipPath id="clip-path">
      <rect id="矩形_1115" data-name="矩形 1115" class="cls-1" width="26" height="26"/>
    </clipPath>
  </defs>
  <g id="地址分配" transform="translate(0 0)">
    <g id="组_1166" data-name="组 1166" class="cls-2" transform="translate(0 0)">
      <path id="路径_3600" data-name="路径 3600" class="cls-1" d="M10.449,0C6.872,0,3.96,2.649,3.96,5.9A5.674,5.674,0,0,0,6.274,10.4l4.175,5.82,4.176-5.82A5.67,5.67,0,0,0,16.937,5.9c0-3.256-2.91-5.9-6.489-5.9m2.868,9.145-2.868,3.921L7.78,9.345l-.2-.2A4.031,4.031,0,0,1,5.853,5.9a4.409,4.409,0,0,1,4.6-4.182,4.408,4.408,0,0,1,4.6,4.182,4.03,4.03,0,0,1-1.727,3.24" transform="translate(2.475 0.001)"/>
      <path id="路径_3601" data-name="路径 3601" class="cls-1" d="M22.75,2.979H21.125V4.606H22.75a1.629,1.629,0,0,1,1.625,1.627V20.877A1.629,1.629,0,0,1,22.75,22.5H3.25a1.629,1.629,0,0,1-1.625-1.627V6.233A1.629,1.629,0,0,1,3.25,4.606H4.875V2.979H3.25A3.251,3.251,0,0,0,0,6.233V20.877a3.251,3.251,0,0,0,3.25,3.254h19.5A3.251,3.251,0,0,0,26,20.877V6.233a3.251,3.251,0,0,0-3.25-3.254" transform="translate(0 1.869)"/>
    </g>
  </g>
</svg>
