<svg xmlns="http://www.w3.org/2000/svg" xmlns:xlink="http://www.w3.org/1999/xlink" width="16" height="16" viewBox="0 0 16 16"><defs><style>.a{fill:#12c189;}.b{fill:none;}.c{clip-path:url(#a);}</style><clipPath id="a"><rect class="a" width="16" height="12.667" transform="translate(0 0)"/></clipPath></defs><g transform="translate(0 2.003)"><rect class="b" width="16" height="16" transform="translate(0 -2.003)"/><g class="c"><path class="a" d="M8,1.407a11.093,11.093,0,0,1,7.115,2.572L16,2.893A12.461,12.461,0,0,0,0,2.921L.892,4A11.093,11.093,0,0,1,8,1.407m4.9,5.287a7.615,7.615,0,0,0-9.777.017L2.227,5.628a9,9,0,0,1,11.556-.02ZM8.01,8.445a4.158,4.158,0,0,1,2.668.964l.888-1.086a5.539,5.539,0,0,0-7.112.013l.891,1.083a4.156,4.156,0,0,1,2.666-.974Zm0,2.111a2.082,2.082,0,0,1,1.334.482L8.017,12.667,6.682,11.043a2.077,2.077,0,0,1,1.331-.487Z"/></g></g></svg>