<svg xmlns="http://www.w3.org/2000/svg" xmlns:xlink="http://www.w3.org/1999/xlink" width="16" height="16" viewBox="0 0 16 16"><defs><style>.a{fill:#a1a1a1;}.b{clip-path:url(#a);}</style><clipPath id="a"><rect class="a" width="16" height="16"/></clipPath></defs><g class="b"><path class="a" d="M8,0a8,8,0,1,0,8,8A8,8,0,0,0,8,0M8,15A7,7,0,1,1,13.037,3.152L11.5,4.434a4.948,4.948,0,1,0,.643.765L13.677,3.92A6.988,6.988,0,0,1,8,15m4-7a4.032,4.032,0,1,1-1.281-2.916L8.338,7.068A.995.995,0,1,0,9,8a.919.919,0,0,0-.032-.156l2.394-1.995A3.974,3.974,0,0,1,12,8"/></g></svg>