<svg xmlns="http://www.w3.org/2000/svg" xmlns:xlink="http://www.w3.org/1999/xlink" width="16" height="16" viewBox="0 0 16 16"><defs><style>.a{fill:#12c189;}.b{clip-path:url(#a);}</style><clipPath id="a"><rect class="a" width="16" height="16"/></clipPath></defs><g class="b"><path class="a" d="M11.479,4.853H10.284a.515.515,0,0,0-.5.317L8.82,8.043c-.267.752-.47,1.477-.737,2.239H8.019c-.28-.762-.458-1.487-.738-2.239L6.307,5.168a.516.516,0,0,0-.5-.315H4.52c-.356,0-.606.291-.493.571l2.486,6.134a.522.522,0,0,0,.493.3H8.982a.522.522,0,0,0,.493-.294l2.5-6.134c.114-.281-.137-.572-.493-.572"/><path class="a" d="M8,0a8,8,0,1,0,8,8A8,8,0,0,0,8,0M8,14a6,6,0,1,1,6-6,6.007,6.007,0,0,1-6,6"/></g></svg>