<svg xmlns="http://www.w3.org/2000/svg" xmlns:xlink="http://www.w3.org/1999/xlink" width="16" height="16" viewBox="0 0 16 16"><defs><style>.a{fill:#a1a1a1;}.b{fill:none;}.c{clip-path:url(#a);}</style><clipPath id="a"><rect class="a" width="14" height="16" transform="translate(0 0)"/></clipPath></defs><g transform="translate(1 0)"><rect class="b" width="16" height="16" transform="translate(-1 0)"/><g class="c"><path class="a" d="M12,0H2A2,2,0,0,0,0,2V14a2,2,0,0,0,2,2H12a2,2,0,0,0,2-2V2a2,2,0,0,0-2-2m1,10H8.51a.509.509,0,0,0-.51.51v.98a.509.509,0,0,1-.51.51H6.51a.509.509,0,0,1-.51-.51v-.98A.509.509,0,0,0,5.49,10H1V2A1,1,0,0,1,2,1H12a1,1,0,0,1,1,1Z" transform="translate(0 0)"/><path class="a" d="M10,3.009H4a1,1,0,1,0,0,2h6a1,1,0,1,0,0-2" transform="translate(0 -0.002)"/><path class="a" d="M10,6.009H4a1,1,0,1,0,0,2h6a1,1,0,1,0,0-2" transform="translate(0 -0.003)"/></g></g></svg>