<svg xmlns="http://www.w3.org/2000/svg" xmlns:xlink="http://www.w3.org/1999/xlink" width="16" height="16.003" viewBox="0 0 16 16.003"><defs><style>.a{fill:#12c189;}.b{fill:none;}.c{clip-path:url(#a);}</style><clipPath id="a"><rect class="a" width="14" height="16.003" transform="translate(0 0)"/></clipPath></defs><g transform="translate(1 0)"><rect class="b" width="16" height="16" transform="translate(-1 0)"/><g class="c"><path class="a" d="M13.979,2.892a.987.987,0,0,0-.943-.981A10.046,10.046,0,0,1,7.472.192.9.9,0,0,0,6.909,0a1.01,1.01,0,0,0-.5.132A14.162,14.162,0,0,1,.892,1.943.986.986,0,0,0,0,2.932v7.274s-.194,1.618,2.258,3.566a11.044,11.044,0,0,0,4.544,2.212.937.937,0,0,0,.394,0,9.925,9.925,0,0,0,4.417-2.141c2.157-1.85,2.29-3.138,2.355-3.534.05-.31.022-5.269.007-7.413m-1.995,7.176a4.452,4.452,0,0,1-1.669,2.252l-.032.028-.031.029a7.821,7.821,0,0,1-3.263,1.6,9.268,9.268,0,0,1-3.483-1.77C2.231,11.193,2.032,10.445,2,10.3V3.818A16.381,16.381,0,0,0,6.822,2.185a11.923,11.923,0,0,0,5.163,1.654c.025,3.988.016,5.828,0,6.229"/><path class="a" d="M10.479,5H9.284a.515.515,0,0,0-.5.317L7.82,8.19c-.267.752-.47,1.477-.737,2.239H7.019c-.28-.762-.458-1.487-.738-2.239L5.307,5.315A.516.516,0,0,0,4.806,5H3.52c-.356,0-.606.291-.493.571L5.513,11.7a.522.522,0,0,0,.493.3H7.982a.522.522,0,0,0,.493-.294l2.5-6.134c.114-.281-.137-.572-.493-.572"/></g></g></svg>