<svg xmlns="http://www.w3.org/2000/svg" xmlns:xlink="http://www.w3.org/1999/xlink" width="16" height="16" viewBox="0 0 16 16">
  <defs>
    <clipPath id="clip-path">
      <rect id="矩形_1058" data-name="矩形 1058" width="16" height="10.811" fill="#ff965e"/>
    </clipPath>
  </defs>
  <g id="已关联" transform="translate(0 2.594)">
    <rect id="矩形_1063" data-name="矩形 1063" width="16" height="16" transform="translate(0 -2.594)" fill="none"/>
    <g id="组_1130" data-name="组 1130" transform="translate(0 0.406)" clip-path="url(#clip-path)">
      <path id="路径_3537" data-name="路径 3537" d="M2,6.342A3.676,3.676,0,0,1,5.675,2.667h4.433v1.3H5.675a2.378,2.378,0,0,0,0,4.756H11.73a2.378,2.378,0,0,0,1.784-3.952l-.429-.485.973-.859.429.486a3.675,3.675,0,0,1-2.757,6.107H5.675A3.676,3.676,0,0,1,2,6.342Z" transform="translate(0.595 0.793)" fill="#ff965e"/>
      <path id="路径_3538" data-name="路径 3538" d="M3.675,1.3A2.378,2.378,0,0,0,1.892,5.249l.429.486-.973.859L.919,6.107A3.675,3.675,0,0,1,3.675,0H9.73a3.676,3.676,0,0,1,0,7.352H5.3v-1.3H9.73a2.379,2.379,0,0,0,0-4.757H3.675" transform="translate(0 0)" fill="#ff965e"/>
    </g>
  </g>
</svg>
