<svg xmlns="http://www.w3.org/2000/svg" xmlns:xlink="http://www.w3.org/1999/xlink" width="16" height="16" viewBox="0 0 16 16">
  <defs>
    <clipPath id="clip-path">
      <rect id="矩形_1338" data-name="矩形 1338" width="16" height="16" transform="translate(0 0.001)" fill="#8e8d8d"/>
    </clipPath>
  </defs>
  <g id="分发-灰" transform="translate(0 0)">
    <g id="组_1476" data-name="组 1476" clip-path="url(#clip-path)">
      <path id="路径_4069" data-name="路径 4069" d="M13.318,0H5.682A2.685,2.685,0,0,0,3,2.682V5H2.722A2.725,2.725,0,0,0,0,7.722v5.556A2.726,2.726,0,0,0,2.722,16H8.278A2.726,2.726,0,0,0,11,13.278V13h2.318A2.686,2.686,0,0,0,16,10.318V2.682A2.685,2.685,0,0,0,13.318,0M15,10.318A1.684,1.684,0,0,1,13.318,12H7a.5.5,0,0,0,0,1h3v.277A1.724,1.724,0,0,1,8.278,15H2.722A1.724,1.724,0,0,1,1,13.278V7.722A1.724,1.724,0,0,1,2.722,6H3V9.5a.5.5,0,0,0,1,0V2.682A1.684,1.684,0,0,1,5.682,1h7.636A1.684,1.684,0,0,1,15,2.682Z" fill="#8e8d8d"/>
      <path id="路径_4070" data-name="路径 4070" d="M10,4H6V5H9.336L2.624,12.671a.5.5,0,1,0,.753.658L10,5.759V9h1V4H10Z" fill="#8e8d8d"/>
    </g>
  </g>
</svg>
