<svg id="撤销-灰" xmlns="http://www.w3.org/2000/svg" xmlns:xlink="http://www.w3.org/1999/xlink" width="16" height="16" viewBox="0 0 16 16">
  <defs>
    <clipPath id="clip-path">
      <rect id="矩形_1339" data-name="矩形 1339" width="16" height="16" fill="#8e8d8d"/>
    </clipPath>
  </defs>
  <g id="组_1478" data-name="组 1478" clip-path="url(#clip-path)">
    <path id="路径_4071" data-name="路径 4071" d="M16.012,9.5a.518.518,0,0,0-.028-.163h0V9H5.75L9.128,5.611a.5.5,0,0,0-.7-.707L4.194,9.146v0a.487.487,0,0,0-.106.159.5.5,0,0,0,0,.382.542.542,0,0,0,.107.163L8.425,14.1a.5.5,0,0,0,.7-.707L5.75,10h9.237v4a1,1,0,0,1-1,1H11v1h2.99a2,2,0,0,0,1.994-2V9.637a.479.479,0,0,0,.029-.137" transform="translate(-0.012)" fill="#8e8d8d"/>
    <path id="路径_4072" data-name="路径 4072" d="M1,14V2a1,1,0,0,1,1-1H13.957a1,1,0,0,1,1,1V7h1V2a2,2,0,0,0-1.994-2H1.994A2,2,0,0,0,0,2V14a2,2,0,0,0,1.994,2H7.976V15H1.994a1,1,0,0,1-1-1" fill="#8e8d8d"/>
  </g>
</svg>
