<svg xmlns="http://www.w3.org/2000/svg" xmlns:xlink="http://www.w3.org/1999/xlink" width="16" height="16" viewBox="0 0 16 16">
  <defs>
    <clipPath id="clip-path">
      <rect id="矩形_31" data-name="矩形 31" width="14" height="16" fill="#1677ff"/>
    </clipPath>
  </defs>
  <g id="显示内容" transform="translate(1)">
    <rect id="矩形_32" data-name="矩形 32" width="16" height="16" transform="translate(-1)" fill="none"/>
    <g id="组_36" data-name="组 36" clip-path="url(#clip-path)">
      <path id="路径_66" data-name="路径 66" d="M12,0H2A2,2,0,0,0,0,2V14a2,2,0,0,0,2,2H12a2,2,0,0,0,2-2V2a2,2,0,0,0-2-2m1,14a1,1,0,0,1-1,1H2a1,1,0,0,1-1-1V2A1,1,0,0,1,2,1H12a1,1,0,0,1,1,1Z" fill="#1677ff"/>
      <path id="路径_67" data-name="路径 67" d="M10.5,3h-7a.5.5,0,0,0,0,1h7a.5.5,0,0,0,0-1" fill="#1677ff"/>
      <path id="路径_68" data-name="路径 68" d="M10.5,6h-7a.5.5,0,0,0,0,1h7a.5.5,0,0,0,0-1" fill="#1677ff"/>
      <path id="路径_69" data-name="路径 69" d="M10.5,9h-7a.5.5,0,0,0,0,1h7a.5.5,0,0,0,0-1" fill="#1677ff"/>
      <path id="路径_70" data-name="路径 70" d="M10.5,12h-7a.5.5,0,0,0,0,1h7a.5.5,0,0,0,0-1" fill="#1677ff"/>
    </g>
  </g>
</svg>
