<svg id="编辑小" xmlns="http://www.w3.org/2000/svg" xmlns:xlink="http://www.w3.org/1999/xlink" width="16" height="16" viewBox="0 0 16 16">
  <defs>
    <style>
      .cls-1 {
        fill: #1677ff;
      }

      .cls-2 {
        clip-path: url(#clip-path);
      }
    </style>
    <clipPath id="clip-path">
      <rect id="矩形_1347" data-name="矩形 1347" class="cls-1" width="16" height="16"/>
    </clipPath>
  </defs>
  <g id="组_1498" data-name="组 1498" class="cls-2">
    <path id="路径_4084" data-name="路径 4084" class="cls-1" d="M15.387,14.972H.613A.515.515,0,1,0,.613,16H15.449A.531.531,0,0,0,16,15.486a.7.7,0,0,0-.613-.514m-14.835-2H3.188a.438.438,0,0,0,.368-.185l9.073-9.142a.531.531,0,0,0,0-.8L10.054.185a.521.521,0,0,0-.8,0L7.418,2.039.184,9.328A.537.537,0,0,0,0,9.7v2.656a.675.675,0,0,0,.184.433.436.436,0,0,0,.368.185M9.625,1.38l1.839,1.883L10.422,4.329,8.583,2.447ZM1.165,10.1,7.847,3.263,9.686,5.145,3,11.984H1.165Z"/>
  </g>
</svg>
