<svg id="添加" xmlns="http://www.w3.org/2000/svg" xmlns:xlink="http://www.w3.org/1999/xlink" width="14" height="14" viewBox="0 0 14 14">
  <defs>
    <style>
      .cls-2 {
        clip-path: url(#clip-path);
      }
    </style>
    <clipPath id="clip-path">
      <rect id="矩形_1199" data-name="矩形 1199" width="14" height="14"/>
    </clipPath>
  </defs>
  <g id="组_1205" data-name="组 1205" class="cls-2">
    <path id="路径_3677" data-name="路径 3677" d="M12.25,0H1.75A1.75,1.75,0,0,0,0,1.75v10.5A1.75,1.75,0,0,0,1.75,14h10.5A1.75,1.75,0,0,0,14,12.25V1.75A1.75,1.75,0,0,0,12.25,0m.875,12.25a.876.876,0,0,1-.875.875H1.75a.876.876,0,0,1-.875-.875V1.75A.876.876,0,0,1,1.75.875h10.5a.876.876,0,0,1,.875.875Z"/>
    <path id="路径_3678" data-name="路径 3678" d="M7.938,4H7.063V6.625H4V7.5H7.063V11h.875V7.5H11V6.625H7.938Z" transform="translate(-0.5 -0.5)"/>
  </g>
</svg>
