<svg id="编辑" xmlns="http://www.w3.org/2000/svg" xmlns:xlink="http://www.w3.org/1999/xlink" width="14" height="14" viewBox="0 0 14 14">
  <defs>
    <style>
      .cls-2 {
        clip-path: url(#clip-path);
      }
    </style>
    <clipPath id="clip-path">
      <rect id="矩形_94" data-name="矩形 94" width="14" height="14"/>
    </clipPath>
  </defs>
  <g id="组_129" data-name="组 129" class="cls-2">
    <path id="路径_170" data-name="路径 170" d="M13.506,4.3a.481.481,0,0,0-.494.467v8.3H.987V2.865L3.112.933h7.206a.48.48,0,0,0,.493-.466A.48.48,0,0,0,10.318,0h-7.4A.515.515,0,0,0,2.57.13L.151,2.33A.455.455,0,0,0,0,2.667V13.533A.481.481,0,0,0,.494,14H13.506A.481.481,0,0,0,14,13.533V4.768a.481.481,0,0,0-.494-.467"/>
    <path id="路径_171" data-name="路径 171" d="M4.756,8.41v0l0,0,0,0L4.314,9.995l1.472-.327,0,0L13.22,2.327a.334.334,0,0,0,.021-.441L12.594,1.1a.267.267,0,0,0-.4-.023L4.757,8.411Z"/>
  </g>
</svg>
