<svg id="自动播放" xmlns="http://www.w3.org/2000/svg" xmlns:xlink="http://www.w3.org/1999/xlink" width="20" height="20" viewBox="0 0 20 20">
  <defs>
    <style>
      .cls-1 {
        fill: #fff;
      }

      .cls-2 {
        clip-path: url(#clip-path);
      }
    </style>
    <clipPath id="clip-path">
      <rect id="矩形_1248" data-name="矩形 1248" class="cls-1" width="20" height="20"/>
    </clipPath>
  </defs>
  <g id="组_1288" data-name="组 1288" class="cls-2">
    <path id="路径_3752" data-name="路径 3752" class="cls-1" d="M17.5,1.25A1.252,1.252,0,0,1,18.75,2.5V13.75A1.252,1.252,0,0,1,17.5,15H2.5a1.252,1.252,0,0,1-1.25-1.25V2.5A1.252,1.252,0,0,1,2.5,1.25ZM17.5,0H2.5A2.5,2.5,0,0,0,0,2.5V13.75a2.5,2.5,0,0,0,2.5,2.5h15a2.5,2.5,0,0,0,2.5-2.5V2.5A2.5,2.5,0,0,0,17.5,0"/>
    <path id="路径_3753" data-name="路径 3753" class="cls-1" d="M14.875,16.25H3.625a.625.625,0,0,1,0-1.25h11.25a.625.625,0,0,1,0,1.25" transform="translate(0.75 3.75)"/>
    <path id="路径_3754" data-name="路径 3754" class="cls-1" d="M5.935,2.1a.59.59,0,0,0-.33-.1A.608.608,0,0,0,5,2.612V12.636a.609.609,0,0,0,.605.614.6.6,0,0,0,.33-.1l7.541-5.011a.617.617,0,0,0,0-1.025Zm.272,9.4V3.746l5.836,3.879Z" transform="translate(1.25 0.5)"/>
  </g>
</svg>
