<svg id="自动更新" xmlns="http://www.w3.org/2000/svg" xmlns:xlink="http://www.w3.org/1999/xlink" width="20" height="20" viewBox="0 0 20 20">
  <defs>
    <style>
      .cls-1 {
        fill: #fff;
      }

      .cls-2 {
        clip-path: url(#clip-path);
      }
    </style>
    <clipPath id="clip-path">
      <rect id="矩形_1252" data-name="矩形 1252" class="cls-1" width="20" height="20"/>
    </clipPath>
  </defs>
  <g id="组_1297" data-name="组 1297" class="cls-2">
    <path id="路径_3763" data-name="路径 3763" class="cls-1" d="M19.231,9.958a.667.667,0,0,0-.833.444,8.779,8.779,0,0,1-16.813-.17l3.63,1.692a.667.667,0,1,0,.565-1.209L.945,8.462A.3.3,0,0,0,.9,8.45a.662.662,0,0,0-.132-.033.7.7,0,0,0-.135-.01C.615,8.409.6,8.4.58,8.4a.433.433,0,0,0-.071.024.6.6,0,0,0-.124.041.706.706,0,0,0-.111.066.7.7,0,0,0-.091.081.648.648,0,0,0-.083.11.589.589,0,0,0-.041.056c-.007.017-.006.034-.012.051a.58.58,0,0,0-.031.13A.592.592,0,0,0,0,9.1c0,.017-.006.034,0,.052A10.067,10.067,0,0,0,10.012,17.9a10.146,10.146,0,0,0,9.662-7.109.666.666,0,0,0-.444-.832" transform="translate(0 2.101)"/>
    <path id="路径_3764" data-name="路径 3764" class="cls-1" d="M19.9,8.882a.657.657,0,0,0,.031-.13.59.59,0,0,0,.007-.132c0-.02.006-.039,0-.059A10.112,10.112,0,0,0,.257,7.231a.666.666,0,1,0,1.28.37A8.771,8.771,0,0,1,18.31,7.469L14.727,5.8a.667.667,0,1,0-.562,1.209L19,9.261a.131.131,0,0,1,.021.005.651.651,0,0,0,.259.057h0a.636.636,0,0,0,.1-.008.654.654,0,0,0,.254-.094l.011-.009a.668.668,0,0,0,.212-.241c.007-.014.024-.019.03-.034a.411.411,0,0,0,.014-.056" transform="translate(0.058)"/>
  </g>
</svg>
