<svg id="AD域检查" xmlns="http://www.w3.org/2000/svg" xmlns:xlink="http://www.w3.org/1999/xlink" width="20" height="20" viewBox="0 0 20 20">
  <defs>
    <style>
      .cls-1 {
        fill: #fff;
      }

      .cls-2 {
        clip-path: url(#clip-path);
      }
    </style>
    <clipPath id="clip-path">
      <rect id="矩形_1265" data-name="矩形 1265" class="cls-1" width="20" height="20"/>
    </clipPath>
  </defs>
  <g id="组_1338" data-name="组 1338" class="cls-2">
    <path id="路径_3779" data-name="路径 3779" class="cls-1" d="M17.5,0H2.5A2.5,2.5,0,0,0,0,2.5v15A2.5,2.5,0,0,0,2.5,20h15A2.5,2.5,0,0,0,20,17.5V2.5A2.5,2.5,0,0,0,17.5,0m1.25,17.5a1.252,1.252,0,0,1-1.25,1.25H2.5A1.252,1.252,0,0,1,1.25,17.5V2.5A1.252,1.252,0,0,1,2.5,1.25h15A1.252,1.252,0,0,1,18.75,2.5Z"/>
    <path id="路径_3780" data-name="路径 3780" class="cls-1" d="M4.751,4.421,1.313,13.369H2.571l.982-2.71H7.294l1.044,2.71H9.687L6.024,4.421ZM3.894,9.695,4.877,7.07a11.365,11.365,0,0,0,.483-1.709q.208.726.635,1.856l.935,2.477Z" transform="translate(0.328 1.105)"/>
    <path id="路径_3781" data-name="路径 3781" class="cls-1" d="M14.756,5.19a3.033,3.033,0,0,0-1.312-.64,7.414,7.414,0,0,0-1.594-.129H8.769v8.948H12a6.041,6.041,0,0,0,1.436-.153,3.307,3.307,0,0,0,1.069-.449,3.232,3.232,0,0,0,.815-.811,4.411,4.411,0,0,0,.611-1.3,6.294,6.294,0,0,0,.239-1.807,6,6,0,0,0-.353-2.126,3.644,3.644,0,0,0-1.059-1.53m-.045,5.363a2.821,2.821,0,0,1-.657,1.133,2,2,0,0,1-.8.464,4.635,4.635,0,0,1-1.389.165H9.953V5.477h1.88a4.651,4.651,0,0,1,1.531.183,2.317,2.317,0,0,1,1.12,1.011,4.156,4.156,0,0,1,.461,2.157,5.548,5.548,0,0,1-.234,1.724" transform="translate(2.192 1.105)"/>
  </g>
</svg>
