<svg id="计算机名称" xmlns="http://www.w3.org/2000/svg" xmlns:xlink="http://www.w3.org/1999/xlink" width="20" height="20" viewBox="0 0 20 20">
  <defs>
    <style>
      .cls-1 {
        fill: #fff;
      }

      .cls-2 {
        clip-path: url(#clip-path);
      }
    </style>
    <clipPath id="clip-path">
      <rect id="矩形_1257" data-name="矩形 1257" class="cls-1" width="20" height="20"/>
    </clipPath>
  </defs>
  <g id="组_1301" data-name="组 1301" class="cls-2">
    <path id="路径_3768" data-name="路径 3768" class="cls-1" d="M17.5,0H2.5A2.5,2.5,0,0,0,0,2.5V13.75a2.5,2.5,0,0,0,2.5,2.5h15a2.5,2.5,0,0,0,2.5-2.5V2.5A2.5,2.5,0,0,0,17.5,0m1.25,13.75A1.252,1.252,0,0,1,17.5,15H2.5a1.252,1.252,0,0,1-1.25-1.25V2.5A1.252,1.252,0,0,1,2.5,1.25h15A1.252,1.252,0,0,1,18.75,2.5Z"/>
    <path id="路径_3769" data-name="路径 3769" class="cls-1" d="M14.875,15H3.625a.625.625,0,0,0,0,1.25h11.25a.625.625,0,0,0,0-1.25" transform="translate(0.75 3.75)"/>
    <path id="路径_3770" data-name="路径 3770" class="cls-1" d="M8.314,11.375a.162.162,0,0,1-.129-.081.336.336,0,0,1-.059-.2,20.962,20.962,0,0,1,.9-3.656,15.749,15.749,0,0,0,.554-2.1.4.4,0,0,0-.145-.325.639.639,0,0,0-.418-.119,2.561,2.561,0,0,0-1.2.4A6.678,6.678,0,0,0,6.263,6.624l.376.291a8.849,8.849,0,0,1,.97-.873A.764.764,0,0,1,8,5.906c.1,0,.154.056.154.171a1.216,1.216,0,0,1-.06.35,25.811,25.811,0,0,0-1.281,5.221.738.738,0,0,0,.175.521.617.617,0,0,0,.474.188,1.916,1.916,0,0,0,.881-.307,11.134,11.134,0,0,0,1.709-1.41l-.334-.325q-1.127,1.059-1.4,1.06" transform="translate(1.566 1.222)"/>
    <path id="路径_3771" data-name="路径 3771" class="cls-1" d="M9.418,1.984a.78.78,0,0,0-.59.269.932.932,0,0,0-.247.654.648.648,0,0,0,.171.47.564.564,0,0,0,.427.18.776.776,0,0,0,.585-.286.954.954,0,0,0,.26-.663.615.615,0,0,0-.17-.449.588.588,0,0,0-.436-.175" transform="translate(2.145 0.496)"/>
  </g>
</svg>
