<svg id="文件检查" xmlns="http://www.w3.org/2000/svg" xmlns:xlink="http://www.w3.org/1999/xlink" width="20" height="20" viewBox="0 0 20 20">
  <defs>
    <style>
      .cls-1 {
        fill: #fff;
      }

      .cls-2 {
        clip-path: url(#clip-path);
      }
    </style>
    <clipPath id="clip-path">
      <rect id="矩形_1258" data-name="矩形 1258" class="cls-1" width="20" height="20"/>
    </clipPath>
  </defs>
  <g id="组_1303" data-name="组 1303" class="cls-2">
    <path id="路径_3772" data-name="路径 3772" class="cls-1" d="M17.5,0H2.5A2.5,2.5,0,0,0,0,2.5v15A2.5,2.5,0,0,0,2.5,20h15A2.5,2.5,0,0,0,20,17.5V2.5A2.5,2.5,0,0,0,17.5,0M2.5,18.75A1.252,1.252,0,0,1,1.25,17.5V2.5A1.252,1.252,0,0,1,2.5,1.25h15A1.252,1.252,0,0,1,18.75,2.5v15a1.219,1.219,0,0,1-.071.351.662.662,0,0,0-.111-.167l-1.562-1.562a.625.625,0,0,0-.884.884l1.563,1.563a.568.568,0,0,0,.167.111,1.219,1.219,0,0,1-.351.071Z"/>
    <path id="路径_3773" data-name="路径 3773" class="cls-1" d="M11.031,6.5a4.531,4.531,0,1,0,4.531,4.531A4.536,4.536,0,0,0,11.031,6.5m0,7.813a3.281,3.281,0,1,1,3.281-3.281,3.286,3.286,0,0,1-3.281,3.281" transform="translate(1.625 1.625)"/>
    <path id="路径_3774" data-name="路径 3774" class="cls-1" d="M3.7,4.25h9.784a.665.665,0,0,0,.7-.625.665.665,0,0,0-.7-.625H3.7a.665.665,0,0,0-.7.625.665.665,0,0,0,.7.625" transform="translate(0.75 0.75)"/>
    <path id="路径_3775" data-name="路径 3775" class="cls-1" d="M7,6H3.266C3.119,6,3,6.28,3,6.625s.119.625.266.625H7c.148,0,.267-.28.267-.625S7.151,6,7,6" transform="translate(0.75 1.5)"/>
    <path id="路径_3776" data-name="路径 3776" class="cls-1" d="M5.344,9H3.156C3.07,9,3,9.28,3,9.625s.07.625.156.625H5.344c.086,0,.156-.28.156-.625S5.43,9,5.344,9" transform="translate(0.75 2.25)"/>
  </g>
</svg>
