<svg id="防火墙检查" xmlns="http://www.w3.org/2000/svg" xmlns:xlink="http://www.w3.org/1999/xlink" width="20" height="20" viewBox="0 0 20 20">
  <defs>
    <style>
      .cls-1 {
        fill: #fff;
      }

      .cls-2 {
        clip-path: url(#clip-path);
      }
    </style>
    <clipPath id="clip-path">
      <rect id="矩形_143" data-name="矩形 143" class="cls-1" width="20" height="20"/>
    </clipPath>
  </defs>
  <g id="组_206" data-name="组 206" class="cls-2">
    <path id="路径_267" data-name="路径 267" class="cls-1" d="M17.5,0H2.5A2.5,2.5,0,0,0,0,2.5v15A2.5,2.5,0,0,0,2.5,20h15A2.5,2.5,0,0,0,20,17.5V2.5A2.5,2.5,0,0,0,17.5,0M1.25,7.51H12.5v5H1.25Zm0,9.991V13.756h5v5H2.5A1.252,1.252,0,0,1,1.25,17.5m17.5,0a1.252,1.252,0,0,1-1.25,1.25H7.5v-5H18.75Zm0-4.994h-5v-5h5Zm0-6.247H7.5v-5H6.25v5h-5V2.5A1.251,1.251,0,0,1,2.5,1.25h15A1.251,1.251,0,0,1,18.75,2.5Z"/>
  </g>
</svg>
