<svg id="流量检测" xmlns="http://www.w3.org/2000/svg" xmlns:xlink="http://www.w3.org/1999/xlink" width="20" height="20" viewBox="0 0 20 20">
  <defs>
    <style>
      .cls-1 {
        fill: #fff;
      }

      .cls-2 {
        clip-path: url(#clip-path);
      }
    </style>
    <clipPath id="clip-path">
      <rect id="矩形_1290" data-name="矩形 1290" class="cls-1" width="20" height="20"/>
    </clipPath>
  </defs>
  <g id="组_1368" data-name="组 1368" class="cls-2">
    <path id="路径_3811" data-name="路径 3811" class="cls-1" d="M17.5,0H2.5A2.5,2.5,0,0,0,0,2.5v15A2.5,2.5,0,0,0,2.5,20h15A2.5,2.5,0,0,0,20,17.5V2.5A2.5,2.5,0,0,0,17.5,0m1.25,17.5a1.252,1.252,0,0,1-1.25,1.25H2.5A1.252,1.252,0,0,1,1.25,17.5V10.621H5a.623.623,0,0,0,.58-.393L7.416,5.64l3.235,10.786a.622.622,0,0,0,.571.444h.028a.625.625,0,0,0,.58-.392l2.343-5.858H18.75Zm0-8.129h-5a.623.623,0,0,0-.58.392l-1.836,4.589L8.1,3.566a.622.622,0,0,0-.571-.444.591.591,0,0,0-.608.391L4.577,9.371H1.25V2.5A1.252,1.252,0,0,1,2.5,1.25h15A1.252,1.252,0,0,1,18.75,2.5Z"/>
  </g>
</svg>
