<svg id="来宾访客" xmlns="http://www.w3.org/2000/svg" xmlns:xlink="http://www.w3.org/1999/xlink" width="20" height="20" viewBox="0 0 20 20">
  <defs>
    <style>
      .cls-1 {
        fill: #fff;
      }

      .cls-2 {
        clip-path: url(#clip-path);
      }
    </style>
    <clipPath id="clip-path">
      <rect id="矩形_1247" data-name="矩形 1247" class="cls-1" width="20" height="20"/>
    </clipPath>
  </defs>
  <g id="组_1286" data-name="组 1286" class="cls-2">
    <path id="路径_3751" data-name="路径 3751" class="cls-1" d="M17.5,0H2.5A2.5,2.5,0,0,0,0,2.5v15A2.5,2.5,0,0,0,2.5,20H18.776c0-.119-.012-.234-.017-.35A2.492,2.492,0,0,0,20,17.5V2.5A2.5,2.5,0,0,0,17.5,0M5.153,18.75a6.251,6.251,0,0,1,12.249,0Zm3-10a3.125,3.125,0,1,1,3.125,3.125A3.13,3.13,0,0,1,8.151,8.751m4.926,3.975a4.375,4.375,0,1,0-3.6,0A7.5,7.5,0,0,0,3.889,18.75H2.5A1.252,1.252,0,0,1,1.25,17.5V2.5A1.251,1.251,0,0,1,2.5,1.251h15A1.25,1.25,0,0,1,18.75,2.5v15a1.207,1.207,0,0,1-.211.654,7.5,7.5,0,0,0-5.461-5.427" transform="translate(0 0)"/>
  </g>
</svg>
