<svg id="硬件安装" xmlns="http://www.w3.org/2000/svg" xmlns:xlink="http://www.w3.org/1999/xlink" width="20" height="20" viewBox="0 0 20 20">
  <defs>
    <style>
      .cls-1 {
        fill: #fff;
      }

      .cls-2 {
        clip-path: url(#clip-path);
      }
    </style>
    <clipPath id="clip-path">
      <rect id="矩形_1291" data-name="矩形 1291" class="cls-1" width="20" height="20"/>
    </clipPath>
  </defs>
  <g id="组_1370" data-name="组 1370" class="cls-2">
    <path id="路径_3812" data-name="路径 3812" class="cls-1" d="M17.5,0H2.5A2.5,2.5,0,0,0,0,2.5v15A2.5,2.5,0,0,0,2.5,20h15A2.5,2.5,0,0,0,20,17.5V2.5A2.5,2.5,0,0,0,17.5,0m1.25,17.5a1.252,1.252,0,0,1-1.25,1.25H2.5A1.252,1.252,0,0,1,1.25,17.5V16.25H18.724V15H1.25V2.5A1.252,1.252,0,0,1,2.5,1.25h15A1.252,1.252,0,0,1,18.75,2.5Z"/>
    <path id="路径_3813" data-name="路径 3813" class="cls-1" d="M11.35,7.487a4.319,4.319,0,0,0,.379-1.76A4.38,4.38,0,0,0,7.354,1.352a4.329,4.329,0,0,0-1.34.229l-.972.314L7.514,4.367a.982.982,0,0,1,0,1.389,1.008,1.008,0,0,1-1.389,0l-2.5-2.5-.345.9A4.352,4.352,0,0,0,7.354,10.1a4.308,4.308,0,0,0,1.8-.4l2.516,3.363a2.232,2.232,0,0,0,3.156-3.156Zm2.593,4.7a1.1,1.1,0,0,1-1.33.069L9.489,8.067,9,8.371A3.11,3.11,0,0,1,4.229,5.727c0-.033,0-.065,0-.1L5.241,6.64a2.285,2.285,0,0,0,3.156,0,2.232,2.232,0,0,0,0-3.156L7.52,2.606a3.109,3.109,0,0,1,2.488,4.751l-.311.5,4.28,2.969a.983.983,0,0,1-.034,1.354" transform="translate(0.745 0.338)"/>
  </g>
</svg>
