<svg id="IE浏览器" xmlns="http://www.w3.org/2000/svg" xmlns:xlink="http://www.w3.org/1999/xlink" width="20" height="20" viewBox="0 0 20 20">
  <defs>
    <style>
      .cls-1 {
        fill: #fff;
      }

      .cls-2 {
        clip-path: url(#clip-path);
      }
    </style>
    <clipPath id="clip-path">
      <rect id="矩形_1264" data-name="矩形 1264" class="cls-1" width="20" height="20"/>
    </clipPath>
  </defs>
  <g id="组_1336" data-name="组 1336" class="cls-2">
    <path id="路径_3778" data-name="路径 3778" class="cls-1" d="M6.466,8.621H19.922V7.557L20,7.537c-.019-.076-.057-.144-.076-.219V7.072h-.09a9.829,9.829,0,0,0-4.476-5.65A10.006,10.006,0,0,0,7.645.339,9.936,9.936,0,0,0,.329,12.491,10.132,10.132,0,0,0,10.165,20a8.442,8.442,0,0,0,2.438-.388,10.063,10.063,0,0,0,5.745-3.792l-1.26-.929a8.01,8.01,0,0,1-4.8,3.251A8.67,8.67,0,0,1,1.824,12.027,8.527,8.527,0,0,1,14.57,2.739a8.471,8.471,0,0,1,3.625,4.334H6.466Z" transform="translate(0 0)"/>
  </g>
</svg>
