<svg id="地址获取" xmlns="http://www.w3.org/2000/svg" xmlns:xlink="http://www.w3.org/1999/xlink" width="20" height="20" viewBox="0 0 20 20">
  <defs>
    <style>
      .cls-1 {
        fill: #fff;
      }

      .cls-2 {
        clip-path: url(#clip-path);
      }
    </style>
    <clipPath id="clip-path">
      <rect id="矩形_1250" data-name="矩形 1250" class="cls-1" width="20" height="20"/>
    </clipPath>
  </defs>
  <g id="组_1292" data-name="组 1292" class="cls-2">
    <path id="路径_3759" data-name="路径 3759" class="cls-1" d="M17.5,0H2.5A2.5,2.5,0,0,0,0,2.5v15A2.5,2.5,0,0,0,2.5,20h15A2.5,2.5,0,0,0,20,17.5V2.5A2.5,2.5,0,0,0,17.5,0m1.25,17.5a1.252,1.252,0,0,1-1.25,1.25H2.5A1.252,1.252,0,0,1,1.25,17.5V2.5A1.252,1.252,0,0,1,2.5,1.25h15A1.252,1.252,0,0,1,18.75,2.5Z"/>
    <path id="路径_3760" data-name="路径 3760" class="cls-1" d="M9,3A4.8,4.8,0,0,0,3.994,7.551,4.37,4.37,0,0,0,5.78,11.013L9,15.5l3.222-4.488A4.371,4.371,0,0,0,14.01,7.551,4.8,4.8,0,0,0,9,3m2.215,7.05L9,13.071,6.942,10.2l-.151-.154a3.1,3.1,0,0,1-1.335-2.5A3.4,3.4,0,0,1,9,4.326a3.4,3.4,0,0,1,3.547,3.225,3.109,3.109,0,0,1-1.332,2.5" transform="translate(0.998 0.75)"/>
  </g>
</svg>
