<svg id="操作系统" xmlns="http://www.w3.org/2000/svg" xmlns:xlink="http://www.w3.org/1999/xlink" width="20" height="20" viewBox="0 0 20 20">
  <defs>
    <style>
      .cls-1 {
        fill: #fff;
      }

      .cls-2 {
        clip-path: url(#clip-path);
      }
    </style>
    <clipPath id="clip-path">
      <rect id="矩形_1270" data-name="矩形 1270" class="cls-1" width="20" height="20"/>
    </clipPath>
  </defs>
  <g id="组_1344" data-name="组 1344" class="cls-2">
    <path id="路径_3785" data-name="路径 3785" class="cls-1" d="M7.5,0H1.25A1.25,1.25,0,0,0,0,1.25V7.5A1.25,1.25,0,0,0,1.25,8.75H7.5A1.25,1.25,0,0,0,8.75,7.5V1.25A1.25,1.25,0,0,0,7.5,0m0,7.5H1.25V1.25H7.5Z"/>
    <path id="路径_3786" data-name="路径 3786" class="cls-1" d="M16.5,0H10.25A1.25,1.25,0,0,0,9,1.25V7.5a1.25,1.25,0,0,0,1.25,1.25H16.5A1.25,1.25,0,0,0,17.75,7.5V1.25A1.25,1.25,0,0,0,16.5,0m0,7.5H10.25V1.25H16.5Z" transform="translate(2.25)"/>
    <path id="路径_3787" data-name="路径 3787" class="cls-1" d="M7.5,9H1.25A1.25,1.25,0,0,0,0,10.25V16.5a1.25,1.25,0,0,0,1.25,1.25H7.5A1.25,1.25,0,0,0,8.75,16.5V10.25A1.25,1.25,0,0,0,7.5,9m0,7.5H1.25V10.25H7.5Z" transform="translate(0 2.25)"/>
    <path id="路径_3788" data-name="路径 3788" class="cls-1" d="M16.5,9H10.25A1.25,1.25,0,0,0,9,10.25V16.5a1.25,1.25,0,0,0,1.25,1.25H16.5a1.25,1.25,0,0,0,1.25-1.25V10.25A1.25,1.25,0,0,0,16.5,9m0,7.5H10.25V10.25H16.5Z" transform="translate(2.25 2.25)"/>
  </g>
</svg>
