<svg id="进程运行" xmlns="http://www.w3.org/2000/svg" xmlns:xlink="http://www.w3.org/1999/xlink" width="20" height="20" viewBox="0 0 20 20">
  <defs>
    <style>
      .cls-1 {
        fill: #fff;
      }

      .cls-2 {
        clip-path: url(#clip-path);
      }
    </style>
    <clipPath id="clip-path">
      <rect id="矩形_1285" data-name="矩形 1285" class="cls-1" width="20" height="20"/>
    </clipPath>
  </defs>
  <g id="组_1362" data-name="组 1362" class="cls-2">
    <path id="路径_3806" data-name="路径 3806" class="cls-1" d="M17.5,0H2.5A2.5,2.5,0,0,0,0,2.5v11.23a2.507,2.507,0,0,0,2.5,2.5H9.413v2.5H4.375a.624.624,0,1,0,0,1.249H9.413V20h1.25v-.025h4.963a.624.624,0,1,0,0-1.249H10.662v-2.5H17.5a2.5,2.5,0,0,0,2.5-2.5V2.5A2.506,2.506,0,0,0,17.5,0m1.25,13.716a1.253,1.253,0,0,1-1.25,1.249H2.5a1.253,1.253,0,0,1-1.25-1.249V9.369H3.364l1.077,2.153A.625.625,0,0,0,5,11.868h.026a.628.628,0,0,0,.554-.394l1.92-4.8,1.92,4.8a.649.649,0,0,0,1.16,0L12.6,6.43l1.858,3.249A.625.625,0,0,0,15,9.994h3.75V8.744H15.363l-2.32-4.057a.6.6,0,0,0-.586-.314.625.625,0,0,0-.536.392L10,9.56,8.08,4.765a.649.649,0,0,0-1.16,0L4.936,9.719,4.309,8.465a.627.627,0,0,0-.559-.346H1.25V2.486A1.254,1.254,0,0,1,2.5,1.236h15a1.254,1.254,0,0,1,1.25,1.25Z"/>
  </g>
</svg>
