<svg id="浏览器代理" xmlns="http://www.w3.org/2000/svg" xmlns:xlink="http://www.w3.org/1999/xlink" width="20" height="20" viewBox="0 0 20 20">
  <defs>
    <style>
      .cls-1 {
        fill: #fff;
      }

      .cls-2 {
        clip-path: url(#clip-path);
      }
    </style>
    <clipPath id="clip-path">
      <rect id="矩形_1272" data-name="矩形 1272" class="cls-1" width="20" height="20"/>
    </clipPath>
  </defs>
  <g id="组_1348" data-name="组 1348" class="cls-2">
    <path id="路径_3790" data-name="路径 3790" class="cls-1" d="M17.5,0H2.5A2.5,2.5,0,0,0,0,2.5V13.75a2.5,2.5,0,0,0,2.5,2.5h15a2.5,2.5,0,0,0,2.5-2.5V2.5A2.5,2.5,0,0,0,17.5,0m1.25,13.75A1.252,1.252,0,0,1,17.5,15H2.5a1.252,1.252,0,0,1-1.25-1.25V2.5A1.252,1.252,0,0,1,2.5,1.25h15A1.252,1.252,0,0,1,18.75,2.5Z"/>
    <path id="路径_3791" data-name="路径 3791" class="cls-1" d="M14.875,15H3.625a.625.625,0,0,0,0,1.25h11.25a.625.625,0,0,0,0-1.25" transform="translate(0.75 3.75)"/>
    <path id="路径_3792" data-name="路径 3792" class="cls-1" d="M8.941,2.734A4.732,4.732,0,0,0,5.512,4.217a4.708,4.708,0,0,0,3.21,7.919c.073,0,.144.006.216.006a4.686,4.686,0,0,0,4.092-2.386.6.6,0,0,0-1.043-.592,3.5,3.5,0,0,1-3.215,1.775A3.532,3.532,0,0,1,5.438,7.659a3.507,3.507,0,0,1,6.955-.823H6.623a.6.6,0,1,0,0,1.2h6.423a.6.6,0,0,0,.6-.6,4.708,4.708,0,0,0-4.7-4.7" transform="translate(1.059 0.683)"/>
  </g>
</svg>
