<svg id="注册表检查" xmlns="http://www.w3.org/2000/svg" xmlns:xlink="http://www.w3.org/1999/xlink" width="20" height="20" viewBox="0 0 20 20">
  <defs>
    <style>
      .cls-1 {
        fill: #fff;
      }

      .cls-2 {
        clip-path: url(#clip-path);
      }
    </style>
    <clipPath id="clip-path">
      <rect id="矩形_1282" data-name="矩形 1282" class="cls-1" width="20" height="20"/>
    </clipPath>
  </defs>
  <g id="组_1356" data-name="组 1356" class="cls-2">
    <path id="路径_3799" data-name="路径 3799" class="cls-1" d="M17.5,0H2.5A2.5,2.5,0,0,0,0,2.5v15A2.5,2.5,0,0,0,2.5,20h15A2.5,2.5,0,0,0,20,17.5V2.5A2.5,2.5,0,0,0,17.5,0m1.25,17.5a1.252,1.252,0,0,1-1.25,1.25H2.5A1.252,1.252,0,0,1,1.25,17.5V2.5A1.252,1.252,0,0,1,2.5,1.25h15A1.252,1.252,0,0,1,18.75,2.5Z"/>
    <path id="路径_3800" data-name="路径 3800" class="cls-1" d="M14.666,10.741a3.75,3.75,0,1,0-3.75,3.75,3.755,3.755,0,0,0,3.75-3.75m-3.75,2.5a2.5,2.5,0,1,1,2.5-2.5,2.5,2.5,0,0,1-2.5,2.5" transform="translate(1.792 1.748)"/>
    <path id="路径_3801" data-name="路径 3801" class="cls-1" d="M13.232,12.174a.625.625,0,0,0-.884.884l1.25,1.25a.625.625,0,0,0,.884-.884Z" transform="translate(3.041 2.998)"/>
    <rect id="矩形_1279" data-name="矩形 1279" class="cls-1" width="1.25" height="12.5" transform="translate(3.75 3.737)"/>
    <rect id="矩形_1280" data-name="矩形 1280" class="cls-1" width="6.25" height="1.25" transform="translate(7.5 3.737)"/>
    <rect id="矩形_1281" data-name="矩形 1281" class="cls-1" width="2.5" height="1.25" transform="translate(7.5 7.487)"/>
  </g>
</svg>
