<svg id="终端运行时间" xmlns="http://www.w3.org/2000/svg" xmlns:xlink="http://www.w3.org/1999/xlink" width="20" height="20" viewBox="0 0 20 20">
  <defs>
    <style>
      .cls-1 {
        fill: #fff;
      }

      .cls-2 {
        clip-path: url(#clip-path);
      }
    </style>
    <clipPath id="clip-path">
      <rect id="矩形_1239" data-name="矩形 1239" class="cls-1" width="20" height="20"/>
    </clipPath>
  </defs>
  <g id="组_1269" data-name="组 1269" class="cls-2">
    <path id="路径_3730" data-name="路径 3730" class="cls-1" d="M17.5,0H2.5A2.5,2.5,0,0,0,0,2.5V13.729a2.5,2.5,0,0,0,2.5,2.5H9.419v2.5H4.375a.624.624,0,1,0,0,1.247H9.419V20h1.25v-.031h4.956a.624.624,0,1,0,0-1.247H10.669v-2.5H17.5a2.5,2.5,0,0,0,2.5-2.5V2.5A2.5,2.5,0,0,0,17.5,0m1.25,13.729a1.25,1.25,0,0,1-1.25,1.247H2.5a1.25,1.25,0,0,1-1.25-1.247V2.5A1.251,1.251,0,0,1,2.5,1.248h15A1.251,1.251,0,0,1,18.75,2.5Z"/>
    <path id="路径_3731" data-name="路径 3731" class="cls-1" d="M8.264,8.257V2.248a.625.625,0,0,0-1.25,0V8.5a.617.617,0,0,0,.038.185.612.612,0,0,0,.256.43l5.12,3.585a.625.625,0,0,0,.716-1.024Z" transform="translate(1.753 0.406)"/>
  </g>
</svg>
