<svg id="屏幕保护" xmlns="http://www.w3.org/2000/svg" xmlns:xlink="http://www.w3.org/1999/xlink" width="20" height="20" viewBox="0 0 20 20">
  <defs>
    <style>
      .cls-1 {
        fill: #fff;
      }

      .cls-2 {
        clip-path: url(#clip-path);
      }
    </style>
    <clipPath id="clip-path">
      <rect id="矩形_1269" data-name="矩形 1269" class="cls-1" width="20" height="20"/>
    </clipPath>
  </defs>
  <g id="组_1342" data-name="组 1342" class="cls-2">
    <path id="路径_3783" data-name="路径 3783" class="cls-1" d="M17.5,0H2.5A2.5,2.5,0,0,0,0,2.5v15A2.5,2.5,0,0,0,2.5,20h15A2.5,2.5,0,0,0,20,17.5V2.5A2.5,2.5,0,0,0,17.5,0m1.25,17.5a1.252,1.252,0,0,1-1.25,1.25H2.5A1.252,1.252,0,0,1,1.25,17.5V2.5A1.252,1.252,0,0,1,2.5,1.25h15A1.252,1.252,0,0,1,18.75,2.5Z"/>
    <path id="路径_3784" data-name="路径 3784" class="cls-1" d="M13.809,4.494h.014A7.825,7.825,0,0,1,9.476,3.148.658.658,0,0,0,9.031,3a.81.81,0,0,0-.39.108A10.845,10.845,0,0,1,4.323,4.52a.784.784,0,0,0-.7.767v5.691s-.148,1.265,1.762,2.785a8.555,8.555,0,0,0,3.552,1.722c.054,0,.094.014.149.014a.64.64,0,0,0,.161-.014,7.819,7.819,0,0,0,3.457-1.669c1.683-1.44,1.79-2.449,1.844-2.758.04-.243.014-4.117,0-5.8a.768.768,0,0,0-.74-.766m-.416,6.3v.041c-.041.233-.151.96-1.467,2.085A6.558,6.558,0,0,1,9.1,14.276a7.215,7.215,0,0,1-2.949-1.44c-1.344-1.07-1.344-1.906-1.358-1.906v-5.3A10.891,10.891,0,0,0,9.018,4.25a7.9,7.9,0,0,0,4.361,1.358c.028,3.566.014,5.034,0,5.185Z" transform="translate(0.905 0.75)"/>
  </g>
</svg>
