<svg id="服务运行" xmlns="http://www.w3.org/2000/svg" xmlns:xlink="http://www.w3.org/1999/xlink" width="20" height="20" viewBox="0 0 20 20">
  <defs>
    <style>
      .cls-1 {
        fill: #fff;
      }

      .cls-2 {
        clip-path: url(#clip-path);
      }
    </style>
    <clipPath id="clip-path">
      <rect id="矩形_1288" data-name="矩形 1288" class="cls-1" width="20" height="20"/>
    </clipPath>
  </defs>
  <g id="组_1364" data-name="组 1364" class="cls-2">
    <path id="路径_3807" data-name="路径 3807" class="cls-1" d="M2,8.75h15.97a2,2,0,0,0,2-2V2a2,2,0,0,0-2-2H2A2,2,0,0,0,0,2V6.746a2,2,0,0,0,2,2M1.249,2A.755.755,0,0,1,2,1.25h15.97A.756.756,0,0,1,18.726,2V6.746a.755.755,0,0,1-.754.754H2a.754.754,0,0,1-.754-.754Z" transform="translate(0 0)"/>
    <path id="路径_3808" data-name="路径 3808" class="cls-1" d="M17.992,8H2.022a2,2,0,0,0-2,2v5.991a2,2,0,0,0,2,2.005h15.97a2,2,0,0,0,2-2.005V10a2,2,0,0,0-2-2m.754,7.995a.755.755,0,0,1-.754.755H2.022a.756.756,0,0,1-.754-.755V10a.755.755,0,0,1,.754-.754h15.97a.754.754,0,0,1,.754.754Z" transform="translate(0.005 2)"/>
    <rect id="矩形_1286" data-name="矩形 1286" class="cls-1" width="2.496" height="1.25" transform="translate(15.008 3.75)"/>
    <rect id="矩形_1287" data-name="矩形 1287" class="cls-1" width="2.496" height="1.25" transform="translate(15.006 15)"/>
  </g>
</svg>
