<svg id="共享资源" xmlns="http://www.w3.org/2000/svg" xmlns:xlink="http://www.w3.org/1999/xlink" width="20" height="20" viewBox="0 0 20 20">
  <defs>
    <style>
      .cls-1 {
        fill: #fff;
      }

      .cls-2 {
        clip-path: url(#clip-path);
      }
    </style>
    <clipPath id="clip-path">
      <rect id="矩形_1251" data-name="矩形 1251" class="cls-1" width="20" height="20"/>
    </clipPath>
  </defs>
  <g id="组_1294" data-name="组 1294" class="cls-2">
    <path id="路径_3761" data-name="路径 3761" class="cls-1" d="M17.5,0H2.5A2.5,2.5,0,0,0,0,2.5v15A2.5,2.5,0,0,0,2.5,20h15A2.5,2.5,0,0,0,20,17.5V2.5A2.5,2.5,0,0,0,17.5,0m1.25,17.5a1.252,1.252,0,0,1-1.25,1.25H2.5A1.252,1.252,0,0,1,1.25,17.5V2.5A1.252,1.252,0,0,1,2.5,1.25h15A1.252,1.252,0,0,1,18.75,2.5Z"/>
    <path id="路径_3762" data-name="路径 3762" class="cls-1" d="M15.033,10.791c.009-.106.024-.21.024-.318a5.022,5.022,0,0,0-2.505-4.285,3.125,3.125,0,1,0-5.852,0,5.022,5.022,0,0,0-2.505,4.285c0,.107.015.211.024.318a3.118,3.118,0,1,0,3.26,4.35,5.461,5.461,0,0,0,4.3,0,3.121,3.121,0,1,0,3.26-4.35M9.625,3.25A1.875,1.875,0,1,1,7.75,5.125,1.877,1.877,0,0,1,9.625,3.25m-5,12.5A1.875,1.875,0,1,1,6.5,13.875,1.877,1.877,0,0,1,4.625,15.75M11.5,13.875c0,.085.019.165.025.247a4.356,4.356,0,0,1-3.8,0c.006-.082.025-.162.025-.247A3.124,3.124,0,0,0,5.31,10.83a3.042,3.042,0,0,1-.03-.356A4,4,0,0,1,7.224,7.1a3.086,3.086,0,0,0,4.8,0,4,4,0,0,1,1.944,3.371,3.042,3.042,0,0,1-.03.356,3.124,3.124,0,0,0-2.44,3.045m3.125,1.875A1.875,1.875,0,1,1,16.5,13.875a1.877,1.877,0,0,1-1.875,1.875" transform="translate(0.375 0.5)"/>
  </g>
</svg>
