<svg id="启动项检查" xmlns="http://www.w3.org/2000/svg" xmlns:xlink="http://www.w3.org/1999/xlink" width="20" height="20" viewBox="0 0 20 20">
  <defs>
    <style>
      .cls-1 {
        fill: #fff;
      }

      .cls-2 {
        clip-path: url(#clip-path);
      }
    </style>
    <clipPath id="clip-path">
      <rect id="矩形_1289" data-name="矩形 1289" class="cls-1" width="20" height="20"/>
    </clipPath>
  </defs>
  <g id="组_1366" data-name="组 1366" class="cls-2">
    <path id="路径_3809" data-name="路径 3809" class="cls-1" d="M17.5,0H2.5A2.5,2.5,0,0,0,0,2.5v15A2.5,2.5,0,0,0,2.5,20h15A2.5,2.5,0,0,0,20,17.5V2.5A2.5,2.5,0,0,0,17.5,0m1.25,17.5a1.252,1.252,0,0,1-1.25,1.25H2.5A1.252,1.252,0,0,1,1.25,17.5V2.5A1.252,1.252,0,0,1,2.5,1.25h15A1.252,1.252,0,0,1,18.75,2.5Z"/>
    <path id="路径_3810" data-name="路径 3810" class="cls-1" d="M5.968,3.511a.617.617,0,0,0-.341-.1A.625.625,0,0,0,5,4.034V14.261a.625.625,0,0,0,.968.524l7.8-5.114a.625.625,0,0,0,0-1.046Zm.282,9.594V5.191l6.04,3.956Z" transform="translate(1.25 0.852)"/>
  </g>
</svg>
