<svg id="系统漏洞" xmlns="http://www.w3.org/2000/svg" xmlns:xlink="http://www.w3.org/1999/xlink" width="20" height="20" viewBox="0 0 20 20">
  <defs>
    <style>
      .cls-1 {
        fill: #fff;
      }

      .cls-2 {
        clip-path: url(#clip-path);
      }
    </style>
    <clipPath id="clip-path">
      <rect id="矩形_842" data-name="矩形 842" class="cls-1" width="20" height="20"/>
    </clipPath>
  </defs>
  <g id="组_877" data-name="组 877" class="cls-2">
    <path id="路径_3250" data-name="路径 3250" class="cls-1" d="M9.5,2A7.5,7.5,0,1,0,17,9.5,7.5,7.5,0,0,0,9.5,2m0,13.75A6.25,6.25,0,1,1,15.75,9.5a6.257,6.257,0,0,1-6.25,6.25" transform="translate(0.5 0.501)"/>
    <path id="路径_3251" data-name="路径 3251" class="cls-1" d="M8.75,5a3.735,3.735,0,0,0-2.467,6.553,1.945,1.945,0,0,0-.033.323,1.874,1.874,0,0,0,3.7.41A3.74,3.74,0,0,0,8.75,5m-.625,7.5a.614.614,0,0,1-.413-.165,3.643,3.643,0,0,0,.621.122.615.615,0,0,1-.209.042m1.66-1.481a1.854,1.854,0,0,0-2.86-.574,2.5,2.5,0,1,1,2.86.574" transform="translate(1.25 1.251)"/>
    <path id="路径_3252" data-name="路径 3252" class="cls-1" d="M17.5,0H2.5A2.5,2.5,0,0,0,0,2.5v15A2.5,2.5,0,0,0,2.5,20h15A2.5,2.5,0,0,0,20,17.5V2.5A2.5,2.5,0,0,0,17.5,0m1.224,17.515a1.252,1.252,0,0,1-1.25,1.25h-15a1.252,1.252,0,0,1-1.25-1.25v-15a1.252,1.252,0,0,1,1.25-1.25h15a1.252,1.252,0,0,1,1.25,1.25Z"/>
  </g>
</svg>
