<svg id="弱口令检查" xmlns="http://www.w3.org/2000/svg" xmlns:xlink="http://www.w3.org/1999/xlink" width="20" height="20" viewBox="0 0 20 20">
  <defs>
    <style>
      .cls-1 {
        fill: #fff;
      }

      .cls-2 {
        clip-path: url(#clip-path);
      }
    </style>
    <clipPath id="clip-path">
      <rect id="矩形_1249" data-name="矩形 1249" class="cls-1" width="20" height="20"/>
    </clipPath>
  </defs>
  <g id="组_1290" data-name="组 1290" class="cls-2">
    <path id="路径_3755" data-name="路径 3755" class="cls-1" d="M17.5,0H2.5A2.5,2.5,0,0,0,0,2.5v15A2.5,2.5,0,0,0,2.5,20h15A2.5,2.5,0,0,0,20,17.5V2.5A2.5,2.5,0,0,0,17.5,0M1.25,2.5A1.252,1.252,0,0,1,2.5,1.25h15A1.252,1.252,0,0,1,18.75,2.5V4.983H1.25Zm0,3.733h17.5v7.5H1.25ZM18.75,17.5a1.252,1.252,0,0,1-1.25,1.25H2.5A1.252,1.252,0,0,1,1.25,17.5V14.983h17.5Z"/>
    <path id="路径_3756" data-name="路径 3756" class="cls-1" d="M6.052,7.406a11.772,11.772,0,0,0-1.585.645q.135-1,.155-1.665H3.648q.008.456.135,1.671a10.4,10.4,0,0,0-1.551-.651l-.309.954q.778.208,1.645.375A13.81,13.81,0,0,0,2.453,10l.793.57a10.766,10.766,0,0,0,.873-1.444,16.634,16.634,0,0,0,.92,1.444l.8-.57a11.293,11.293,0,0,0-1.154-1.27A8.373,8.373,0,0,0,6.36,8.36Z" transform="translate(0.481 1.597)"/>
    <path id="路径_3757" data-name="路径 3757" class="cls-1" d="M10.333,7.406a11.772,11.772,0,0,0-1.585.645q.135-1,.155-1.665H7.929q.007.456.135,1.671a10.4,10.4,0,0,0-1.551-.651L6.2,8.36q.778.208,1.645.375A13.81,13.81,0,0,0,6.734,10l.793.57A10.766,10.766,0,0,0,8.4,9.131a16.635,16.635,0,0,0,.92,1.444l.805-.57A11.293,11.293,0,0,0,8.97,8.735a8.373,8.373,0,0,0,1.671-.375Z" transform="translate(1.551 1.597)"/>
    <path id="路径_3758" data-name="路径 3758" class="cls-1" d="M14.614,7.406a11.792,11.792,0,0,0-1.586.645c.091-.668.141-1.223.156-1.665H12.21c0,.3.05.861.134,1.671a10.337,10.337,0,0,0-1.551-.651l-.309.954c.519.139,1.069.264,1.645.375A14.008,14.008,0,0,0,11.014,10l.794.57a10.781,10.781,0,0,0,.871-1.444,16.941,16.941,0,0,0,.92,1.444L14.4,10a11.312,11.312,0,0,0-1.153-1.27,8.393,8.393,0,0,0,1.671-.375Z" transform="translate(2.621 1.597)"/>
  </g>
</svg>
