<svg xmlns="http://www.w3.org/2000/svg" xmlns:xlink="http://www.w3.org/1999/xlink" width="16" height="16" viewBox="0 0 16 16"><defs><style>.a{fill:#a1a1a1;}.b{clip-path:url(#a);}</style><clipPath id="a"><rect class="a" width="16" height="16"/></clipPath></defs><g transform="translate(0 0)"><g class="b" transform="translate(0 0)"><path class="a" d="M14,0H2A2,2,0,0,0,0,2V14a2,2,0,0,0,2,2H14a2,2,0,0,0,2-2V2a2,2,0,0,0-2-2m1,14a1,1,0,0,1-1,1H2a1,1,0,0,1-1-1V2A1,1,0,0,1,2,1H14a1,1,0,0,1,1,1Z" transform="translate(0 0)"/><path class="a" d="M5.5,5.014h5a.5.5,0,1,0,0-1h-5a.5.5,0,1,0,0,1" transform="translate(0 -0.002)"/><path class="a" d="M10.5,12.014h-5a.5.5,0,1,0,0,1h5a.5.5,0,1,0,0-1" transform="translate(0 -0.006)"/><path class="a" d="M12.5,8.014h-9a.5.5,0,1,0,0,1h9a.5.5,0,1,0,0-1" transform="translate(0 -0.004)"/></g></g></svg>