<svg xmlns="http://www.w3.org/2000/svg" xmlns:xlink="http://www.w3.org/1999/xlink" width="16" height="16" viewBox="0 0 16 16"><defs><style>.a{fill:#12c189;}.b{clip-path:url(#a);}</style><clipPath id="a"><rect class="a" width="16" height="16"/></clipPath></defs><g transform="translate(0 0)"><g class="b" transform="translate(0 0)"><path class="a" d="M15.453,4.54,10.446.356A1.526,1.526,0,0,0,9.467,0H1.527A1.527,1.527,0,0,0,0,1.526V14.474A1.527,1.527,0,0,0,1.527,16H14.473A1.527,1.527,0,0,0,16,14.474V5.711a1.528,1.528,0,0,0-.547-1.171M15,14.474a.527.527,0,0,1-.527.527H1.527A.527.527,0,0,1,1,14.474V1.526A.528.528,0,0,1,1.527,1h7.94a.53.53,0,0,1,.338.123l5.006,4.185a.524.524,0,0,1,.189.4Z" transform="translate(0 0)"/><path class="a" d="M3.521,4.014h-1a.5.5,0,0,0-.5.5v8a.5.5,0,0,0,.5.5h1a.5.5,0,0,0,.5-.5v-8a.5.5,0,0,0-.5-.5" transform="translate(0 -0.002)"/><path class="a" d="M5.521,4.014a.5.5,0,0,0-.5.5v8a.5.5,0,0,0,1,0v-8a.5.5,0,0,0-.5-.5" transform="translate(0 -0.002)"/><path class="a" d="M7.521,4.014a.5.5,0,0,0-.5.5v8a.5.5,0,0,0,1,0v-8a.5.5,0,0,0-.5-.5" transform="translate(0 -0.002)"/><path class="a" d="M10.521,4.014h-1a.5.5,0,0,0-.5.5v8a.5.5,0,0,0,.5.5h1a.5.5,0,0,0,.5-.5v-8a.5.5,0,0,0-.5-.5" transform="translate(0 -0.002)"/><path class="a" d="M12.521,4.014a.5.5,0,0,0-.5.5v8a.5.5,0,0,0,1,0v-8a.5.5,0,0,0-.5-.5" transform="translate(0 -0.002)"/></g></g></svg>