<svg xmlns="http://www.w3.org/2000/svg" xmlns:xlink="http://www.w3.org/1999/xlink" width="16" height="16" viewBox="0 0 16 16"><defs><style>.a{fill:#a1a1a1;}.b{clip-path:url(#a);}</style><clipPath id="a"><rect class="a" width="16" height="16"/></clipPath></defs><g transform="translate(0 0)"><g class="b" transform="translate(0 0)"><path class="a" d="M14,0H2A2,2,0,0,0,0,2V14a2,2,0,0,0,2,2H14a2,2,0,0,0,2-2V2a2,2,0,0,0-2-2m1,14a1,1,0,0,1-1,1H2a1,1,0,0,1-1-1V12H9.979a4.5,4.5,0,0,0-2.8-4.163,2.222,2.222,0,0,1-3.4,0A4.492,4.492,0,0,0,1,11.728V2A1,1,0,0,1,2,1H14a1,1,0,0,1,1,1ZM2.124,11a3.481,3.481,0,0,1,1.5-1.965,3.207,3.207,0,0,0,3.715,0A3.481,3.481,0,0,1,8.835,11Z" transform="translate(0 0)"/><path class="a" d="M5.479,3.007a2.249,2.249,0,1,0,2.25,2.249,2.249,2.249,0,0,0-2.25-2.249m0,3.5a1.249,1.249,0,1,1,1.25-1.249,1.251,1.251,0,0,1-1.25,1.249" transform="translate(0 -0.001)"/><path class="a" d="M13.479,4.007h-4a.5.5,0,1,0,0,1h4a.5.5,0,1,0,0-1" transform="translate(0 -0.002)"/><path class="a" d="M13.479,7.007h-4a.5.5,0,1,0,0,1h4a.5.5,0,1,0,0-1" transform="translate(0 -0.003)"/><path class="a" d="M13.479,10.007h-3a.5.5,0,1,0,0,1h3a.5.5,0,1,0,0-1" transform="translate(0 -0.005)"/></g></g></svg>