<svg xmlns="http://www.w3.org/2000/svg" xmlns:xlink="http://www.w3.org/1999/xlink" width="16" height="16" viewBox="0 0 16 16"><defs><style>.a{fill:#a1a1a1;}.b{clip-path:url(#a);}</style><clipPath id="a"><rect class="a" width="16" height="16"/></clipPath></defs><g class="b"><path class="a" d="M14,0H2A2,2,0,0,0,0,2v9a2,2,0,0,0,2,2H14a2,2,0,0,0,2-2V2a2,2,0,0,0-2-2m1,11a1,1,0,0,1-1,1H2a1,1,0,0,1-1-1V2A1,1,0,0,1,2,1H14a1,1,0,0,1,1,1Z"/><path class="a" d="M12.5,15h-9a.5.5,0,0,0,0,1h9a.5.5,0,0,0,0-1"/><rect class="a" width="0.947" height="7.158" transform="translate(4.573 2.933)"/><path class="a" d="M11.863,3.336A2.142,2.142,0,0,0,10.98,3a6.576,6.576,0,0,0-1.089-.069H7.19v7.159h.948V7.181H9.974a2.788,2.788,0,0,0,2.1-.632A2.2,2.2,0,0,0,12.654,5a2.194,2.194,0,0,0-.217-.977,1.749,1.749,0,0,0-.574-.69m-.571,2.658a1.957,1.957,0,0,1-1.3.342H8.138V3.777H9.969a4.068,4.068,0,0,1,.884.064,1.06,1.06,0,0,1,.6.423,1.292,1.292,0,0,1,.227.768,1.218,1.218,0,0,1-.386.962"/></g></svg>