<svg xmlns="http://www.w3.org/2000/svg" xmlns:xlink="http://www.w3.org/1999/xlink" width="16" height="16" viewBox="0 0 16 16"><defs><style>.a{fill:#a1a1a1;}.b{clip-path:url(#a);}</style><clipPath id="a"><rect class="a" width="16" height="16"/></clipPath></defs><g transform="translate(0 0)"><g class="b" transform="translate(0 0)"><path class="a" d="M14,0H2A2,2,0,0,0,0,2V14a2,2,0,0,0,2,2H14a2,2,0,0,0,2-2V2a2,2,0,0,0-2-2m1,14a1,1,0,0,1-1,1H2a1,1,0,0,1-1-1V2A1,1,0,0,1,2,1H14a1,1,0,0,1,1,1Z" transform="translate(0 0)"/><path class="a" d="M12.167,6.856a.5.5,0,0,0,.707,0l1-1a.5.5,0,0,0,0-.707l-1-1a.5.5,0,0,0-.707.707L12.314,5H9.649A1.947,1.947,0,0,0,8.02,6.051,1.944,1.944,0,0,0,6.392,5H2.02V6H6.392c.533,0,1.128.8,1.128,1.941v.114C7.52,9.2,6.925,10,6.392,10H2.02v1H6.392A1.945,1.945,0,0,0,8.02,9.952,1.948,1.948,0,0,0,9.649,11h2.664l-.146.146a.5.5,0,0,0,.707.707l1-1a.5.5,0,0,0,0-.707l-1-1a.5.5,0,0,0-.707.707l.147.147H9.649C9.115,10,8.52,9.2,8.52,8.058V7.944C8.52,6.8,9.115,6,9.649,6h2.664l-.146.146a.5.5,0,0,0,0,.707" transform="translate(0 -0.002)"/></g></g></svg>