<svg xmlns="http://www.w3.org/2000/svg" xmlns:xlink="http://www.w3.org/1999/xlink" width="16" height="16" viewBox="0 0 16 16"><defs><style>.a{fill:#a1a1a1;}.b{clip-path:url(#a);}</style><clipPath id="a"><rect class="a" width="16" height="16"/></clipPath></defs><g transform="translate(0 0)"><g class="b" transform="translate(0 0)"><path class="a" d="M6.5,2.01h-3a.5.5,0,0,0-.5.5v2a.5.5,0,0,0,.5.5h3a.5.5,0,0,0,.5-.5v-2a.5.5,0,0,0-.5-.5m-.5,2H4v-1H6Z" transform="translate(0 -0.001)"/><path class="a" d="M12.5,2.01h-3a.5.5,0,0,0-.5.5v2a.5.5,0,0,0,.5.5h3a.5.5,0,0,0,.5-.5v-2a.5.5,0,0,0-.5-.5m-.5,2H10v-1h2Z" transform="translate(0 -0.001)"/><path class="a" d="M6.5,11.01h-3a.5.5,0,0,0-.5.5v2a.5.5,0,0,0,.5.5h3a.5.5,0,0,0,.5-.5v-2a.5.5,0,0,0-.5-.5m-.5,2H4v-1H6Z" transform="translate(0 -0.005)"/><path class="a" d="M12.5,11.01h-3a.5.5,0,0,0-.5.5v2a.5.5,0,0,0,.5.5h3a.5.5,0,0,0,.5-.5v-2a.5.5,0,0,0-.5-.5m-.5,2H10v-1h2Z" transform="translate(0 -0.005)"/><path class="a" d="M14,0H2A2,2,0,0,0,0,2V5.005A2,2,0,0,0,2,7H14a2,2,0,0,0,2-2V2a2,2,0,0,0-2-2m1,5.005a1,1,0,0,1-1,1H2a1,1,0,0,1-1-1V2A1,1,0,0,1,2,1H14a1,1,0,0,1,1,1Z" transform="translate(0 0)"/><path class="a" d="M14,9H2a2,2,0,0,0-2,2v3.006a2,2,0,0,0,2,2H14a2,2,0,0,0,2-2V11a2,2,0,0,0-2-2m1,5.005a1,1,0,0,1-1,1H2a1,1,0,0,1-1-1V11a1,1,0,0,1,1-1H14a1,1,0,0,1,1,1Z" transform="translate(0 -0.004)"/></g></g></svg>