<svg xmlns="http://www.w3.org/2000/svg" xmlns:xlink="http://www.w3.org/1999/xlink" width="16" height="16" viewBox="0 0 16 16"><defs><style>.a{fill:#12c189;}.b{clip-path:url(#a);}</style><clipPath id="a"><rect class="a" width="16" height="16" transform="translate(0 0)"/></clipPath></defs><g transform="translate(0 0)"><g class="b"><path class="a" d="M11.146,8.146,7.035,12.261,4.846,10.14a.5.5,0,1,0-.7.719l2.895,2.807,4.807-4.813a.5.5,0,0,0-.707-.707"/><path class="a" d="M14,0H2A2,2,0,0,0,0,2V14a2,2,0,0,0,2,2H14a2,2,0,0,0,2-2V2a2,2,0,0,0-2-2m1,14a1,1,0,0,1-1,1H2a1,1,0,0,1-1-1V2A1,1,0,0,1,2,1H14a1,1,0,0,1,1,1Z"/><path class="a" d="M12.2,5.147,10.214,3.026a.447.447,0,0,0-.663,0,.524.524,0,0,0,0,.707L10.74,5H3.559a.5.5,0,0,0,0,1h8.313a.451.451,0,0,0,.179-.039.487.487,0,0,0,.253-.27.517.517,0,0,0,.036-.19h0a.527.527,0,0,0-.036-.192.509.509,0,0,0-.1-.162"/></g></g></svg>