<svg xmlns="http://www.w3.org/2000/svg" xmlns:xlink="http://www.w3.org/1999/xlink" width="16" height="16" viewBox="0 0 16 16"><defs><style>.a{fill:#a1a1a1;}.b{clip-path:url(#a);}</style><clipPath id="a"><rect class="a" width="16" height="16"/></clipPath></defs><g class="b"><path class="a" d="M6,6H1V1H6ZM6,0H1A1,1,0,0,0,0,1V6A1,1,0,0,0,1,7H6A1,1,0,0,0,7,6V1A1,1,0,0,0,6,0"/><path class="a" d="M6,15H1V10H6ZM6,9H1a1,1,0,0,0-1,1v5a1,1,0,0,0,1,1H6a1,1,0,0,0,1-1V10A1,1,0,0,0,6,9"/><path class="a" d="M15,6H10V1h5Zm0-6H10A1,1,0,0,0,9,1V6a1,1,0,0,0,1,1h5a1,1,0,0,0,1-1V1a1,1,0,0,0-1-1"/><path class="a" d="M15,15H10V10h5Zm0-6H10a1,1,0,0,0-1,1v5a1,1,0,0,0,1,1h5a1,1,0,0,0,1-1V10a1,1,0,0,0-1-1"/></g></svg>