<svg xmlns="http://www.w3.org/2000/svg" xmlns:xlink="http://www.w3.org/1999/xlink" width="16" height="16" viewBox="0 0 16 16"><defs><style>.a{fill:#a1a1a1;}.b{clip-path:url(#a);}</style><clipPath id="a"><rect class="a" width="16" height="16" transform="translate(0 0)"/></clipPath></defs><g transform="translate(0 0)"><g class="b"><path class="a" d="M8.5,15H2.25A1.252,1.252,0,0,1,1,13.75V8.564A.437.437,0,0,0,1.437,9H6.562A.438.438,0,0,0,7,8.563V8.438A.438.438,0,0,0,6.562,8H1.437A.438.438,0,0,0,1,8.438V8.5a.5.5,0,0,0-1,0v5.25A2.253,2.253,0,0,0,2.25,16H8.5a.5.5,0,0,0,0-1"/><path class="a" d="M13.75,0H9.5a.5.5,0,0,0,0,1h4.25A1.233,1.233,0,0,1,15,2.212V6.5a.5.5,0,0,0,1,0V2.212A2.233,2.233,0,0,0,13.75,0"/><path class="a" d="M1,7H7A1,1,0,0,0,8,6V1A1,1,0,0,0,7,0H1A1,1,0,0,0,0,1V6A1,1,0,0,0,1,7M1,1H7V6H1Z"/><path class="a" d="M15,8H10A1,1,0,0,0,9,9v4a1,1,0,0,0,1,1h5a1,1,0,0,0,1-1V9a1,1,0,0,0-1-1m0,5H10V9h5Z"/><path class="a" d="M14.563,15H10.438a.437.437,0,0,0-.438.437v.125a.437.437,0,0,0,.438.438h4.125A.437.437,0,0,0,15,15.562v-.125A.437.437,0,0,0,14.563,15"/></g></g></svg>