<svg id="删除" xmlns="http://www.w3.org/2000/svg" xmlns:xlink="http://www.w3.org/1999/xlink" width="16" height="16" viewBox="0 0 16 16">
  <defs>
    <style>
      .cls-1 {
        clip-path: url(#clip-path);
      }
    </style>
    <clipPath id="clip-path">
      <rect id="矩形_861" data-name="矩形 861" width="16" height="16"/>
    </clipPath>
  </defs>
  <g id="组_906" data-name="组 906" class="cls-1">
    <path id="路径_3287" data-name="路径 3287" d="M14.508,4a.461.461,0,0,0-.492.423v9.314a1.547,1.547,0,0,1-1.647,1.417H3.632a1.548,1.548,0,0,1-1.649-1.417V4.423A.461.461,0,0,0,1.492,4,.461.461,0,0,0,1,4.423v9.314A2.471,2.471,0,0,0,3.632,16h8.737A2.471,2.471,0,0,0,15,13.737V4.423A.461.461,0,0,0,14.508,4"/>
    <path id="路径_3288" data-name="路径 3288" d="M5.984,13.445V4.48a.5.5,0,1,0-1,0v8.965a.5.5,0,1,0,1,0"/>
    <path id="路径_3289" data-name="路径 3289" d="M10.984,13.445V4.48a.5.5,0,1,0-1,0v8.965a.5.5,0,1,0,1,0"/>
    <path id="路径_3290" data-name="路径 3290" d="M15.546,2H.454A.479.479,0,0,0,0,2.5.479.479,0,0,0,.454,3H15.546A.479.479,0,0,0,16,2.5a.479.479,0,0,0-.454-.5"/>
    <path id="路径_3291" data-name="路径 3291" d="M4.534,1h6.931A.518.518,0,0,0,12,.5a.518.518,0,0,0-.535-.5H4.534A.518.518,0,0,0,4,.5a.518.518,0,0,0,.534.5"/>
  </g>
</svg>
