<svg xmlns="http://www.w3.org/2000/svg" xmlns:xlink="http://www.w3.org/1999/xlink" width="16" height="16" viewBox="0 0 16 16">
  <defs>
    <style>
      .cls-1 {
        fill: #12c189;
      }

      .cls-2 {
        fill: none;
      }

      .cls-3 {
        clip-path: url(#clip-path);
      }
    </style>
    <clipPath id="clip-path">
      <rect id="矩形_927" data-name="矩形 927" class="cls-1" width="14" height="14"/>
    </clipPath>
  </defs>
  <g id="内存" transform="translate(1 1)">
    <rect id="矩形_928" data-name="矩形 928" class="cls-2" width="16" height="16" transform="translate(-1 -1)"/>
    <g id="组_979" data-name="组 979" class="cls-3">
      <path id="路径_3408" data-name="路径 3408" class="cls-1" d="M12.343,3h1.314A.344.344,0,0,0,14,2.657V.343A.344.344,0,0,0,13.657,0H.343A.343.343,0,0,0,0,.343V2.657A.343.343,0,0,0,.343,3H1.657A.344.344,0,0,1,2,3.343V5.657A.344.344,0,0,1,1.657,6H.343A.343.343,0,0,0,0,6.343v7.314A.343.343,0,0,0,.343,14H2.657A.344.344,0,0,0,3,13.657V11.343A.343.343,0,0,1,3.343,11H4.657A.344.344,0,0,1,5,11.343v2.314A.343.343,0,0,0,5.343,14h8.314A.344.344,0,0,0,14,13.657V6.343A.344.344,0,0,0,13.657,6H12.343A.343.343,0,0,1,12,5.657V3.343A.343.343,0,0,1,12.343,3m0,4H13v6H11V10.5a.5.5,0,0,0-1,0V13H9V10.5a.5.5,0,0,0-1,0V13H6V11.343A1.345,1.345,0,0,0,4.657,10H3.343A1.345,1.345,0,0,0,2,11.343V13H1V7h.657A1.345,1.345,0,0,0,3,5.657V3.343A1.345,1.345,0,0,0,1.657,2H1V1H13V2h-.657A1.345,1.345,0,0,0,11,3.343V5.657A1.345,1.345,0,0,0,12.343,7"/>
      <path id="路径_3409" data-name="路径 3409" class="cls-1" d="M9,3H5A1,1,0,0,0,4,4V7A1,1,0,0,0,5,8H9a1,1,0,0,0,1-1V4A1,1,0,0,0,9,3M9,7H5V4H9Z"/>
    </g>
  </g>
</svg>
