<svg xmlns="http://www.w3.org/2000/svg" xmlns:xlink="http://www.w3.org/1999/xlink" width="16" height="16.009" viewBox="0 0 16 16.009"><defs><style>.a{fill:#12c189;}.b{clip-path:url(#a);}</style><clipPath id="a"><rect class="a" width="16" height="16.009" transform="translate(0 0)"/></clipPath></defs><g transform="translate(0 0)"><g class="b"><path class="a" d="M5.186,8H8c.005-.083.008-.166.008-.25a3.79,3.79,0,0,0-2.84-3.589,2.25,2.25,0,1,0-2.339.005A3.789,3.789,0,0,0,.008,7.75c0,.084,0,.167.009.25Z"/><path class="a" d="M12.452,11.206a2.811,2.811,0,1,0-2.92.006,4.786,4.786,0,0,0-3.464,3.8H4v-2.5c0-.016-.008-.028-.009-.043a.5.5,0,0,0-.02-.1.486.486,0,0,0-.038-.091.307.307,0,0,0-.017-.042c-.008-.012-.021-.016-.029-.026a.474.474,0,0,0-.122-.11.55.55,0,0,0-.05-.034.456.456,0,0,0-.464.022c-.009.005-.02,0-.029.009l-3,3c-.013.009-.02.023-.032.033a.465.465,0,0,0-.074.073.63.63,0,0,0-.051.076.524.524,0,0,0-.036.088.483.483,0,0,0-.02.1c0,.016-.009.03-.009.047a.312.312,0,0,0,.009.044.472.472,0,0,0,.019.1.455.455,0,0,0,.039.094.356.356,0,0,0,.017.041c.009.014.023.021.033.033a.458.458,0,0,0,.073.073.459.459,0,0,0,.076.051.4.4,0,0,0,.088.036.47.47,0,0,0,.1.02.356.356,0,0,0,.047.01h8c.016,0,.029-.008.045-.009h7.444c.007-.1.011-.207.011-.312a4.735,4.735,0,0,0-3.548-4.482"/><path class="a" d="M11.146,4.854a.5.5,0,0,0,.707,0l4-4a.5.5,0,0,0-.707-.707L11.5,3.793,9.353,1.647a.5.5,0,0,0-.707.707Z"/></g></g></svg>