<svg xmlns="http://www.w3.org/2000/svg" xmlns:xlink="http://www.w3.org/1999/xlink" width="16" height="16" viewBox="0 0 16 16"><defs><style>.a{fill:#12c189;}.b{clip-path:url(#a);}</style><clipPath id="a"><rect class="a" width="16" height="16"/></clipPath></defs><g class="b"><path class="a" d="M14.442,0H0V1H.243L4.436,6.87a.5.5,0,0,1,.093.29V12.5a.5.5,0,0,0,.5.5l4,3a.5.5,0,0,0,.5-.5V7.185a.5.5,0,0,1,.12-.325L14.822.826A.5.5,0,0,0,14.442,0M8.89,6.209a1.5,1.5,0,0,0-.361.976v7.19L5.629,12.2a1.079,1.079,0,0,0-.1-.066V7.16a1.5,1.5,0,0,0-.279-.872L1.472,1H13.355Z"/><path class="a" d="M10,7.5a.5.5,0,0,0,.5.5h5a.5.5,0,0,0,0-1h-5a.5.5,0,0,0-.5.5"/><path class="a" d="M15.5,10h-5a.5.5,0,0,0,0,1h5a.5.5,0,0,0,0-1"/><path class="a" d="M15.5,13h-5a.5.5,0,0,0,0,1h5a.5.5,0,0,0,0-1"/></g></svg>