<svg xmlns="http://www.w3.org/2000/svg" xmlns:xlink="http://www.w3.org/1999/xlink" width="16" height="16" viewBox="0 0 16 16"><defs><style>.a{fill:#12c189;}.b{clip-path:url(#a);}</style><clipPath id="a"><rect class="a" width="16" height="16" transform="translate(0 0)"/></clipPath></defs><g transform="translate(0 0)"><g class="b"><path class="a" d="M15.25,15a.75.75,0,0,0,.53-1.28L14.061,12l1.719-1.72a.75.75,0,0,0-1.06-1.06L13,10.939,11.28,9.22a.75.75,0,0,0-1.06,1.06L11.939,12,10.22,13.72a.75.75,0,1,0,1.06,1.06L13,13.061l1.72,1.719a.744.744,0,0,0,.53.22"/><path class="a" d="M7.979,12a4,4,0,0,1,2.394-3.659c-.019-.006-.035-.015-.054-.02a4.5,4.5,0,1,0-4.677.009A7.58,7.58,0,0,0,0,15.5c0,.168.006.334.017.5H11.966a4,4,0,0,1-3.987-4"/></g></g></svg>