<svg xmlns="http://www.w3.org/2000/svg" xmlns:xlink="http://www.w3.org/1999/xlink" width="16" height="16" viewBox="0 0 16 16"><defs><style>.a{fill:#12c189;}.b{clip-path:url(#a);}</style><clipPath id="a"><rect class="a" width="16" height="16"/></clipPath></defs><g class="b"><path class="a" d="M7,15a10.063,10.063,0,0,1-4.114-2.013C1,11.491,1,10.323,1,10.323L1,10.264V10.2L.989,5.711A9.018,9.018,0,0,0,6.708,8.383q.148.006.3.006A8.781,8.781,0,0,0,13,5.688c0,.5,0,.764,0,1.312h0v.5a.5.5,0,0,0,1,0v-1c0-.007,0-.013,0-.02,0-1.373-.012-2.242-.021-3.588a.986.986,0,0,0-.943-.98A10.053,10.053,0,0,1,7.47.192.9.9,0,0,0,6.907,0a1,1,0,0,0-.5.133A14.164,14.164,0,0,1,.892,1.943.987.987,0,0,0,0,2.932V10.2s-.193,1.618,2.258,3.566A11.043,11.043,0,0,0,6.8,15.982.985.985,0,0,0,6.991,16a1,1,0,0,0,.208-.022,9.92,9.92,0,0,0,4.415-2.141l-.682-.731A8.952,8.952,0,0,1,7,15M6.892,1.01A10.958,10.958,0,0,0,12.976,2.9c.005.672.008,1.187.011,1.6a.5.5,0,0,0-.34.144c-1.9,1.9-3.877,2.817-5.889,2.737A8.362,8.362,0,0,1,1.384,4.677a.489.489,0,0,0-.4-.167l0-1.571A15.114,15.114,0,0,0,6.892,1.01"/><path class="a" d="M12,9.5a.5.5,0,0,0,.5.5h3a.5.5,0,0,0,0-1h-3a.5.5,0,0,0-.5.5"/><path class="a" d="M15.5,12h-3a.5.5,0,0,0,0,1h3a.5.5,0,0,0,0-1"/><path class="a" d="M15.5,15h-3a.5.5,0,0,0,0,1h3a.5.5,0,0,0,0-1"/></g></svg>