<svg xmlns="http://www.w3.org/2000/svg" xmlns:xlink="http://www.w3.org/1999/xlink" width="16" height="16" viewBox="0 0 16 16"><defs><style>.a{fill:#a1a1a1;}.b{clip-path:url(#a);}</style><clipPath id="a"><rect class="a" width="16" height="16"/></clipPath></defs><g class="b"><path class="a" d="M9,14.342A10.654,10.654,0,0,1,7,15a10.063,10.063,0,0,1-4.114-2.013C1,11.491,1,10.323,1,10.323L1,10.264V10.2L.989,5.711A9.023,9.023,0,0,0,6.708,8.384c.1,0,.2.005.3.005A8.777,8.777,0,0,0,13,5.686c0,.082,0,.182,0,.314h0v.5a.5.5,0,0,0,1,0v-1c0-.007,0-.012,0-.019,0-1.17-.012-1.255-.021-2.589a.986.986,0,0,0-.943-.98A10.053,10.053,0,0,1,7.47.192.9.9,0,0,0,6.907,0a1,1,0,0,0-.5.133A14.164,14.164,0,0,1,.892,1.943.987.987,0,0,0,0,2.932V10.2s-.193,1.618,2.258,3.566A11.043,11.043,0,0,0,6.8,15.982.985.985,0,0,0,6.991,16a1,1,0,0,0,.208-.022A11.464,11.464,0,0,0,9,15.425ZM6.892,1.01A10.958,10.958,0,0,0,12.976,2.9c.005.755.009,1.257.013,1.6a.5.5,0,0,0-.342.144c-1.9,1.9-3.88,2.831-5.889,2.738A8.362,8.362,0,0,1,1.384,4.678a.491.491,0,0,0-.4-.168l0-1.571A15.114,15.114,0,0,0,6.892,1.01"/><path class="a" d="M14.056,12.443a2.5,2.5,0,1,0-3.109,0A3.436,3.436,0,0,0,9.033,16h6.936a3.437,3.437,0,0,0-1.913-3.557M12.5,9A1.5,1.5,0,1,1,11,10.5,1.5,1.5,0,0,1,12.5,9m-2.58,6.125a2.621,2.621,0,0,1,2.254-2.158A2.5,2.5,0,0,0,12.5,13a2.515,2.515,0,0,0,.327-.033,2.62,2.62,0,0,1,2.253,2.158Z"/></g></svg>