<svg xmlns="http://www.w3.org/2000/svg" xmlns:xlink="http://www.w3.org/1999/xlink" width="16" height="16" viewBox="0 0 16 16"><defs><style>.a{fill:#12c189;}.b{clip-path:url(#a);}</style><clipPath id="a"><rect class="a" width="16" height="16" transform="translate(0 0)"/></clipPath></defs><g transform="translate(0 0)"><g class="b"><path class="a" d="M14,0H4A2,2,0,0,0,2,2,2,2,0,0,0,0,4v8a2,2,0,0,0,2,2H12a2,2,0,0,0,2-2,2,2,0,0,0,2-2V2a2,2,0,0,0-2-2M9.4,12H3.069A3.936,3.936,0,0,1,7,9a3.934,3.934,0,0,1,3.93,3ZM5,6A2,2,0,1,1,7,8,2,2,0,0,1,5,6m10,4a1,1,0,0,1-1,1V4a2,2,0,0,0-2-2H3A1,1,0,0,1,4,1H14a1,1,0,0,1,1,1Z"/><path class="a" d="M10.021,16h-6a1,1,0,1,1,0-2h6a1,1,0,0,1,0,2"/></g></g></svg>