<svg xmlns="http://www.w3.org/2000/svg" xmlns:xlink="http://www.w3.org/1999/xlink" width="16" height="16" viewBox="0 0 16 16"><defs><style>.a{fill:#404040;}.b{clip-path:url(#a);}</style><clipPath id="a"><rect class="a" width="16" height="16"/></clipPath></defs><g class="b"><path class="a" d="M8.029,16A8,8,0,1,1,16,7a.5.5,0,0,1-.172.442.5.5,0,0,1-.466.1L8.831,5.668a.5.5,0,1,1,.278-.961l5.752,1.652A7.023,7.023,0,1,0,8.029,15a7.059,7.059,0,0,0,6.086-3.5.5.5,0,0,1,.868.5,8.064,8.064,0,0,1-6.954,4"/></g></svg>