<svg xmlns="http://www.w3.org/2000/svg" xmlns:xlink="http://www.w3.org/1999/xlink" width="16" height="16" viewBox="0 0 16 16"><defs><style>.a{fill:#12c189;}.b{clip-path:url(#a);}</style><clipPath id="a"><rect class="a" width="16" height="16"/></clipPath></defs><g class="b"><path class="a" d="M12.449,11.2a2.813,2.813,0,1,0-2.923.006A4.791,4.791,0,0,0,6.06,15H4V12.5c0-.015-.008-.028-.009-.043a.5.5,0,0,0-.02-.1.486.486,0,0,0-.038-.091.307.307,0,0,0-.017-.042c-.008-.012-.02-.016-.029-.026a.474.474,0,0,0-.122-.11.55.55,0,0,0-.05-.034.454.454,0,0,0-.463.022c-.01.005-.021,0-.03.009l-3,3c-.013.009-.02.023-.032.033a.471.471,0,0,0-.074.074.55.55,0,0,0-.051.075.524.524,0,0,0-.036.088.483.483,0,0,0-.02.1c0,.016-.009.03-.009.047a.358.358,0,0,0,.009.045.537.537,0,0,0,.019.1.455.455,0,0,0,.039.094.356.356,0,0,0,.017.041c.009.014.023.021.033.033a.458.458,0,0,0,.073.073.459.459,0,0,0,.076.051.4.4,0,0,0,.088.036.47.47,0,0,0,.1.02A.356.356,0,0,0,.5,16H15.989c.007-.1.011-.208.011-.313A4.739,4.739,0,0,0,12.449,11.2"/><path class="a" d="M5.178,8H7.992C8,7.917,8,7.834,8,7.75A3.79,3.79,0,0,0,5.16,4.161a2.25,2.25,0,1,0-2.339.005A3.789,3.789,0,0,0,0,7.75c0,.084,0,.167.009.25Z"/><path class="a" d="M7.5,1H12V3.5a.329.329,0,0,0,.009.043.492.492,0,0,0,.02.1.536.536,0,0,0,.037.092c.008.014.009.029.018.042s.02.015.028.026a.512.512,0,0,0,.122.11.565.565,0,0,0,.051.034.454.454,0,0,0,.463-.022c.009-.006.02,0,.029-.009l3-3c.014-.009.021-.023.033-.033a.426.426,0,0,0,.073-.074.444.444,0,0,0,.052-.076.513.513,0,0,0,.036-.087.481.481,0,0,0,.019-.1A.356.356,0,0,0,16,.5c0-.016-.008-.029-.009-.045a.465.465,0,0,0-.02-.1.486.486,0,0,0-.038-.094c-.007-.013-.008-.028-.017-.042S15.893.2,15.882.189A.49.49,0,0,0,15.81.117a.5.5,0,0,0-.077-.052.513.513,0,0,0-.087-.036.56.56,0,0,0-.1-.02C15.531.008,15.517,0,15.5,0h-8a.5.5,0,0,0,0,1"/></g></svg>