<svg xmlns="http://www.w3.org/2000/svg" xmlns:xlink="http://www.w3.org/1999/xlink" width="16" height="16" viewBox="0 0 16 16"><defs><style>.a{fill:#12c189;}.b{clip-path:url(#a);}</style><clipPath id="a"><rect class="a" width="16" height="16"/></clipPath></defs><g class="b"><path class="a" d="M12.472,4.5a4.5,4.5,0,1,0-6.9,3.792A7.2,7.2,0,0,0,0,15.063c0,.159.006.318.017.474a.5.5,0,0,0,.5.463H10.5a.5.5,0,0,0,0-1H1c.038-3.315,3.061-6,6.773-6a7.439,7.439,0,0,1,2.556.446.5.5,0,1,0,.343-.939c-.144-.053-.292-.094-.438-.138A4.487,4.487,0,0,0,12.472,4.5M7.972,8a3.5,3.5,0,1,1,3.5-3.5A3.5,3.5,0,0,1,7.972,8"/><path class="a" d="M12,9.5a.5.5,0,0,0,.5.5h3a.5.5,0,0,0,0-1h-3a.5.5,0,0,0-.5.5"/><path class="a" d="M15.5,12h-3a.5.5,0,0,0,0,1h3a.5.5,0,0,0,0-1"/><path class="a" d="M15.5,15h-3a.5.5,0,0,0,0,1h3a.5.5,0,0,0,0-1"/></g></svg>