<svg id="新增" xmlns="http://www.w3.org/2000/svg" xmlns:xlink="http://www.w3.org/1999/xlink" width="16" height="16" viewBox="0 0 16 16">
  <defs>
    <style>
      .cls-1 {
        fill: #fff;
      }

      .cls-2 {
        clip-path: url(#clip-path);
      }
    </style>
    <clipPath id="clip-path">
      <rect id="矩形_1199" data-name="矩形 1199" class="cls-1" width="16" height="16"/>
    </clipPath>
  </defs>
  <g id="组_1205" data-name="组 1205" class="cls-2">
    <path id="路径_3677" data-name="路径 3677" class="cls-1" d="M14,0H2A2,2,0,0,0,0,2V14a2,2,0,0,0,2,2H14a2,2,0,0,0,2-2V2a2,2,0,0,0-2-2m1,14a1,1,0,0,1-1,1H2a1,1,0,0,1-1-1V2A1,1,0,0,1,2,1H14a1,1,0,0,1,1,1Z"/>
    <path id="路径_3678" data-name="路径 3678" class="cls-1" d="M8.5,4h-1V7H4V8H7.5v4h1V8H12V7H8.5Z"/>
  </g>
</svg>
