<svg xmlns="http://www.w3.org/2000/svg" xmlns:xlink="http://www.w3.org/1999/xlink" width="32" height="32" viewBox="0 0 32 32">
  <defs>
    <style>
      .cls-1 {
        fill: #fff;
      }

      .cls-2 {
        clip-path: url(#clip-path);
      }
    </style>
    <clipPath id="clip-path">
      <rect id="矩形_1200" data-name="矩形 1200" class="cls-1" width="32" height="32"/>
    </clipPath>
  </defs>
  <g id="全网资产" class="cls-2">
    <path id="路径_3679" data-name="路径 3679" class="cls-1" d="M28,2a2,2,0,0,1,2,2V22a2,2,0,0,1-2,2H4a2,2,0,0,1-2-2V4A2,2,0,0,1,4,2Zm0-2H4A4,4,0,0,0,0,4V22a4,4,0,0,0,4,4H28a4,4,0,0,0,4-4V4a4,4,0,0,0-4-4"/>
    <path id="路径_3680" data-name="路径 3680" class="cls-1" d="M22,17H4a1,1,0,0,1,0-2H22a1,1,0,1,1,0,2" transform="translate(3 15)"/>
  </g>
</svg>
