<svg id="A类网段" xmlns="http://www.w3.org/2000/svg" xmlns:xlink="http://www.w3.org/1999/xlink" width="16" height="16" viewBox="0 0 16 16">
  <defs>
    <style>
      .cls-1 {
        fill: #fff;
      }

      .cls-2 {
        clip-path: url(#clip-path);
      }
    </style>
    <clipPath id="clip-path">
      <rect id="矩形_1208" data-name="矩形 1208" class="cls-1" width="16" height="16"/>
    </clipPath>
  </defs>
  <g id="组_1229" data-name="组 1229" class="cls-2">
    <path id="路径_3693" data-name="路径 3693" class="cls-1" d="M14,0H2A2,2,0,0,0,0,2V14a2,2,0,0,0,2,2H14a2,2,0,0,0,2-2V2a2,2,0,0,0-2-2m1,14a1,1,0,0,1-1,1H2a1,1,0,0,1-1-1V2A1,1,0,0,1,2,1H14a1,1,0,0,1,1,1Z"/>
    <path id="路径_3694" data-name="路径 3694" class="cls-1" d="M7.159,2.99,3.31,13.01H4.719l1.1-3.034H10.01l1.169,3.034h1.51L8.588,2.99ZM6.2,8.9,7.3,5.957a12.854,12.854,0,0,0,.54-1.915q.231.815.711,2.079L9.6,8.9Z"/>
  </g>
</svg>
