<svg id="B类网段" xmlns="http://www.w3.org/2000/svg" xmlns:xlink="http://www.w3.org/1999/xlink" width="16" height="16" viewBox="0 0 16 16">
  <defs>
    <style>
      .cls-1 {
        fill: #fff;
      }

      .cls-2 {
        clip-path: url(#clip-path);
      }
    </style>
    <clipPath id="clip-path">
      <rect id="矩形_1207" data-name="矩形 1207" class="cls-1" width="16" height="16"/>
    </clipPath>
  </defs>
  <g id="组_1227" data-name="组 1227" class="cls-2">
    <path id="路径_3691" data-name="路径 3691" class="cls-1" d="M14,0H2A2,2,0,0,0,0,2V14a2,2,0,0,0,2,2H14a2,2,0,0,0,2-2V2a2,2,0,0,0-2-2m1,14a1,1,0,0,1-1,1H2a1,1,0,0,1-1-1V2A1,1,0,0,1,2,1H14a1,1,0,0,1,1,1Z"/>
    <path id="路径_3692" data-name="路径 3692" class="cls-1" d="M9.9,7.679a2.493,2.493,0,0,0,1.052-.916,2.268,2.268,0,0,0,.349-1.21A2.469,2.469,0,0,0,10.9,4.23a2.363,2.363,0,0,0-1.087-.936,4.647,4.647,0,0,0-1.842-.3H4.216V13.011H8.037a6.712,6.712,0,0,0,1.617-.167,3.079,3.079,0,0,0,1.1-.5,2.521,2.521,0,0,0,.735-.932,2.931,2.931,0,0,0,.3-1.31,2.432,2.432,0,0,0-.489-1.517,2.61,2.61,0,0,0-1.4-.909M5.542,4.172h2a5.724,5.724,0,0,1,1.524.14,1.21,1.21,0,0,1,.684.52,1.608,1.608,0,0,1,.239.878,1.438,1.438,0,0,1-.256.875,1.407,1.407,0,0,1-.762.5A4.821,4.821,0,0,1,7.709,7.2H5.542Zm4.669,6.778a1.453,1.453,0,0,1-.506.557,2.159,2.159,0,0,1-.765.273,5.746,5.746,0,0,1-.9.048H5.542V8.383H7.859a4.893,4.893,0,0,1,1.467.168,1.5,1.5,0,0,1,.8.581,1.657,1.657,0,0,1,.287.973,1.746,1.746,0,0,1-.2.845"/>
  </g>
</svg>
