<svg id="离线" xmlns="http://www.w3.org/2000/svg" xmlns:xlink="http://www.w3.org/1999/xlink" width="16" height="16" viewBox="0 0 16 16">
  <defs>
    <style>
      .cls-1 {
        fill: #fff;
      }

      .cls-2 {
        clip-path: url(#clip-path);
      }
    </style>
    <clipPath id="clip-path">
      <rect id="矩形_1198" data-name="矩形 1198" class="cls-1" width="16" height="16"/>
    </clipPath>
  </defs>
  <g id="组_1203" data-name="组 1203" class="cls-2">
    <path id="路径_3674" data-name="路径 3674" class="cls-1" d="M14,0H2A2,2,0,0,0,0,2v9a2,2,0,0,0,2,2H14a2,2,0,0,0,2-2V2a2,2,0,0,0-2-2m1,11a1,1,0,0,1-1,1H2a1,1,0,0,1-1-1V2A1,1,0,0,1,2,1H14a1,1,0,0,1,1,1Z"/>
    <path id="路径_3675" data-name="路径 3675" class="cls-1" d="M12.5,15h-9a.5.5,0,0,0,0,1h9a.5.5,0,0,0,0-1"/>
    <path id="路径_3676" data-name="路径 3676" class="cls-1" d="M10.828,2.965,8,5.793,5.171,2.965l-.707.707L7.292,6.5,4.464,9.329l.707.707L8,7.208l2.828,2.828.707-.707L8.707,6.5l2.828-2.829Z"/>
  </g>
</svg>
