<svg id="在线" xmlns="http://www.w3.org/2000/svg" xmlns:xlink="http://www.w3.org/1999/xlink" width="16" height="16" viewBox="0 0 16 16">
  <defs>
    <style>
      .cls-1 {
        fill: #fff;
      }

      .cls-2 {
        clip-path: url(#clip-path);
      }
    </style>
    <clipPath id="clip-path">
      <rect id="矩形_1197" data-name="矩形 1197" class="cls-1" width="16" height="16"/>
    </clipPath>
  </defs>
  <g id="组_1201" data-name="组 1201" class="cls-2">
    <path id="路径_3671" data-name="路径 3671" class="cls-1" d="M14,0H2A2,2,0,0,0,0,2v9a2,2,0,0,0,2,2H14a2,2,0,0,0,2-2V2a2,2,0,0,0-2-2m1,11a1,1,0,0,1-1,1H2a1,1,0,0,1-1-1V2A1,1,0,0,1,2,1H14a1,1,0,0,1,1,1Z"/>
    <path id="路径_3672" data-name="路径 3672" class="cls-1" d="M12.5,15h-9a.5.5,0,0,0,0,1h9a.5.5,0,0,0,0-1"/>
    <path id="路径_3673" data-name="路径 3673" class="cls-1" d="M11.172,3.624,6.5,8.3,4.329,6.126a.469.469,0,0,0-.664.663l2.5,2.5a.47.47,0,0,0,.663,0l5-5a.469.469,0,1,0-.663-.663"/>
  </g>
</svg>
