<svg xmlns="http://www.w3.org/2000/svg" xmlns:xlink="http://www.w3.org/1999/xlink" width="32" height="32" viewBox="0 0 32 32">
  <defs>
    <style>
      .cls-1 {
        fill: #fff;
      }

      .cls-2 {
        clip-path: url(#clip-path);
      }
    </style>
    <clipPath id="clip-path">
      <rect id="矩形_1036" data-name="矩形 1036" class="cls-1" width="32" height="32"/>
    </clipPath>
  </defs>
  <g id="风险项" transform="translate(0 0)">
    <g id="组_1079" data-name="组 1079" class="cls-2" transform="translate(0 0)">
      <path id="路径_3489" data-name="路径 3489" class="cls-1" d="M28,0H4A4,4,0,0,0,0,4V28a4,4,0,0,0,4,4H28a4,4,0,0,0,4-4V4a4,4,0,0,0-4-4m2,28a2,2,0,0,1-2,2H4a2,2,0,0,1-2-2V4A2,2,0,0,1,4,2H28a2,2,0,0,1,2,2Z" transform="translate(0 0)"/>
      <path id="路径_3490" data-name="路径 3490" class="cls-1" d="M17.5,11H7.5l4.8-6.4a1,1,0,0,0-1.6-1.2l-6,8A1,1,0,0,0,5.5,13h9.918l-6.7,8.37a1,1,0,0,0,1.564,1.249l8-9.995A1,1,0,0,0,17.5,11" transform="translate(4.5 3.006)"/>
    </g>
  </g>
</svg>
