<svg id="重新安检未开启" xmlns="http://www.w3.org/2000/svg" xmlns:xlink="http://www.w3.org/1999/xlink" width="16" height="16" viewBox="0 0 16 16">
  <defs>
    <style>
      .cls-1 {
        fill: #a1a1a1;
      }

      .cls-2 {
        clip-path: url(#clip-path);
      }
    </style>
    <clipPath id="clip-path">
      <rect id="矩形_1229" data-name="矩形 1229" class="cls-1" width="16" height="16"/>
    </clipPath>
  </defs>
  <g id="组_1247" data-name="组 1247" class="cls-2">
    <path id="路径_3718" data-name="路径 3718" class="cls-1" d="M14.782,0H10L8,2,6,0H1.343A1.343,1.343,0,0,0,0,1.343V9.989a1.823,1.823,0,0,0,.858,1.547L8,16l7.252-4.532A1.593,1.593,0,0,0,16,10.118v-8.9A1.218,1.218,0,0,0,14.782,0M15,10.446,8,14.821,1,10.446V1H5.586L7.293,2.707,8,3.414l.707-.707L10.414,1H15Z"/>
    <path id="路径_3719" data-name="路径 3719" class="cls-1" d="M7.917,4.167a3.417,3.417,0,1,0,3.417,3.417A3.421,3.421,0,0,0,7.917,4.167m0,5.834a2.417,2.417,0,1,1,2.417-2.417A2.419,2.419,0,0,1,7.917,10"/>
    <path id="路径_3720" data-name="路径 3720" class="cls-1" d="M10.48,10.148a.5.5,0,0,0,0,.707l1.167,1.166a.5.5,0,0,0,.707-.707l-1.167-1.166a.5.5,0,0,0-.707,0"/>
  </g>
</svg>
