<svg id="安检结果未开启" xmlns="http://www.w3.org/2000/svg" xmlns:xlink="http://www.w3.org/1999/xlink" width="16" height="16" viewBox="0 0 16 16">
  <defs>
    <style>
      .cls-1 {
        fill: #a1a1a1;
      }

      .cls-2 {
        clip-path: url(#clip-path);
      }
    </style>
    <clipPath id="clip-path">
      <rect id="矩形_1232" data-name="矩形 1232" class="cls-1" width="16" height="16"/>
    </clipPath>
  </defs>
  <g id="组_1249" data-name="组 1249" class="cls-2">
    <path id="路径_3721" data-name="路径 3721" class="cls-1" d="M14,0H2A2,2,0,0,0,0,2V14a2,2,0,0,0,2,2H14a2,2,0,0,0,2-2V2a2,2,0,0,0-2-2m1,14a1,1,0,0,1-1,1H2a1,1,0,0,1-1-1V2A1,1,0,0,1,2,1H14a1,1,0,0,1,1,1Z"/>
    <rect id="矩形_1230" data-name="矩形 1230" class="cls-1" width="10" height="1" transform="translate(3 12)"/>
    <rect id="矩形_1231" data-name="矩形 1231" class="cls-1" width="10" height="1" transform="translate(3 9.997)"/>
    <path id="路径_3722" data-name="路径 3722" class="cls-1" d="M14,6.5H12.391l-.906-3.621a.5.5,0,0,0-.914-.136L8.04,6.962,6.447,3.776A.5.5,0,0,0,6.031,3.5a.478.478,0,0,0-.447.222L3.732,6.5H2a.5.5,0,0,0,0,1H4a.5.5,0,0,0,.416-.223L5.938,4.994l1.615,3.23a.5.5,0,0,0,.428.276H8a.5.5,0,0,0,.429-.243l2.379-3.965.707,2.829A.5.5,0,0,0,12,7.5h2a.5.5,0,0,0,0-1"/>
  </g>
</svg>
