<svg id="合规弹窗未开启" xmlns="http://www.w3.org/2000/svg" xmlns:xlink="http://www.w3.org/1999/xlink" width="16" height="16" viewBox="0 0 16 16">
  <defs>
    <style>
      .cls-1 {
        fill: #a1a1a1;
      }

      .cls-2 {
        clip-path: url(#clip-path);
      }
    </style>
    <clipPath id="clip-path">
      <rect id="矩形_1219" data-name="矩形 1219" class="cls-1" width="16" height="16"/>
    </clipPath>
  </defs>
  <rect id="矩形_1216" data-name="矩形 1216" class="cls-1" width="1" height="1" transform="translate(5.98 1.99)"/>
  <rect id="矩形_1217" data-name="矩形 1217" class="cls-1" width="1" height="1" transform="translate(7.979 1.99)"/>
  <g id="组_1238" data-name="组 1238">
    <g id="组_1237" data-name="组 1237" class="cls-2">
      <path id="路径_3710" data-name="路径 3710" class="cls-1" d="M14.5,0H3.5A1.5,1.5,0,0,0,2,1.5V2H1.5A1.5,1.5,0,0,0,0,3.5v11A1.5,1.5,0,0,0,1.5,16h10A1.5,1.5,0,0,0,13,14.5V14h1.5A1.5,1.5,0,0,0,16,12.5V1.5A1.5,1.5,0,0,0,14.5,0M12,14.5a.5.5,0,0,1-.5.5H1.5a.5.5,0,0,1-.5-.5V3.5A.5.5,0,0,1,1.5,3H2v9.5A1.5,1.5,0,0,0,3.5,14H12Zm3-2a.5.5,0,0,1-.5.5H3.5a.5.5,0,0,1-.5-.5V1.5A.5.5,0,0,1,3.5,1h11a.5.5,0,0,1,.5.5Z"/>
      <rect id="矩形_1218" data-name="矩形 1218" class="cls-1" width="1" height="1" transform="translate(3.979 1.99)"/>
      <path id="路径_3711" data-name="路径 3711" class="cls-1" d="M12.626,4.635,7.98,9.281,5.333,6.635a.5.5,0,1,0-.707.707L7.98,10.7l5.353-5.354a.5.5,0,0,0-.707-.707"/>
    </g>
  </g>
</svg>
