<svg xmlns="http://www.w3.org/2000/svg" xmlns:xlink="http://www.w3.org/1999/xlink" width="16" height="16" viewBox="0 0 16 16">
  <defs>
    <style>
      .cls-1 {
        fill: none;
      }

      .cls-2 {
        clip-path: url(#clip-path);
      }

      .cls-3 {
        fill: #fff;
      }

      .cls-4 {
        fill: #020204;
      }

      .cls-5 {
        fill: #d99a03;
      }

      .cls-6 {
        fill: #604405;
      }

      .cls-7 {
        fill: #f5bd0c;
      }

      .cls-8 {
        fill: #cd8907;
      }
    </style>
    <clipPath id="clip-path">
      <rect id="矩形_386" data-name="矩形 386" class="cls-1" width="14" height="16"/>
    </clipPath>
  </defs>
  <g id="Linux" transform="translate(1)">
    <rect id="矩形_389" data-name="矩形 389" class="cls-1" width="16" height="16" transform="translate(-1)"/>
    <g id="组_390" data-name="组 390" class="cls-2">
      <path id="路径_544" data-name="路径 544" class="cls-3" d="M7.234,2.394a.89.89,0,0,0-.351.417.986.986,0,0,0,.028.673,1.118,1.118,0,0,0,.414.568.776.776,0,0,0,.339.126.639.639,0,0,0,.356-.06.671.671,0,0,0,.3-.309,1.114,1.114,0,0,0,.1-.416,1.33,1.33,0,0,0-.07-.538.916.916,0,0,0-.364-.465.734.734,0,0,0-.287-.1.632.632,0,0,0-.3.033.755.755,0,0,0-.154.081"/>
      <path id="路径_545" data-name="路径 545" class="cls-4" d="M12.546,9.688A7.289,7.289,0,0,0,12.1,8.212a4.176,4.176,0,0,0-.55-1c-.231-.3-.522-.544-.749-.842-.119-.155-.221-.328-.345-.482-.05-.1-.1-.2-.148-.3-.149-.312-.285-.632-.463-.928-.027-.047-.056-.093-.086-.138-.023-.286-.054-.571-.07-.857a7.756,7.756,0,0,0-.15-1.713,2.739,2.739,0,0,0-.355-.764A2.674,2.674,0,0,0,8.493.473,2.759,2.759,0,0,0,6.956,0,2.476,2.476,0,0,0,5.792.259a2.056,2.056,0,0,0-.876.873,2.814,2.814,0,0,0-.278,1.19c-.014.4.025.805.04,1.207.016.419.008.839.044,1.256.012.135.028.269.027.4,0,.067,0,.135-.005.2l-.006.015a8.564,8.564,0,0,1-.629.89q-.24.293-.484.58a3.494,3.494,0,0,0-.531.75,5.2,5.2,0,0,0-.231.727l-.006.02a5.564,5.564,0,0,1-.336.826c-.012.024-.025.051-.037.074q-.121.239-.252.474l-.1.181a3.008,3.008,0,0,0-.168.336,1,1,0,0,0-.032.679c.01.038.022.075.035.112a2.478,2.478,0,0,0,.147.324c.025.048.053.1.08.142l.024.034c.027.045.054.089.083.133l0,.005c.032.05.066.1.1.146l0,.007q.053.07.108.141A3.661,3.661,0,0,0,3.256,13.4c-.054.091-.1.182-.157.271a4,4,0,0,0-.467.847.982.982,0,0,0-.036.475.677.677,0,0,0,.244.408.753.753,0,0,0,.3.131,1.368,1.368,0,0,0,.326.027,5.536,5.536,0,0,0,1.219-.23q.357-.09.719-.161a4.379,4.379,0,0,1,.765-.1,1.724,1.724,0,0,0,.19-.007,3.7,3.7,0,0,0,.526.019l.065,0c.046.006.091.008.137.011.309.017.618.046.923.09.27.039.537.089.8.152a6.426,6.426,0,0,0,1.254.23,1.4,1.4,0,0,0,.335-.025.758.758,0,0,0,.3-.133.683.683,0,0,0,.245-.409.982.982,0,0,0-.037-.475,3.929,3.929,0,0,0-.475-.845c-.068-.109-.131-.221-.2-.33a5.89,5.89,0,0,0,.758-1.009,1.059,1.059,0,0,0,.383-.047,1.594,1.594,0,0,0,.806-.58.865.865,0,0,0,.136-.265,1.736,1.736,0,0,0,.258-.63,3.041,3.041,0,0,0-.029-1.121"/>
      <path id="路径_546" data-name="路径 546" class="cls-3" d="M5.378,4.627a.632.632,0,0,0-.12.242,1.279,1.279,0,0,0-.035.269,2.256,2.256,0,0,1-.047.537,1.623,1.623,0,0,1-.29.5,3.025,3.025,0,0,0-.507.873,1.475,1.475,0,0,0-.059.6,6.306,6.306,0,0,0-.584,1.013,5.347,5.347,0,0,0-.475,1.688,4.146,4.146,0,0,0,.316,2.105,3.455,3.455,0,0,0,.938,1.252,3.171,3.171,0,0,0,3.435.41,5.324,5.324,0,0,0,1.167-.884,3.97,3.97,0,0,0,.592-.645,3.5,3.5,0,0,0,.494-1.574,4.943,4.943,0,0,0-.315-2.846A3.155,3.155,0,0,0,9.3,7.357a4.343,4.343,0,0,0-.377-1.214c-.133-.278-.3-.542-.419-.825-.051-.116-.1-.235-.151-.348a1.054,1.054,0,0,0-.221-.309.924.924,0,0,0-.345-.192A1.6,1.6,0,0,0,7.388,4.4c-.269-.013-.538.021-.8.01-.215-.008-.425-.043-.638-.032a1.037,1.037,0,0,0-.312.063.644.644,0,0,0-.257.178m.087-2.229a.443.443,0,0,0-.269.115.578.578,0,0,0-.156.243A1.393,1.393,0,0,0,5,3.323a1.6,1.6,0,0,0,.094.512.675.675,0,0,0,.145.219.508.508,0,0,0,.231.131.49.49,0,0,0,.252-.009.556.556,0,0,0,.215-.126.7.7,0,0,0,.183-.306,1.18,1.18,0,0,0,.042-.354,1.4,1.4,0,0,0-.071-.439.983.983,0,0,0-.234-.382.681.681,0,0,0-.18-.129.453.453,0,0,0-.218-.046m1.771,0a.89.89,0,0,0-.351.417.986.986,0,0,0,.028.673,1.118,1.118,0,0,0,.414.568.776.776,0,0,0,.339.126.639.639,0,0,0,.356-.06.671.671,0,0,0,.3-.309,1.114,1.114,0,0,0,.1-.416,1.33,1.33,0,0,0-.07-.538.916.916,0,0,0-.364-.465.734.734,0,0,0-.287-.1.632.632,0,0,0-.3.033.755.755,0,0,0-.154.081"/>
      <path id="路径_547" data-name="路径 547" class="cls-4" d="M7.594,2.846a.372.372,0,0,0-.166.052.427.427,0,0,0-.126.117.587.587,0,0,0-.1.32.643.643,0,0,0,.035.25.481.481,0,0,0,.147.207.436.436,0,0,0,.249.092.421.421,0,0,0,.256-.07.446.446,0,0,0,.141-.155.57.57,0,0,0,.064-.2.589.589,0,0,0-.06-.356.514.514,0,0,0-.277-.239A.4.4,0,0,0,7.6,2.842"/>
      <path id="路径_548" data-name="路径 548" class="cls-3" d="M5.464,2.394a.443.443,0,0,0-.269.115.578.578,0,0,0-.156.243A1.393,1.393,0,0,0,5,3.323a1.6,1.6,0,0,0,.094.512.688.688,0,0,0,.144.219.516.516,0,0,0,.232.131.49.49,0,0,0,.252-.009.563.563,0,0,0,.215-.126.7.7,0,0,0,.183-.306,1.18,1.18,0,0,0,.042-.354,1.4,1.4,0,0,0-.071-.439.983.983,0,0,0-.234-.382.681.681,0,0,0-.18-.129.453.453,0,0,0-.218-.046"/>
      <path id="路径_549" data-name="路径 549" class="cls-4" d="M5.222,3.188a.693.693,0,0,0,.022.361.58.58,0,0,0,.133.206.442.442,0,0,0,.13.1.245.245,0,0,0,.162.02.236.236,0,0,0,.124-.08.4.4,0,0,0,.069-.131.7.7,0,0,0-.007-.427.565.565,0,0,0-.17-.265A.352.352,0,0,0,5.547,2.9a.252.252,0,0,0-.156.012.259.259,0,0,0-.121.117.526.526,0,0,0-.05.159"/>
      <path id="路径_550" data-name="路径 550" class="cls-5" d="M4.987,4.692a.146.146,0,0,0,.018.045.215.215,0,0,0,.063.061c.024.017.049.03.074.045a1.312,1.312,0,0,1,.333.31,2.064,2.064,0,0,0,.41.446.89.89,0,0,0,.41.141,1.419,1.419,0,0,0,.51-.057A1.91,1.91,0,0,0,7.242,5.5,4.548,4.548,0,0,1,8,5.022c.062-.022.127-.038.187-.065a.282.282,0,0,0,.145-.125.606.606,0,0,0,.036-.179c.009-.064.031-.127.043-.191A.312.312,0,0,0,8.4,4.269a.256.256,0,0,0-.118-.112.423.423,0,0,0-.161-.039,2.514,2.514,0,0,0-.336.032c-.149.013-.3-.005-.449,0-.185.006-.369.046-.554.052-.212.01-.423-.022-.635-.03a1.4,1.4,0,0,0-.275.012.65.65,0,0,0-.255.095,2.52,2.52,0,0,0-.2.171.513.513,0,0,1-.11.073.3.3,0,0,1-.129.029.266.266,0,0,0-.069,0,.1.1,0,0,0-.036.022.269.269,0,0,0-.027.032.593.593,0,0,0-.049.084"/>
      <path id="路径_551" data-name="路径 551" class="cls-6" d="M5.454,4.242q-.112.064-.219.138a.267.267,0,0,0-.094.092.2.2,0,0,0-.017.089c0,.031,0,.062,0,.092s-.009.041-.01.062a.08.08,0,0,0,0,.031.061.061,0,0,0,.016.028.1.1,0,0,0,.036.02l.042.009a.416.416,0,0,1,.174.1c.05.043.095.092.148.134a.862.862,0,0,0,.515.16,2.431,2.431,0,0,0,.544-.073,3.441,3.441,0,0,0,.413-.11,1.85,1.85,0,0,0,.568-.324A1.981,1.981,0,0,1,7.8,4.5c.075-.045.161-.075.236-.118a.137.137,0,0,0,.02-.013.065.065,0,0,0,.015-.018.05.05,0,0,0,0-.038.1.1,0,0,0-.017-.033.3.3,0,0,0-.031-.031.522.522,0,0,0-.294-.1,2.944,2.944,0,0,1-.315-.019,2.109,2.109,0,0,1-.285-.08,2.111,2.111,0,0,0-.3-.07A2.053,2.053,0,0,0,6.1,4a2.17,2.17,0,0,0-.646.241"/>
      <path id="路径_552" data-name="路径 552" class="cls-7" d="M5.43,4a1.311,1.311,0,0,0-.288.252.578.578,0,0,0-.114.184,1.158,1.158,0,0,0-.037.165.259.259,0,0,0-.01.062.106.106,0,0,0,.005.031A.071.071,0,0,0,5,4.72a.1.1,0,0,0,.049.023l.054.006a.521.521,0,0,1,.224.092c.068.045.131.1.2.139a1.087,1.087,0,0,0,.518.141,2.4,2.4,0,0,0,.541-.052,2.517,2.517,0,0,0,.417-.112,2.557,2.557,0,0,0,.568-.325A2.4,2.4,0,0,0,7.8,4.448c.024-.022.048-.046.074-.067a.286.286,0,0,1,.089-.049.334.334,0,0,1,.154,0,.564.564,0,0,0,.116.012A.163.163,0,0,0,8.3,4.334.118.118,0,0,0,8.343,4.3a.108.108,0,0,0,.025-.068.15.15,0,0,0-.021-.071.254.254,0,0,0-.118-.091,1.2,1.2,0,0,0-.2-.057A2.964,2.964,0,0,1,7.418,3.8c-.1-.046-.19-.1-.285-.145a1.683,1.683,0,0,0-.3-.129,1.241,1.241,0,0,0-.729.031A1.57,1.57,0,0,0,5.429,4"/>
      <path id="路径_553" data-name="路径 553" class="cls-8" d="M6.644,3.715c.013.04.08.033.119.051s.061.052.1.055.094-.012.1-.047S6.9,3.7,6.853,3.682a.238.238,0,0,0-.187,0c-.013.007-.027.022-.022.036M6,3.692c-.05-.016-.132.069-.108.112.008.012.031.027.046.019s.042-.056.066-.072.015-.053,0-.059"/>
      <path id="路径_554" data-name="路径 554" class="cls-7" d="M13.989,13.678a.9.9,0,0,1-.158.255,1.7,1.7,0,0,1-.556.378,11.259,11.259,0,0,0-1.034.524,4.245,4.245,0,0,0-.611.471,4.652,4.652,0,0,1-.5.432,1.455,1.455,0,0,1-.617.25,1.532,1.532,0,0,1-.8-.116.95.95,0,0,1-.447-.336A.971.971,0,0,1,9.141,15a5.319,5.319,0,0,1,.123-.973c.049-.268.1-.536.126-.807a7.977,7.977,0,0,0,.018-1.482,1.142,1.142,0,0,1,0-.248.323.323,0,0,1,.335-.294,1.183,1.183,0,0,1,.238.019,5.2,5.2,0,0,1,.556.092c.115.029.226.068.341.1a1.641,1.641,0,0,0,.588.051,4.789,4.789,0,0,1,.63-.1.975.975,0,0,1,.258.044.56.56,0,0,1,.232.123.494.494,0,0,1,.107.165.988.988,0,0,1,.066.283,2.228,2.228,0,0,0,.023.258.828.828,0,0,0,.2.374,2.477,2.477,0,0,0,.319.286,3.9,3.9,0,0,0,.347.258c.057.037.116.073.169.113a.522.522,0,0,1,.138.147.352.352,0,0,1,.038.258"/>
      <path id="路径_555" data-name="路径 555" class="cls-7" d="M13.989,13.678a.9.9,0,0,1-.159.255,1.725,1.725,0,0,1-.555.378,11.15,11.15,0,0,0-1.035.524,4.166,4.166,0,0,0-.61.471,4.743,4.743,0,0,1-.5.431,1.449,1.449,0,0,1-.617.251,1.546,1.546,0,0,1-.8-.116A.812.812,0,0,1,9.141,15a5.417,5.417,0,0,1,.122-.974c.05-.267.1-.536.127-.806a7.977,7.977,0,0,0,.018-1.482,1.029,1.029,0,0,1,0-.248.325.325,0,0,1,.334-.3,1.368,1.368,0,0,1,.239.019,5.242,5.242,0,0,1,.556.093c.114.029.226.067.341.1a1.617,1.617,0,0,0,.588.052,4.6,4.6,0,0,1,.63-.1.981.981,0,0,1,.258.043.558.558,0,0,1,.231.124.5.5,0,0,1,.108.165.955.955,0,0,1,.065.283,2.249,2.249,0,0,0,.024.258.825.825,0,0,0,.2.373,2.351,2.351,0,0,0,.319.287,3.882,3.882,0,0,0,.346.258c.057.037.116.072.17.113a.528.528,0,0,1,.137.146.349.349,0,0,1,.038.258M2.281,10.936a.53.53,0,0,1,.287-.025.727.727,0,0,1,.269.109,1.642,1.642,0,0,1,.394.408c.263.346.515.7.744,1.067.186.3.356.606.571.886.14.183.3.353.439.535a1.808,1.808,0,0,1,.328.6,1.15,1.15,0,0,1-1.147,1.463,3.131,3.131,0,0,1-.981-.3c-.65-.249-1.357-.327-2.027-.52-.206-.06-.409-.13-.616-.185a1.871,1.871,0,0,1-.273-.084.469.469,0,0,1-.215-.173A.377.377,0,0,1,0,14.514a.614.614,0,0,1,.044-.207c.05-.133.131-.253.186-.385a1.56,1.56,0,0,0,.094-.683c-.012-.231-.054-.46-.068-.691a1.151,1.151,0,0,1,.01-.31.475.475,0,0,1,.408-.4,1.332,1.332,0,0,1,.3-.018,2.962,2.962,0,0,0,.3,0,.7.7,0,0,0,.285-.076.671.671,0,0,0,.2-.185,2.172,2.172,0,0,0,.147-.233,1.439,1.439,0,0,1,.154-.227.582.582,0,0,1,.221-.165"/>
      <path id="路径_556" data-name="路径 556" class="cls-7" d="M2.281,10.936a.53.53,0,0,1,.287-.025.727.727,0,0,1,.269.109,1.642,1.642,0,0,1,.394.408c.263.346.515.7.744,1.067.186.3.356.606.571.886.14.183.3.353.439.535a1.808,1.808,0,0,1,.328.6,1.15,1.15,0,0,1-1.147,1.463,3.131,3.131,0,0,1-.981-.3c-.65-.249-1.357-.327-2.027-.52-.206-.06-.409-.13-.616-.185a1.871,1.871,0,0,1-.273-.084.469.469,0,0,1-.215-.173A.377.377,0,0,1,0,14.514a.614.614,0,0,1,.044-.207c.05-.133.131-.253.186-.385a1.56,1.56,0,0,0,.094-.683c-.012-.231-.054-.46-.068-.691a1.151,1.151,0,0,1,.01-.31.475.475,0,0,1,.408-.4,1.332,1.332,0,0,1,.3-.018,2.962,2.962,0,0,0,.3,0,.7.7,0,0,0,.285-.076.671.671,0,0,0,.2-.185,2.172,2.172,0,0,0,.147-.233,1.439,1.439,0,0,1,.154-.227.582.582,0,0,1,.221-.165"/>
      <path id="路径_557" data-name="路径 557" class="cls-7" d="M2.423,11.088a.461.461,0,0,1,.26-.017.629.629,0,0,1,.235.111,1.449,1.449,0,0,1,.329.391c.223.347.441.7.645,1.054a6.939,6.939,0,0,0,.5.791c.127.164.272.314.4.476a1.587,1.587,0,0,1,.3.535,1.017,1.017,0,0,1-.083.766,1.048,1.048,0,0,1-.4.405,1.089,1.089,0,0,1-.566.134,3.253,3.253,0,0,1-.9-.267c-.568-.2-1.184-.223-1.765-.378-.208-.054-.412-.127-.622-.178a1.9,1.9,0,0,1-.275-.075.445.445,0,0,1-.219-.172.354.354,0,0,1-.047-.2.594.594,0,0,1,.045-.2c.051-.128.13-.243.182-.37a1.376,1.376,0,0,0,.072-.61c-.014-.207-.054-.411-.064-.616A.983.983,0,0,1,.462,12.4a.466.466,0,0,1,.129-.243A.512.512,0,0,1,.87,12.03a1.356,1.356,0,0,1,.312,0,2.186,2.186,0,0,0,.313.014.6.6,0,0,0,.3-.087.563.563,0,0,0,.182-.206,1.97,1.97,0,0,0,.111-.249,1.189,1.189,0,0,1,.125-.243.485.485,0,0,1,.215-.174"/>
    </g>
  </g>
</svg>
