<svg id="不合规弹窗已开启" xmlns="http://www.w3.org/2000/svg" xmlns:xlink="http://www.w3.org/1999/xlink" width="16" height="16" viewBox="0 0 16 16">
  <defs>
    <style>
      .cls-1 {
        fill: #12c189;
      }

      .cls-2 {
        clip-path: url(#clip-path);
      }
    </style>
    <clipPath id="clip-path">
      <rect id="矩形_1223" data-name="矩形 1223" class="cls-1" width="16" height="16"/>
    </clipPath>
  </defs>
  <rect id="矩形_1220" data-name="矩形 1220" class="cls-1" width="1" height="1" transform="translate(5.98 1.99)"/>
  <rect id="矩形_1221" data-name="矩形 1221" class="cls-1" width="1" height="1" transform="translate(7.979 1.99)"/>
  <rect id="矩形_1222" data-name="矩形 1222" class="cls-1" width="1" height="1" transform="translate(3.979 1.99)"/>
  <g id="组_1241" data-name="组 1241">
    <g id="组_1240" data-name="组 1240" class="cls-2">
      <path id="路径_3712" data-name="路径 3712" class="cls-1" d="M14.5,0H3.5A1.5,1.5,0,0,0,2,1.5V2H1.5A1.5,1.5,0,0,0,0,3.5v11A1.5,1.5,0,0,0,1.5,16h10A1.5,1.5,0,0,0,13,14.5V14h1.5A1.5,1.5,0,0,0,16,12.5V1.5A1.5,1.5,0,0,0,14.5,0M12,14.5a.5.5,0,0,1-.5.5H1.5a.5.5,0,0,1-.5-.5V3.5A.5.5,0,0,1,1.5,3H2v9.5A1.5,1.5,0,0,0,3.5,14H12Zm3-2a.5.5,0,0,1-.5.5H3.5a.5.5,0,0,1-.5-.5V1.5A.5.5,0,0,1,3.5,1h11a.5.5,0,0,1,.5.5Z"/>
      <path id="路径_3713" data-name="路径 3713" class="cls-1" d="M12.646,4.648a.5.5,0,0,0-.707,0L9.292,7.294,6.646,4.648a.5.5,0,1,0-.707.707L8.585,8,5.939,10.648a.5.5,0,1,0,.707.707L9.292,8.709l2.647,2.646a.5.5,0,0,0,.707-.707L10,8l2.646-2.647a.5.5,0,0,0,0-.707"/>
    </g>
  </g>
</svg>
