<svg id="一键修复已开启" xmlns="http://www.w3.org/2000/svg" xmlns:xlink="http://www.w3.org/1999/xlink" width="16" height="16" viewBox="0 0 16 16">
  <defs>
    <style>
      .cls-1 {
        fill: #12c189;
      }

      .cls-2 {
        clip-path: url(#clip-path);
      }
    </style>
    <clipPath id="clip-path">
      <rect id="矩形_1228" data-name="矩形 1228" class="cls-1" width="16" height="16"/>
    </clipPath>
  </defs>
  <g id="组_1245" data-name="组 1245" class="cls-2">
    <path id="路径_3716" data-name="路径 3716" class="cls-1" d="M14,0H2A2,2,0,0,0,0,2V14a2,2,0,0,0,2,2H14a2,2,0,0,0,2-2V2a2,2,0,0,0-2-2m1,14a1,1,0,0,1-1,1H2a1,1,0,0,1-1-1V2A1,1,0,0,1,2,1H14a1,1,0,0,1,1,1Z"/>
    <path id="路径_3717" data-name="路径 3717" class="cls-1" d="M9.7,7.96A3.455,3.455,0,0,0,10,6.552a3.5,3.5,0,0,0-3.5-3.5,3.463,3.463,0,0,0-1.072.183l-.778.251L6.628,5.464a.785.785,0,0,1,0,1.111.806.806,0,0,1-1.111,0l-2-2L3.242,5.3A3.482,3.482,0,0,0,6.5,10.052a3.447,3.447,0,0,0,1.44-.317l2.013,2.69A1.785,1.785,0,1,0,12.478,9.9Zm2.074,3.758a.876.876,0,0,1-1.064.055l-2.5-3.349-.39.243A2.488,2.488,0,0,1,4,6.552c0-.026,0-.052,0-.078l.809.808a1.828,1.828,0,0,0,2.525,0,1.786,1.786,0,0,0,0-2.525l-.7-.7a2.487,2.487,0,0,1,1.99,3.8l-.249.4L11.8,10.635a.786.786,0,0,1-.027,1.083"/>
  </g>
</svg>
